<?xml version="1.0" standalone="no"?>
<!DOCTYPE svg PUBLIC "-//W3C//DTD SVG 1.1//EN" "http://www.w3.org/Graphics/SVG/1.1/DTD/svg11.dtd" >
<svg>
<metadata>
Created by FontForge 20090622 at Mon Mar 27 15:28:08 2017
 By deploy user
Copyright (c) Mark Simonson, 2005. All rights reserved.
</metadata>
<defs>
<font id="ProximaNovaExCn-RegularIt" horiz-adv-x="378" >
  <font-face 
    font-family="Proxima Nova ExCn Rg"
    font-weight="400"
    font-style="italic"
    font-stretch="normal"
    units-per-em="1000"
    panose-1="2 0 5 6 3 0 0 2 0 4"
    ascent="790"
    descent="-210"
    x-height="483"
    cap-height="667"
    bbox="-154 -264 830 886"
    underline-thickness="20"
    underline-position="-113"
    unicode-range="U+000D-U+FB04"
  />
<missing-glyph horiz-adv-x="476" 
d="M434 -90h-351v842h351v-842zM402 -60v782h-288v-782h288z" />
    <glyph glyph-name="f_f_j" unicode="ffj" horiz-adv-x="628" 
d="M309 0h-69l94 423h-48l14 60h47l17 81q25 113 117 113q28 0 52 -11l-26 -56q-9 6 -21 6q-42 0 -53 -52l-17 -81h65l-13 -60h-66zM391 -196q-49 0 -65 34l37 46q5 -19 26 -19q31 0 44 64l124 554h68l-123 -554q-16 -68 -41 -96.5t-70 -28.5zM611 554q-18 0 -30.5 12
t-12.5 29q0 23 17 38.5t37 15.5q18 0 30.5 -12.5t12.5 -29.5q0 -23 -17 -38t-37 -15zM85 0h-69l94 423h-48l14 60h47l17 81q24 113 117 113q52 0 73 -29l-34 -52q-12 20 -34 20q-42 0 -53 -52l-17 -81h65l-13 -60h-66z" />
    <glyph glyph-name="f_j" unicode="fj" horiz-adv-x="405" 
d="M85 0h-69l94 423h-48l14 60h47l17 81q25 113 117 113q28 0 52 -11l-26 -56q-9 6 -21 6q-42 0 -53 -52l-17 -81h65l-13 -60h-66zM167 -196q-49 0 -65 34l37 46q5 -19 26 -19q31 0 44 64l124 554h68l-123 -554q-16 -68 -41 -96.5t-70 -28.5zM387 554q-18 0 -30.5 12
t-12.5 29q0 23 17 38.5t37 15.5q18 0 30.5 -12.5t12.5 -29.5q0 -23 -17 -38t-37 -15z" />
    <glyph glyph-name="f_f" unicode="ff" horiz-adv-x="448" 
d="M85 0h-69l94 423h-48l14 60h47l17 81q24 113 117 113q52 0 73 -29l-34 -52q-12 20 -34 20q-42 0 -53 -52l-17 -81h65l-13 -60h-66zM309 0h-69l94 423h-48l14 60h47l17 81q24 113 117 113q52 0 73 -29l-34 -52q-12 20 -34 20q-42 0 -53 -52l-17 -81h65l-13 -60h-66z" />
    <glyph glyph-name="fi" unicode="fi" horiz-adv-x="405" 
d="M85 0h-69l94 423h-48l14 60h47l17 81q25 113 117 113q28 0 52 -11l-26 -56q-9 6 -21 6q-42 0 -53 -52l-17 -81h65l-13 -60h-66zM387 554q-18 0 -30.5 12t-12.5 29q0 23 17 38.5t37 15.5q18 0 30.5 -12.5t12.5 -29.5q0 -23 -17 -38t-37 -15zM294 0h-68l107 483h68z" />
    <glyph glyph-name="fl" unicode="fl" horiz-adv-x="405" 
d="M85 0h-69l94 423h-48l14 60h47l17 81q25 113 117 113q28 0 52 -11l-26 -56q-9 6 -21 6q-42 0 -53 -52l-17 -81h65l-13 -60h-66zM294 0h-68l147 667h68z" />
    <glyph glyph-name="f_f_i" unicode="ffi" horiz-adv-x="628" 
d="M309 0h-69l94 423h-48l14 60h47l17 81q25 113 117 113q28 0 52 -11l-26 -56q-9 6 -21 6q-42 0 -53 -52l-17 -81h65l-13 -60h-66zM611 554q-18 0 -30.5 12t-12.5 29q0 23 17 38.5t37 15.5q18 0 30.5 -12.5t12.5 -29.5q0 -23 -17 -38t-37 -15zM518 0h-68l107 483h68zM85 0
h-69l94 423h-48l14 60h47l17 81q24 113 117 113q52 0 73 -29l-34 -52q-12 20 -34 20q-42 0 -53 -52l-17 -81h65l-13 -60h-66z" />
    <glyph glyph-name="f_f_l" unicode="ffl" horiz-adv-x="628" 
d="M309 0h-69l94 423h-48l14 60h47l17 81q25 113 117 113q28 0 52 -11l-26 -56q-9 6 -21 6q-42 0 -53 -52l-17 -81h65l-13 -60h-66zM518 0h-68l147 667h68zM85 0h-69l94 423h-48l14 60h47l17 81q24 113 117 113q52 0 73 -29l-34 -52q-12 20 -34 20q-42 0 -53 -52l-17 -81h65
l-13 -60h-66z" />
    <glyph glyph-name="f_b" unicode="fb" horiz-adv-x="608" 
d="M85 0h-69l94 423h-48l14 60h47l17 81q25 113 117 113q28 0 52 -11l-26 -56q-9 6 -21 6q-42 0 -53 -52l-17 -81h65l-13 -60h-66zM397 -12q-66 0 -88 81l-15 -69h-67l146 667h68l-54 -246q44 74 101 74q46 0 71 -37.5t25 -105.5q0 -48 -12 -107.5t-33.5 -118.5t-59 -98.5
t-82.5 -39.5zM386 49q39 0 69.5 58t44 124.5t13.5 115.5q0 87 -55 87q-23 0 -47 -23.5t-39 -56.5l-50 -224q3 -34 21.5 -57.5t42.5 -23.5z" />
    <glyph glyph-name="f_h" unicode="fh" horiz-adv-x="602" 
d="M85 0h-69l94 423h-48l14 60h47l17 81q25 113 117 113q28 0 52 -11l-26 -56q-9 6 -21 6q-42 0 -53 -52l-17 -81h65l-13 -60h-66zM492 0h-68l82 371q3 15 3 24q0 39 -38 39q-25 0 -52.5 -24t-47.5 -58l-77 -352h-68l147 667h68l-54 -248q54 76 117 76q38 0 58 -20.5
t20 -53.5q0 -11 -4 -31z" />
    <glyph glyph-name="f_k" unicode="fk" horiz-adv-x="585" 
d="M85 0h-69l94 423h-48l14 60h47l17 81q25 113 117 113q28 0 52 -11l-26 -56q-9 6 -21 6q-42 0 -53 -52l-17 -81h65l-13 -60h-66zM515 0h-72l-44 222l-78 -99l-27 -123h-68l147 667h68l-98 -446l204 262h76l-171 -216z" />
    <glyph glyph-name=".notdef" horiz-adv-x="476" 
d="M434 -90h-351v842h351v-842zM402 -60v782h-288v-782h288z" />
    <glyph glyph-name=".null" horiz-adv-x="0" 
 />
    <glyph glyph-name=".null" horiz-adv-x="0" 
 />
    <glyph glyph-name="nonmarkingreturn" horiz-adv-x="333" 
 />
    <glyph glyph-name="CR" unicode="&#xd;" horiz-adv-x="0" 
 />
    <glyph glyph-name="space" unicode=" " horiz-adv-x="172" 
 />
    <glyph glyph-name="exclam" unicode="!" horiz-adv-x="227" 
d="M128 183h-56l92 484h86zM63 -10q-19 0 -32.5 13.5t-13.5 33.5q0 23 16.5 39.5t39.5 16.5q20 0 33.5 -13.5t13.5 -33.5q0 -24 -16.5 -40t-40.5 -16z" />
    <glyph glyph-name="quotedbl" unicode="&#x22;" horiz-adv-x="336" 
d="M151 417h-34q21 202 21 208q2 24 15.5 38t34.5 14q16 0 27 -11.5t11 -27.5q0 -2 -5 -22zM293 417h-34q21 202 21 208q2 23 15.5 37.5t34.5 14.5q16 0 27 -11.5t11 -27.5q0 -12 -5 -22z" />
    <glyph glyph-name="numbersign" unicode="#" horiz-adv-x="423" 
d="M171 0h-57l85 183h-72l-82 -183h-57l83 183h-68l22 49h69l92 203h-69l20 49h70l83 183h57l-83 -183h71l82 183h56l-82 -183h68l-21 -49h-69l-93 -203h71l-22 -49h-71zM219 232l93 203h-70l-92 -203h69z" />
    <glyph glyph-name="dollar" unicode="$" horiz-adv-x="343" 
d="M78 -100l20 90q-78 11 -115 67l49 55q27 -48 80 -56l57 257q-27 34 -39.5 51.5t-26 52t-13.5 68.5q0 76 47.5 131t113.5 61l20 91h56l-21 -95q52 -11 83 -50l-43 -56q-22 30 -55 39l-54 -241q22 -29 35 -49t24.5 -52.5t11.5 -64.5q0 -81 -43 -139t-111 -69l-20 -91h-56z
M169 496q0 -33 25 -73l40 181q-30 -11 -47.5 -41t-17.5 -67zM230 188q0 31 -18 64l-41 -183q59 36 59 119z" />
    <glyph glyph-name="percent" unicode="%" horiz-adv-x="570" 
d="M115 0h-41l420 667h42zM378 -12q-51 0 -77.5 34.5t-26.5 86.5q0 85 45 146t103 61q51 0 77 -34.5t26 -86.5q0 -85 -45.5 -146t-101.5 -61zM380 35q34 0 63 46t29 110q0 79 -53 79q-34 0 -63 -46.5t-29 -110.5q0 -78 53 -78zM187 349q-51 0 -77 34.5t-26 86.5q0 85 45 146
t102 61q50 0 76.5 -34.5t26.5 -86.5q0 -85 -45 -146t-102 -61zM190 395q34 0 62.5 46.5t28.5 110.5q0 78 -53 78q-34 0 -62.5 -46t-28.5 -110q0 -79 53 -79z" />
    <glyph glyph-name="ampersand" unicode="&#x26;" horiz-adv-x="399" 
d="M332 0h-71q-2 6 -9 22.5t-10 26.5q-59 -61 -119 -61q-50 0 -80.5 33t-30.5 92q0 88 37.5 145.5t105.5 111.5q-7 46 -7 96q0 84 42 147.5t96 63.5q39 0 62 -25t23 -78q0 -26 -4.5 -49t-18.5 -45l-22.5 -35.5t-33 -35.5l-32 -29t-37.5 -31q13 -65 43 -174q27 46 66 139
l52 -27q-48 -111 -95 -180q10 -28 43 -107zM136 46q41 0 86 61q-32 100 -54 195q-83 -81 -83 -182q0 -34 14 -54t37 -20zM212 456q0 -26 1 -39q47 38 71.5 74t24.5 85q0 28 -7.5 37.5t-22.5 9.5q-26 0 -46.5 -53t-20.5 -114z" />
    <glyph glyph-name="quotesingle" unicode="'" horiz-adv-x="195" 
d="M151 417h-34q21 202 21 208q2 24 15.5 38t34.5 14q16 0 27 -11.5t11 -27.5q0 -2 -5 -22z" />
    <glyph glyph-name="parenleft" unicode="(" horiz-adv-x="209" 
d="M96 -183l-51 -16q-26 101 -26 208q0 357 221 676l43 -25q-86 -150 -140 -334.5t-54 -358.5q0 -86 7 -150z" />
    <glyph glyph-name="parenright" unicode=")" horiz-adv-x="209" 
d="M112 669l51 16q26 -101 26 -208q0 -357 -221 -676l-43 25q86 150 140 334.5t54 358.5q0 86 -7 150z" />
    <glyph glyph-name="asterisk" unicode="*" horiz-adv-x="303" 
d="M205 392h-43l31 118l-111 -51l-12 39l114 40l-90 63l29 34l82 -72l20 114h44l-32 -118l110 52l13 -39l-113 -41l90 -62l-30 -35l-82 72z" />
    <glyph glyph-name="plus" unicode="+" 
d="M364 312h-133l-35 -154h-53l34 154h-133l11 50h133l33 148h53l-32 -148h133z" />
    <glyph glyph-name="comma" unicode="," horiz-adv-x="227" 
d="M123 38q0 -44 -33 -89t-79 -68l-29 31q28 14 51.5 37t30.5 47q-3 -1 -8 -1q-16 0 -27.5 12t-11.5 30q0 23 16.5 39.5t39.5 16.5q21 0 35.5 -14.5t14.5 -40.5z" />
    <glyph glyph-name="hyphen" unicode="-" horiz-adv-x="235" 
d="M198 211h-176l14 61h174z" />
    <glyph glyph-name="period" unicode="." horiz-adv-x="227" 
d="M63 -10q-19 0 -32.5 13.5t-13.5 33.5q0 23 16.5 39.5t39.5 16.5q20 0 33.5 -13.5t13.5 -33.5q0 -24 -16.5 -40t-40.5 -16z" />
    <glyph glyph-name="slash" unicode="/" horiz-adv-x="200" 
d="M-5 -20h-54l303 707h55z" />
    <glyph glyph-name="zero" unicode="0" horiz-adv-x="412" 
d="M165 -12q-58 0 -92 45.5t-34 137.5q0 106 30 221.5t88.5 200t127.5 84.5q58 0 92.5 -45.5t34.5 -137.5q0 -106 -30 -221t-88.5 -200t-128.5 -85zM172 56q46 0 86 87t59.5 189.5t19.5 174.5q0 102 -59 102q-46 0 -86 -86.5t-59.5 -189t-19.5 -175.5q0 -102 59 -102z" />
    <glyph glyph-name="one" unicode="1" horiz-adv-x="292" 
d="M175 0h-76l125 567l-122 -107l-35 48l188 159h67z" />
    <glyph glyph-name="two" unicode="2" horiz-adv-x="391" 
d="M293 0h-295l17 78l64 77q157 188 203.5 255.5t46.5 122.5q0 35 -18 55.5t-49 20.5q-59 0 -107 -72l-45 47q70 93 158 93q63 0 102.5 -35.5t39.5 -98.5q0 -76 -57.5 -162.5t-245.5 -313.5h201z" />
    <glyph glyph-name="three" unicode="3" horiz-adv-x="390" 
d="M155 -12q-59 0 -102 34.5t-57 99.5l65 34q18 -100 94 -100q49 0 78.5 53.5t29.5 118.5q0 40 -21.5 60.5t-52.5 20.5q-23 0 -31 -2l16 70q7 -1 46 -1q49 0 77 47.5t28 109.5q0 76 -71 76q-60 0 -100 -71l-46 43q63 96 158 96q63 0 101 -34.5t38 -98.5q0 -70 -39 -130.5
t-99 -73.5q71 -27 71 -124q0 -89 -52.5 -158.5t-130.5 -69.5z" />
    <glyph glyph-name="four" unicode="4" horiz-adv-x="366" 
d="M245 0h-75l38 173h-211l16 74l286 420h93l-95 -427h54l-15 -67h-53zM222 240l74 328l-218 -328h144z" />
    <glyph glyph-name="five" unicode="5" horiz-adv-x="393" 
d="M156 -12q-121 0 -151 133l65 32q12 -97 86 -97q47 0 84 69t37 148q0 81 -62 81q-46 0 -92 -54l-52 24l77 343h272l-15 -67h-197l-50 -230q38 47 93 47q48 0 76.5 -36.5t28.5 -99.5q0 -113 -58 -203t-142 -90z" />
    <glyph glyph-name="six" unicode="6" horiz-adv-x="393" 
d="M165 -12q-67 0 -98 48t-31 127q0 55 15 135t43.5 168t83 149.5t121.5 61.5q45 0 79 -28t44 -75l-56 -44q-4 37 -22.5 58t-48.5 21q-98 0 -159 -263l-4 -22q53 92 120 92q48 0 77.5 -35t29.5 -100q0 -64 -21.5 -129.5t-67.5 -114.5t-105 -49zM170 56q35 0 61.5 40.5
t38 88.5t11.5 88q0 35 -14.5 57t-44.5 22q-55 0 -104 -104q-10 -50 -10 -93q0 -99 62 -99z" />
    <glyph glyph-name="seven" unicode="7" horiz-adv-x="330" 
d="M104 0h-83l281 600h-202l14 67h288l-12 -52z" />
    <glyph glyph-name="eight" unicode="8" horiz-adv-x="391" 
d="M161 -12q-148 0 -148 134q0 70 39 132t114 96q-28 21 -47 58.5t-19 77.5q0 74 50.5 132.5t121.5 58.5q58 0 98 -32.5t40 -100.5q0 -76 -42 -129t-100 -76q33 -25 51.5 -64.5t18.5 -81.5q0 -88 -51 -146.5t-126 -58.5zM223 370q43 17 76 58.5t33 107.5q0 35 -17 54t-48 19
q-38 0 -64.5 -40.5t-26.5 -97.5q0 -31 14 -59t33 -42zM160 56q39 0 70.5 44t31.5 105q0 42 -16.5 72t-34.5 40q-46 -17 -82 -66t-36 -114q0 -41 18.5 -61t48.5 -20z" />
    <glyph glyph-name="nine" unicode="9" horiz-adv-x="393" 
d="M266 678q67 0 98 -47.5t31 -127.5q0 -55 -15 -135t-43.5 -168t-83 -149.5t-121.5 -61.5q-44 0 -78.5 28t-44.5 75l56 44q4 -37 22.5 -58t48.5 -21q98 0 159 263q1 6 2.5 12l2.5 10q-54 -92 -121 -92q-47 0 -76.5 35t-29.5 100q0 64 21 129.5t67 114.5t105 49zM262 610
q-35 0 -61.5 -40.5t-38 -88.5t-11.5 -88q0 -79 58 -79q56 0 105 104q9 56 9 93q0 99 -61 99z" />
    <glyph glyph-name="colon" unicode=":" horiz-adv-x="227" 
d="M64 -10q-20 0 -33.5 13.5t-13.5 33.5q0 23 16.5 39.5t39.5 16.5q20 0 33.5 -13.5t13.5 -33.5q0 -24 -16.5 -40t-39.5 -16zM152 387q-20 0 -34 13.5t-14 33.5q0 23 17 39.5t40 16.5q19 0 33 -14t14 -33q0 -24 -16.5 -40t-39.5 -16z" />
    <glyph glyph-name="semicolon" unicode=";" horiz-adv-x="227" 
d="M123 38q0 -44 -33 -89t-79 -68l-29 31q28 14 51.5 37t30.5 47q-3 -1 -8 -1q-16 0 -27.5 12t-11.5 30q0 23 16.5 39.5t39.5 16.5q21 0 35.5 -14.5t14.5 -40.5zM152 387q-20 0 -34 13.5t-14 33.5q0 23 17 39.5t40 16.5q19 0 33 -14t14 -33q0 -24 -16.5 -40t-39.5 -16z" />
    <glyph glyph-name="less" unicode="&#x3c;" 
d="M330 161l-287 149l11 49l353 149l-14 -62l-284 -115l233 -114z" />
    <glyph glyph-name="equal" unicode="=" 
d="M385 407h-320l11 49h319zM341 212h-320l11 49h321z" />
    <glyph glyph-name="greater" unicode="&#x3e;" 
d="M363 310l-353 -149l14 62l285 114l-234 115l12 56l287 -149z" />
    <glyph glyph-name="question" unicode="?" horiz-adv-x="313" 
d="M184 208l-63 -25q-12 27 -12 62q0 47 26.5 88.5t57.5 67.5t57.5 63t26.5 77q0 29 -17.5 50.5t-47.5 21.5q-37 0 -67 -26l-24 53q51 38 109 38q56 0 90.5 -35t34.5 -84q0 -42 -18.5 -79t-44.5 -64.5t-52.5 -52.5t-45 -53t-18.5 -56q0 -30 8 -46zM110 -10q-20 0 -33.5 14
t-13.5 33q0 23 16.5 39.5t39.5 16.5q20 0 34 -13.5t14 -33.5q0 -24 -16.5 -40t-40.5 -16z" />
    <glyph glyph-name="at" unicode="@" horiz-adv-x="600" 
d="M283 -70q-104 0 -166 77t-62 208q0 164 99 294t231 130q90 0 145 -65.5t55 -179.5q0 -128 -46 -218.5t-103 -90.5q-32 0 -52 19.5t-22 50.5l-1 7q-47 -77 -108 -77q-38 0 -64.5 29t-26.5 94q0 69 22 135t65 111t96 45q56 0 72 -72l11 56h63l-59 -278q-3 -15 -3 -28
q0 -42 29 -42q12 0 27 17.5t30 48.5t25 82.5t10 110.5q0 101 -45.5 156t-120.5 55q-77 0 -145.5 -57t-108 -147t-39.5 -185q0 -116 53 -184.5t143 -68.5q71 0 137 56l17 -26q-76 -63 -158 -63zM277 137q20 0 39.5 14t29 27.5t25.5 38.5l35 162q-12 68 -53 68q-55 0 -90 -76
t-35 -155t49 -79z" />
    <glyph glyph-name="A" unicode="A" horiz-adv-x="364" 
d="M303 0h-75l7 153h-143l-60 -153h-79l278 667h87zM240 220l17 357l-141 -357h124z" />
    <glyph glyph-name="B" unicode="B" horiz-adv-x="403" 
d="M172 0h-163l147 667h117q64 0 99.5 -37.5t35.5 -96.5q0 -69 -34.5 -127t-91.5 -69q33 -10 49.5 -43.5t16.5 -73.5q0 -86 -47 -153t-129 -67zM229 375q46 0 72.5 47.5t26.5 98.5q0 39 -20 59t-55 20h-36l-50 -225h62zM163 67q46 0 77 48t31 110q0 83 -77 83h-42l-53 -241
h64z" />
    <glyph glyph-name="C" unicode="C" horiz-adv-x="390" 
d="M175 -12q-65 0 -100.5 48t-35.5 141q0 61 15 141t44 163.5t81 140t117 56.5q62 0 93 -42.5t37 -111.5l-71 -14q-8 100 -65 100q-40 0 -74.5 -51.5t-55 -124.5t-32 -143.5t-11.5 -116.5q0 -63 15.5 -90.5t47.5 -27.5q47 0 94 85l60 -28q-66 -125 -159 -125z" />
    <glyph glyph-name="D" unicode="D" horiz-adv-x="427" 
d="M137 0h-128l147 667h124q58 0 99 -50t41 -150q0 -37 -7.5 -89.5t-27.5 -120.5t-50 -123.5t-82 -94.5t-116 -39zM99 67h50q50 0 90 50t61 120.5t31.5 131t10.5 97.5q0 68 -21.5 101t-54.5 33h-49z" />
    <glyph glyph-name="E" unicode="E" horiz-adv-x="352" 
d="M257 0h-248l147 667h248l-15 -67h-172l-50 -225h165l-15 -67h-165l-53 -241h172z" />
    <glyph glyph-name="F" unicode="F" horiz-adv-x="351" 
d="M84 0h-75l147 667h248l-15 -67h-172l-50 -225h165l-15 -67h-165z" />
    <glyph glyph-name="G" unicode="G" horiz-adv-x="411" 
d="M175 -12q-65 0 -100.5 47.5t-35.5 141.5q0 65 16 146.5t45.5 163t81 136.5t114.5 55t93.5 -42.5t33.5 -104.5l-66 -15q-7 94 -67 94q-39 0 -73 -50t-55 -121t-33 -142.5t-12 -122.5q0 -64 15.5 -91t47.5 -27q38 0 80 56l34 161h-89l15 67h158l-56 -255q-64 -97 -147 -97z
" />
    <glyph glyph-name="H" unicode="H" horiz-adv-x="436" 
d="M319 0h-75l68 309h-160l-68 -309h-75l147 667h75l-64 -290h160l64 290h75z" />
    <glyph glyph-name="I" unicode="I" horiz-adv-x="201" 
d="M84 0h-75l147 667h75z" />
    <glyph glyph-name="J" unicode="J" horiz-adv-x="321" 
d="M76 -12q-77 0 -112 50l37 58q23 -40 70 -40q37 0 58.5 21t31.5 68l116 522h75l-116 -525q-18 -80 -56 -117t-104 -37z" />
    <glyph glyph-name="K" unicode="K" horiz-adv-x="418" 
d="M353 0h-81l-79 292l-64 -89l-45 -203h-75l147 667h75l-73 -335l239 335h90l-238 -317z" />
    <glyph glyph-name="L" unicode="L" horiz-adv-x="333" 
d="M257 0h-248l147 667h75l-132 -600h172z" />
    <glyph glyph-name="M" unicode="M" horiz-adv-x="558" 
d="M441 0h-74l113 511l-240 -511h-30l-12 511l-114 -511h-75l147 667h100l13 -459l217 459h102z" />
    <glyph glyph-name="N" unicode="N" horiz-adv-x="436" 
d="M319 0h-72l-58 477l-105 -477h-75l147 667h75l56 -466l104 466h75z" />
    <glyph glyph-name="O" unicode="O" horiz-adv-x="434" 
d="M175 -12q-69 0 -102.5 52.5t-33.5 136.5q0 46 9 107t29.5 131t49 128t73 96.5t96.5 38.5q69 0 103 -53.5t34 -137.5q0 -59 -15.5 -139t-44.5 -163t-81.5 -140t-116.5 -57zM180 56q38 0 72.5 50t55.5 121t33.5 142t12.5 121q0 120 -64 120q-39 0 -73 -50t-55 -121.5
t-33 -143t-12 -121.5q0 -118 63 -118z" />
    <glyph glyph-name="P" unicode="P" horiz-adv-x="387" 
d="M84 0h-75l147 667h125q58 0 94.5 -42t36.5 -110q0 -97 -55.5 -171.5t-153.5 -74.5h-60zM158 336h52q57 0 89.5 53t32.5 121q0 44 -18.5 67t-49.5 23h-47z" />
    <glyph glyph-name="Q" unicode="Q" horiz-adv-x="434" 
d="M175 -12q-69 0 -102.5 52.5t-33.5 136.5q0 46 9 107t29.5 131t49 128t73 96.5t96.5 38.5q69 0 103 -53.5t34 -137.5q0 -109 -43.5 -255t-121.5 -209l8 -48l-59 -10l-5 29q-18 -6 -37 -6zM180 56q13 0 22 4l-24 149l60 10l17 -110q44 65 71.5 183t27.5 198q0 120 -64 120
q-39 0 -73 -50t-55 -121.5t-33 -143t-12 -121.5q0 -118 63 -118z" />
    <glyph glyph-name="R" unicode="R" horiz-adv-x="409" 
d="M311 0h-78l-27 269h-63l-59 -269h-75l147 667h123q59 0 96.5 -42.5t37.5 -107.5q0 -85 -40.5 -151.5t-96.5 -83.5zM158 336h53q57 0 89.5 53.5t32.5 122.5q0 44 -18 66t-49 22h-49z" />
    <glyph glyph-name="S" unicode="S" horiz-adv-x="354" 
d="M125 -12q-44 0 -83 19t-59 50l49 55q14 -25 40 -40.5t53 -15.5q42 0 73.5 36t31.5 96q0 35 -22 72t-48 65t-48 71t-22 89q0 81 52.5 137t123.5 56q80 0 123 -55l-43 -56q-30 43 -81 43q-42 0 -69 -34t-27 -80q0 -26 14.5 -53.5t34.5 -53l40.5 -53t35 -63.5t14.5 -74
q0 -90 -52.5 -150.5t-130.5 -60.5z" />
    <glyph glyph-name="T" unicode="T" horiz-adv-x="322" 
d="M145 0h-76l133 600h-105l14 67h286l-14 -67h-106z" />
    <glyph glyph-name="U" unicode="U" horiz-adv-x="437" 
d="M181 -12q-61 0 -100 37.5t-39 102.5q0 24 5 46l109 493h75l-110 -498q-4 -28 -4 -36q0 -38 19.5 -58t50.5 -20q36 0 59 26.5t36 87.5l110 498h75l-109 -495q-41 -184 -177 -184z" />
    <glyph glyph-name="V" unicode="V" horiz-adv-x="364" 
d="M171 0h-87l16 667h75l-27 -567l222 567h80z" />
    <glyph glyph-name="W" unicode="W" horiz-adv-x="548" 
d="M370 0h-80l44 514l-184 -514h-79l40 667h77l-47 -531l193 531h64l-42 -531l188 531h79z" />
    <glyph glyph-name="X" unicode="X" horiz-adv-x="368" 
d="M311 0h-80l-41 265l-153 -265h-87l214 343l-60 324h80l35 -254l143 254h88l-204 -331z" />
    <glyph glyph-name="Y" unicode="Y" horiz-adv-x="372" 
d="M170 0h-75l62 283l-65 384h78l38 -307l174 307h84l-234 -384z" />
    <glyph glyph-name="Z" unicode="Z" horiz-adv-x="340" 
d="M253 0h-274l14 66l298 534h-179l14 67h267l-14 -63l-300 -537h189z" />
    <glyph glyph-name="bracketleft" unicode="[" horiz-adv-x="182" 
d="M67 -190h-128l192 868h129l-11 -52h-76l-170 -764h76z" />
    <glyph glyph-name="backslash" unicode="\" horiz-adv-x="200" 
d="M89 -20v707h53v-707h-53z" />
    <glyph glyph-name="bracketright" unicode="]" horiz-adv-x="182" 
d="M50 -190h-129l12 52h75l169 764h-75l11 52h130z" />
    <glyph glyph-name="asciicircum" unicode="^" horiz-adv-x="330" 
d="M330 333h-53l-30 275l-152 -275h-57l194 334h52z" />
    <glyph glyph-name="underscore" unicode="_" horiz-adv-x="279" 
d="M207 -92h-284l12 52h284z" />
    <glyph glyph-name="grave" unicode="`" horiz-adv-x="146" 
d="M215 556h-46l-68 144h67z" />
    <glyph glyph-name="a" unicode="a" horiz-adv-x="384" 
d="M210 495q30 0 54 -20.5t34 -60.5l15 69h68l-107 -483h-68l14 62q-44 -74 -101 -74q-46 0 -71 37t-25 106q0 48 12 107.5t34 118.5t59.5 98.5t81.5 39.5zM221 434q-39 0 -69.5 -58t-44 -124.5t-13.5 -115.5q0 -87 55 -87q23 0 47 23.5t39 56.5l50 224q-3 34 -21.5 57.5
t-42.5 23.5z" />
    <glyph glyph-name="b" unicode="b" horiz-adv-x="384" 
d="M173 -12q-66 0 -88 81l-15 -69h-67l146 667h68l-54 -246q44 74 101 74q46 0 71 -37.5t25 -105.5q0 -48 -12 -107.5t-33.5 -118.5t-59 -98.5t-82.5 -39.5zM162 49q39 0 69.5 58t44 124.5t13.5 115.5q0 87 -55 87q-23 0 -47 -23.5t-39 -56.5l-50 -224q3 -34 21.5 -57.5
t42.5 -23.5z" />
    <glyph glyph-name="c" unicode="c" horiz-adv-x="317" 
d="M158 -12q-63 0 -98 41.5t-35 124.5q0 52 14 109.5t39 110t67 87t91 34.5q66 0 100 -49l-38 -50q-20 38 -60 38q-44 0 -77.5 -51t-48.5 -113t-15 -115q0 -106 73 -106q34 0 62 31l19 -53q-42 -39 -93 -39z" />
    <glyph glyph-name="d" unicode="d" horiz-adv-x="384" 
d="M210 495q30 0 54 -20.5t34 -60.5l56 253h68l-148 -667h-68l14 62q-44 -74 -101 -74q-46 0 -71 37t-25 106q0 48 12 107.5t34 118.5t59.5 98.5t81.5 39.5zM221 434q-39 0 -69.5 -58t-44 -124.5t-13.5 -115.5q0 -87 55 -87q23 0 47 23.5t39 56.5l50 224q-3 34 -21.5 57.5
t-42.5 23.5z" />
    <glyph glyph-name="e" unicode="e" horiz-adv-x="373" 
d="M164 -12q-66 0 -103 42t-37 124q0 40 11.5 94.5t34.5 111.5t65 96t94 39q123 0 123 -149q0 -55 -18 -127h-236q-8 -32 -8 -68q0 -48 20.5 -77t62.5 -29q45 0 87 54l31 -43q-56 -68 -127 -68zM108 270h170q10 43 10 75q0 40 -16.5 66.5t-47.5 26.5q-45 0 -75 -52t-41 -116
z" />
    <glyph glyph-name="f" unicode="f" horiz-adv-x="224" 
d="M85 0h-69l94 423h-48l14 60h47l17 81q24 113 117 113q52 0 73 -29l-34 -52q-12 20 -34 20q-42 0 -53 -52l-17 -81h65l-13 -60h-66z" />
    <glyph glyph-name="g" unicode="g" horiz-adv-x="384" 
d="M99 -196q-87 0 -132 56l41 54q30 -49 91 -49q76 0 102 116l22 89q-43 -74 -102 -74q-45 0 -71.5 34.5t-26.5 104.5q0 47 11.5 105.5t32.5 117t59 98t85 39.5q28 0 54.5 -22t33.5 -59l15 69h67l-110 -495q-22 -99 -65 -141.5t-107 -42.5zM150 56q24 0 47.5 23.5t38.5 57.5
l49 216q-3 31 -21.5 56t-43.5 25q-29 0 -54 -32t-40 -79t-23.5 -95t-8.5 -84q0 -88 56 -88z" />
    <glyph glyph-name="h" unicode="h" 
d="M268 0h-68l82 371q3 15 3 24q0 39 -38 39q-25 0 -52.5 -24t-47.5 -58l-77 -352h-68l147 667h68l-54 -248q54 76 117 76q38 0 58 -20.5t20 -53.5q0 -11 -4 -31z" />
    <glyph glyph-name="i" unicode="i" horiz-adv-x="180" 
d="M163 554q-18 0 -30.5 12t-12.5 29q0 23 17 38.5t37 15.5q18 0 30.5 -12.5t12.5 -29.5q0 -23 -17 -38t-37 -15zM70 0h-68l107 483h68z" />
    <glyph glyph-name="j" unicode="j" horiz-adv-x="180" 
d="M-57 -196q-49 0 -65 34l37 46q5 -19 26 -19q31 0 44 64l124 554h68l-123 -554q-16 -68 -41 -96.5t-70 -28.5zM163 554q-18 0 -30.5 12t-12.5 29q0 23 17 38.5t37 15.5q18 0 30.5 -12.5t12.5 -29.5q0 -23 -17 -38t-37 -15z" />
    <glyph glyph-name="k" unicode="k" horiz-adv-x="361" 
d="M291 0h-72l-44 222l-78 -99l-27 -123h-68l147 667h68l-98 -446l204 262h76l-171 -216z" />
    <glyph glyph-name="l" unicode="l" horiz-adv-x="180" 
d="M70 0h-68l147 667h68z" />
    <glyph glyph-name="m" unicode="m" horiz-adv-x="576" 
d="M466 0h-69l82 371q4 16 4 24q0 39 -38 39q-26 0 -53.5 -24.5t-46.5 -57.5l-77 -352h-68l82 371q3 24 3 26q0 37 -38 37q-26 0 -53 -24t-47 -58l-77 -352h-68l107 483h68l-14 -64q53 76 117 76q36 0 57 -19.5t21 -48.5q0 -6 -1 -12q56 80 120 80q37 0 58 -19t21 -53
q0 -11 -5 -33z" />
    <glyph glyph-name="n" unicode="n" 
d="M268 0h-68l82 371q3 18 3 24q0 39 -38 39q-25 0 -52.5 -24t-47.5 -58l-77 -352h-68l107 483h68l-14 -64q54 76 117 76q37 0 57.5 -19.5t20.5 -54.5q0 -19 -4 -31z" />
    <glyph glyph-name="o" unicode="o" horiz-adv-x="382" 
d="M150 -12q-60 0 -93 39.5t-33 117.5q0 74 22 152t71.5 138t113.5 60q60 0 92.5 -39t32.5 -118q0 -74 -22 -152t-71 -138t-113 -60zM154 49q39 0 71 54.5t46.5 119.5t14.5 115q0 96 -59 96q-39 0 -71.5 -55t-47 -120t-14.5 -115q0 -95 60 -95z" />
    <glyph glyph-name="p" unicode="p" horiz-adv-x="384" 
d="M173 -12q-66 0 -88 81l-56 -253h-67l147 667h68l-14 -62q44 74 101 74q46 0 71 -37.5t25 -105.5q0 -48 -12 -107.5t-33.5 -118.5t-59 -98.5t-82.5 -39.5zM162 49q39 0 69.5 58t44 124.5t13.5 115.5q0 87 -55 87q-23 0 -47 -23.5t-39 -56.5l-50 -224q3 -34 21.5 -57.5
t42.5 -23.5z" />
    <glyph glyph-name="q" unicode="q" horiz-adv-x="384" 
d="M210 495q30 0 54 -20.5t34 -60.5l15 69h68l-148 -667h-68l55 246q-44 -74 -101 -74q-46 0 -71 37t-25 106q0 48 12 107.5t34 118.5t59.5 98.5t81.5 39.5zM221 434q-39 0 -69.5 -58t-44 -124.5t-13.5 -115.5q0 -87 55 -87q23 0 47 23.5t39 56.5l50 224q-3 34 -21.5 57.5
t-42.5 23.5z" />
    <glyph glyph-name="r" unicode="r" horiz-adv-x="252" 
d="M70 0h-68l107 483h68l-14 -68q46 78 129 78l-16 -70q-9 3 -23 3q-61 0 -107 -82z" />
    <glyph glyph-name="s" unicode="s" horiz-adv-x="309" 
d="M110 -12q-43 0 -77 18t-50 49l42 44q29 -55 88 -55q33 0 56 25t23 59q0 28 -20.5 55t-45.5 46.5t-45.5 52t-20.5 70.5q0 59 38.5 101t102.5 42q76 0 116 -59l-41 -43q-10 21 -31.5 33.5t-45.5 12.5q-32 0 -52 -21t-20 -53q0 -25 21 -51.5t46 -46t46 -53.5t21 -72
q0 -64 -43 -109t-108 -45z" />
    <glyph glyph-name="t" unicode="t" horiz-adv-x="233" 
d="M114 -12q-82 0 -82 71q0 16 4 36l74 328h-49l13 60h49l29 132h69l-29 -132h65l-13 -60h-66l-71 -319q-4 -18 -4 -27q0 -28 29 -28q18 0 31 13l10 -53q-25 -21 -59 -21z" />
    <glyph glyph-name="u" unicode="u" 
d="M109 483h68l-82 -371q-3 -14 -3 -24q0 -39 38 -39q25 0 51 22t46 55l80 357h68l-107 -483h-68l14 64q-54 -76 -117 -76q-37 0 -57.5 19.5t-20.5 54.5q0 19 4 31z" />
    <glyph glyph-name="v" unicode="v" horiz-adv-x="326" 
d="M146 0h-75l-9 483h71l-8 -399l170 399h74z" />
    <glyph glyph-name="w" unicode="w" horiz-adv-x="541" 
d="M369 0h-71l4 389l-167 -389h-71l2 483h70l-14 -387l164 387h69l-7 -387l159 387h74z" />
    <glyph glyph-name="x" unicode="x" horiz-adv-x="326" 
d="M259 0h-71l-35 191l-119 -191h-76l163 244l-50 239h71l30 -184l114 184h74l-156 -239z" />
    <glyph glyph-name="y" unicode="y" horiz-adv-x="326" 
d="M-61 -186l23 57q6 -6 23 -6q15 0 25.5 10t22.5 35l37 77l-8 496h71l-8 -396l170 396h74l-274 -589q-25 -51 -49 -70.5t-58 -19.5q-29 0 -49 10z" />
    <glyph glyph-name="z" unicode="z" horiz-adv-x="303" 
d="M214 0h-234l11 54l232 369h-149l13 60h230l-11 -52l-231 -371h152z" />
    <glyph glyph-name="braceleft" unicode="{" horiz-adv-x="202" 
d="M88 -190h-24q-33 0 -57.5 22t-25.5 59q0 7 4 27l52 233q2 10 2 20q0 50 -39 50l11 46q51 0 67 70l52 236q25 105 121 105h30l-12 -52h-30q-42 0 -55 -53l-54 -247q-8 -35 -22.5 -56t-42.5 -32q29 -14 29 -55q0 -18 -4 -34l-51 -231q-2 -12 -2 -17q0 -19 9.5 -29.5
t23.5 -10.5h30z" />
    <glyph glyph-name="bar" unicode="|" horiz-adv-x="177" 
d="M134 -20h-51v707h51v-707z" />
    <glyph glyph-name="braceright" unicode="}" horiz-adv-x="202" 
d="M113 678h24q33 0 58 -22.5t25 -59.5q0 -6 -4 -26l-52 -233q-2 -10 -2 -21q0 -49 39 -49l-11 -46q-51 0 -67 -70l-52 -236q-25 -105 -121 -105h-30l12 52h30q42 0 55 53l54 247q8 35 22.5 56t42.5 32q-29 14 -29 55q0 18 4 34l51 231q2 12 2 17q0 19 -9.5 29.5t-23.5 10.5
h-30z" />
    <glyph glyph-name="asciitilde" unicode="~" horiz-adv-x="395" 
d="M408 667l52 -5q-53 -237 -153 -237q-38 0 -53.5 30t-13.5 65.5t-3.5 65.5t-24.5 30q-48 0 -93 -193l-51 6q51 237 152 237q31 0 46.5 -20t18 -48t2.5 -56.5t5.5 -48.5t22.5 -20q48 0 93 194z" />
    <glyph glyph-name="nbspace" unicode="&#xa0;" horiz-adv-x="172" 
 />
    <glyph glyph-name="exclamdown" unicode="&#xa1;" horiz-adv-x="227" 
d="M98 300h56l-92 -484h-86zM162 493q20 0 33.5 -13.5t13.5 -33.5q0 -23 -16.5 -39.5t-39.5 -16.5q-20 0 -34 13.5t-14 33.5q0 24 16.5 40t40.5 16z" />
    <glyph glyph-name="cent" unicode="&#xa2;" horiz-adv-x="317" 
d="M94 -100l20 94q-89 26 -89 160q0 50 13 106.5t37 108t64 87t87 38.5l16 71h55l-18 -77q37 -14 57 -42l-38 -50q-11 21 -32 32l-85 -378q27 4 51 30l19 -53q-39 -36 -83 -39l-19 -88h-55zM97 155q0 -70 33 -94l82 368q-53 -20 -84 -108t-31 -166z" />
    <glyph glyph-name="sterling" unicode="&#xa3;" horiz-adv-x="380" 
d="M36 271l10 50h71q-1 6 -6.5 25t-8 28.5t-5 27t-2.5 34.5q0 98 57 169.5t131 71.5q55 0 91.5 -32t39.5 -88l-66 -22q-7 78 -65 78q-41 0 -74.5 -53.5t-33.5 -130.5q0 -19 3.5 -36.5t10 -40t8.5 -31.5h75l-11 -50h-59q-3 -59 -33.5 -112.5t-69.5 -81.5q19 10 35 10
q23 0 55 -15.5t48 -15.5q39 0 69 34l12 -60q-37 -42 -95 -42q-36 0 -72 20.5t-57 20.5q-32 0 -79 -36l-15 55q52 30 90 88.5t38 116.5q0 3 -0.5 9t-0.5 9h-91z" />
    <glyph glyph-name="currency" unicode="&#xa4;" horiz-adv-x="391" 
d="M184 100q-57 0 -89 35l-80 -66l-39 49l88 72q-9 29 -9 67q0 142 70 235l-55 72l49 41l52 -67q38 27 82 27q53 0 88 -33l82 67l39 -49l-90 -73q10 -30 10 -69q0 -65 -19 -128.5t-52 -107.5l56 -72l-50 -41l-52 68q-38 -27 -81 -27zM123 258q0 -94 68 -94q36 0 65 40.5
t43.5 95.5t14.5 106q0 95 -67 95q-37 0 -66.5 -41.5t-43.5 -96t-14 -105.5z" />
    <glyph glyph-name="yen" unicode="&#xa5;" horiz-adv-x="372" 
d="M172 0h-75l27 124h-130l11 49h130l24 110h-129l10 49h110l-56 335h78l38 -307l174 307h84l-204 -335h104l-10 -49h-124l-24 -110h123l-11 -49h-123z" />
    <glyph glyph-name="brokenbar" unicode="&#xa6;" horiz-adv-x="177" 
d="M134 -20h-51v316h51v-316zM134 371h-51v316h51v-316z" />
    <glyph glyph-name="section" unicode="&#xa7;" horiz-adv-x="310" 
d="M298 324q0 -107 -101 -143q46 -44 46 -102q0 -66 -41 -113t-104 -47q-97 0 -136 63l43 44q29 -54 89 -54q34 0 58 28.5t24 68.5q0 23 -13.5 43.5t-32.5 37t-37.5 34.5t-32 44.5t-13.5 58.5q0 51 30 88t82 46q-57 49 -57 113q0 62 40 102.5t95 40.5q84 0 124 -58l-41 -39
q-26 45 -80 45q-31 0 -51.5 -24.5t-20.5 -58.5q0 -28 20.5 -54.5t44.5 -45t44.5 -50t20.5 -68.5zM233 309q0 45 -35 82q-87 -11 -87 -92q0 -49 50 -90q72 27 72 100z" />
    <glyph glyph-name="dieresis" unicode="&#xa8;" horiz-adv-x="264" 
d="M325 608q0 -19 -14.5 -33.5t-34.5 -14.5q-16 0 -27 11t-11 28q0 19 14.5 33t34.5 14q16 0 27 -11t11 -27zM185 608q0 -19 -14.5 -33.5t-34.5 -14.5q-17 0 -28 11t-11 28q0 19 14.5 33t34.5 14q17 0 28 -11t11 -27z" />
    <glyph glyph-name="copyright" unicode="&#xa9;" horiz-adv-x="778" 
d="M754 334q0 -142 -101.5 -243.5t-244.5 -101.5q-142 0 -243 101t-101 244t101 244t243 101q143 0 244.5 -101.5t101.5 -243.5zM724 334q0 130 -93 222.5t-223 92.5t-222 -92.5t-92 -222.5t92 -222.5t222 -92.5t223 92.5t93 222.5zM505 200l19 -27q-60 -52 -134 -52
q-88 0 -140 53t-52 133q0 100 72 170.5t164 70.5q106 0 155 -80l-29 -21q-37 69 -127 69q-75 0 -137.5 -60.5t-62.5 -147.5q0 -65 43.5 -110t113.5 -45q68 0 115 47z" />
    <glyph glyph-name="ordfeminine" unicode="&#xaa;" horiz-adv-x="292" 
d="M217 605q-37 0 -62 -60.5t-25 -117.5q0 -66 41 -66q15 0 31.5 16t28.5 38l30 141q-2 20 -14.5 34.5t-29.5 14.5zM280 640h53l-69 -314h-53l9 43q-32 -51 -73 -51q-72 0 -72 106q0 47 14.5 97t45.5 88.5t71 38.5q20 0 38.5 -13.5t26.5 -36.5z" />
    <glyph glyph-name="guillemotleft" unicode="&#xab;" horiz-adv-x="325" 
d="M135 63h-56l-50 180l130 177h60l-133 -181zM252 63h-57l-50 180l130 177h61l-133 -181z" />
    <glyph glyph-name="logicalnot" unicode="&#xac;" 
d="M395 456l-54 -244h-51l43 195h-268l11 49h319z" />
    <glyph glyph-name="uni00AD" unicode="&#xad;" horiz-adv-x="235" 
d="M198 211h-176l14 61h174z" />
    <glyph glyph-name="registered" unicode="&#xae;" horiz-adv-x="494" 
d="M508 465q0 -88 -62.5 -150t-150.5 -62t-149.5 62t-61.5 150t62 150t150 62t150 -61.5t62 -150.5zM480 465q0 77 -54 130.5t-131 53.5t-130 -53.5t-53 -130.5q0 -76 53.5 -130t129.5 -54t130.5 54t54.5 130zM367 343h-38l-42 96h-46l-21 -96h-32l53 243h92q30 0 50 -17.5
t20 -46.5q0 -35 -24.5 -58.5t-55.5 -23.5zM369 518q0 19 -11.5 29.5t-29.5 10.5h-61l-20 -90h68q22 0 38 14.5t16 35.5z" />
    <glyph glyph-name="macron" unicode="&#xaf;" horiz-adv-x="248" 
d="M320 573h-247l9 45h248z" />
    <glyph glyph-name="degree" unicode="&#xb0;" horiz-adv-x="288" 
d="M333 556q0 -49 -35.5 -84t-85.5 -35t-84.5 34.5t-34.5 84.5t35 85.5t84 35.5q50 0 85.5 -35.5t35.5 -85.5zM288 556q0 31 -22.5 53t-53.5 22t-52.5 -22t-21.5 -53t21 -52.5t52 -21.5t54 22t23 52z" />
    <glyph glyph-name="plusminus" unicode="&#xb1;" 
d="M364 312h-133l-35 -154h-53l34 154h-133l11 50h133l33 148h53l-32 -148h133zM305 44h-321l11 50h320z" />
    <glyph glyph-name="twosuperior" unicode="&#xb2;" horiz-adv-x="265" 
d="M280 421h-210l10 44q131 131 170.5 180t39.5 87q0 23 -13.5 36t-34.5 13q-42 0 -76 -49l-31 36q49 59 110 59q43 0 72.5 -24t29.5 -67q0 -47 -38 -95.5t-148 -159.5l-14 -14h143z" />
    <glyph glyph-name="threesuperior" unicode="&#xb3;" horiz-adv-x="265" 
d="M307 543q0 -47 -33 -88t-88 -41q-40 0 -69.5 19t-40.5 51l44 30q15 -54 64 -54q33 0 50.5 29.5t17.5 64.5q0 25 -13.5 37.5t-33.5 12.5q-22 0 -27 -1l10 46q5 -1 30 -1q29 0 50 23.5t21 60.5q0 22 -13 35.5t-36 13.5q-39 0 -74 -45l-30 31q45 60 109 60q46 0 73 -23.5
t27 -65.5q0 -38 -24 -73t-64 -42q50 -15 50 -80z" />
    <glyph glyph-name="acute" unicode="&#xb4;" horiz-adv-x="146" 
d="M247 700l-132 -144h-48l111 144h69z" />
    <glyph glyph-name="mu" unicode="&#xb5;" horiz-adv-x="387" 
d="M73 11l-43 -195h-68l147 667h68l-82 -372q-14 -64 35 -64q51 0 98 79l79 357h68l-85 -384q-6 -25 -2 -37.5t21 -12.5q9 0 15 1l-8 -58q-14 -4 -34 -4q-39 0 -52.5 20t-8.5 64q-20 -38 -47.5 -61t-56.5 -23t-44 23z" />
    <glyph glyph-name="paragraph" unicode="&#xb6;" horiz-adv-x="449" 
d="M298 -100h-43l161 724h-90l-161 -724h-43l94 423q-57 0 -97 44.5t-40 111.5q0 73 56.5 130.5t137.5 57.5h195z" />
    <glyph glyph-name="periodcentered" unicode="&#xb7;" horiz-adv-x="227" 
d="M108 193q-20 0 -33.5 13.5t-13.5 33.5q0 23 17 39.5t40 16.5q20 0 33.5 -14t13.5 -33q0 -24 -16.5 -40t-40.5 -16z" />
    <glyph glyph-name="cedilla" unicode="&#xb8;" horiz-adv-x="165" 
d="M-7 -191q-51 0 -82 37l24 33q23 -32 59 -32q22 0 36 15t14 35q0 27 -25 27q-16 0 -28 -14l-27 17l50 84h43l-42 -67q10 10 24 10q22 0 35 -15.5t13 -39.5q0 -37 -27.5 -63.5t-66.5 -26.5z" />
    <glyph glyph-name="onesuperior" unicode="&#xb9;" horiz-adv-x="215" 
d="M201 421h-55l70 324l-69 -60l-27 34l121 102h48z" />
    <glyph glyph-name="ordmasculine" unicode="&#xba;" horiz-adv-x="289" 
d="M173 318q-95 0 -95 112q0 44 14.5 92t48.5 87t80 39q95 0 95 -112q0 -43 -14.5 -91.5t-49 -87.5t-79.5 -39zM175 363q40 0 63.5 62.5t23.5 112.5q0 64 -44 64q-40 0 -63.5 -62.5t-23.5 -112.5q0 -64 44 -64z" />
    <glyph glyph-name="guillemotright" unicode="&#xbb;" horiz-adv-x="325" 
d="M73 420h56l50 -180l-130 -177h-60l133 181zM189 420h57l50 -180l-130 -177h-61l133 181z" />
    <glyph glyph-name="onequarter" unicode="&#xbc;" horiz-adv-x="576" 
d="M167 267h-55l70 324l-69 -60l-27 34l121 102h48zM529 102h-37l-22 -102h-55l22 102h-140l9 46l184 252h68l-56 -253h36zM447 147l41 185l-133 -185h92zM537 667l-421 -667h-41l420 667h42z" />
    <glyph glyph-name="onehalf" unicode="&#xbd;" horiz-adv-x="608" 
d="M167 267h-55l70 324l-69 -60l-27 34l121 102h48zM531 0h-210l10 44q131 131 170.5 180t39.5 87q0 23 -13.5 36t-34.5 13q-42 0 -76 -49l-31 36q49 59 110 59q43 0 72.5 -24t29.5 -67q0 -47 -38 -95.5t-148 -159.5l-14 -14h143zM537 667l-421 -667h-41l420 667h42z" />
    <glyph glyph-name="threequarters" unicode="&#xbe;" horiz-adv-x="612" 
d="M565 102h-37l-22 -102h-55l22 102h-140l9 46l184 252h68l-56 -253h36zM483 147l41 185l-133 -185h92zM573 667l-421 -667h-41l420 667h42zM273 389q0 -47 -33 -88t-88 -41q-40 0 -69.5 19t-40.5 51l44 30q15 -54 64 -54q33 0 50.5 29.5t17.5 64.5q0 25 -13.5 37.5
t-33.5 12.5q-22 0 -27 -1l10 46q5 -1 30 -1q29 0 50 23.5t21 60.5q0 22 -13 35.5t-36 13.5q-39 0 -74 -45l-30 31q45 60 109 60q46 0 73 -23.5t27 -65.5q0 -38 -24 -73t-64 -42q50 -15 50 -80z" />
    <glyph glyph-name="questiondown" unicode="&#xbf;" horiz-adv-x="270" 
d="M127 275l64 25q11 -28 11 -62q0 -39 -17.5 -72.5t-42 -58.5l-49 -49t-42 -53.5t-17.5 -62.5q0 -30 17 -51t48 -21q36 0 67 25l23 -52q-47 -38 -107 -38q-57 0 -91.5 35t-34.5 84q0 42 18.5 79t44.5 64.5t52.5 52.5t45 53t18.5 56q0 29 -8 46zM201 493q20 0 33.5 -14
t13.5 -34q0 -23 -16.5 -39t-39.5 -16q-20 0 -34 13.5t-14 33.5q0 23 17 39.5t40 16.5z" />
    <glyph glyph-name="Agrave" unicode="&#xc0;" horiz-adv-x="364" 
d="M303 0h-75l7 153h-143l-60 -153h-79l278 667h87zM240 220l17 357l-141 -357h124zM324 723h-46l-68 144h67z" />
    <glyph glyph-name="Aacute" unicode="&#xc1;" horiz-adv-x="364" 
d="M303 0h-75l7 153h-143l-60 -153h-79l278 667h87zM240 220l17 357l-141 -357h124zM429 867l-132 -144h-48l111 144h69z" />
    <glyph glyph-name="Acircumflex" unicode="&#xc2;" horiz-adv-x="364" 
d="M387 723h-39l-38 105l-79 -105h-44l98 144h66zM303 0h-75l7 153h-143l-60 -153h-79l278 667h87zM240 220l17 357l-141 -357h124z" />
    <glyph glyph-name="Atilde" unicode="&#xc3;" horiz-adv-x="364" 
d="M303 0h-75l7 153h-143l-60 -153h-79l278 667h87zM240 220l17 357l-141 -357h124zM335 721q-21 0 -32 15t-13 32.5t-8 32.5t-18 15q-29 0 -48 -89h-40q31 134 95 134q21 0 32 -15t13 -32.5t8 -32.5t18 -15q28 0 48 89h40q-29 -134 -95 -134z" />
    <glyph glyph-name="Adieresis" unicode="&#xc4;" horiz-adv-x="364" 
d="M411 775q0 -19 -14.5 -33.5t-34.5 -14.5q-16 0 -27 11t-11 28q0 19 14.5 33t34.5 14q16 0 27 -11t11 -27zM271 775q0 -19 -14.5 -33.5t-34.5 -14.5q-17 0 -28 11t-11 28q0 19 14.5 33t34.5 14q17 0 28 -11t11 -27zM303 0h-75l7 153h-143l-60 -153h-79l278 667h87z
M240 220l17 357l-141 -357h124z" />
    <glyph glyph-name="Aring" unicode="&#xc5;" horiz-adv-x="364" 
d="M303 0h-75l7 153h-143l-60 -153h-79l278 667h87zM240 220l17 357l-141 -357h124zM290 692q-33 0 -53.5 21.5t-20.5 54.5q0 37 27.5 64.5t64.5 27.5q32 0 53 -21.5t21 -54.5q0 -37 -27.5 -64.5t-64.5 -27.5zM292 728q22 0 38 15.5t16 37.5q0 18 -11.5 30.5t-28.5 12.5
q-22 0 -38 -15.5t-16 -37.5q0 -18 11 -30.5t29 -12.5z" />
    <glyph glyph-name="AE" unicode="&#xc6;" horiz-adv-x="554" 
d="M457 0h-248l34 153h-123l-80 -153h-80l364 667h280l-14 -67h-172l-50 -225h165l-15 -67h-166l-52 -241h172zM258 220l77 348l-181 -348h104z" />
    <glyph glyph-name="Ccedilla" unicode="&#xc7;" horiz-adv-x="390" 
d="M128 -191q-51 0 -82 37l24 33q23 -32 59 -32q22 0 36 15t14 35q0 27 -25 27q-16 0 -28 -14l-27 17l39 66q-99 25 -99 184q0 61 15 141t44 163.5t81 140t117 56.5q62 0 93 -42.5t37 -111.5l-71 -14q-8 100 -65 100q-40 0 -74.5 -51.5t-55 -124.5t-32 -143.5t-11.5 -116.5
q0 -63 15.5 -90.5t47.5 -27.5q47 0 94 85l60 -28q-66 -124 -157 -125l-27 -44q10 10 24 10q22 0 35 -15.5t13 -39.5q0 -37 -27.5 -63.5t-66.5 -26.5z" />
    <glyph glyph-name="Egrave" unicode="&#xc8;" horiz-adv-x="352" 
d="M257 0h-248l147 667h248l-15 -67h-172l-50 -225h165l-15 -67h-165l-53 -241h172zM328 723h-46l-68 144h67z" />
    <glyph glyph-name="Eacute" unicode="&#xc9;" horiz-adv-x="352" 
d="M433 867l-132 -144h-48l111 144h69zM257 0h-248l147 667h248l-15 -67h-172l-50 -225h165l-15 -67h-165l-53 -241h172z" />
    <glyph glyph-name="Ecircumflex" unicode="&#xca;" horiz-adv-x="352" 
d="M393 723h-39l-38 105l-79 -105h-44l98 144h66zM257 0h-248l147 667h248l-15 -67h-172l-50 -225h165l-15 -67h-165l-53 -241h172z" />
    <glyph glyph-name="Edieresis" unicode="&#xcb;" horiz-adv-x="352" 
d="M416 775q0 -19 -14.5 -33.5t-34.5 -14.5q-16 0 -27 11t-11 28q0 19 14.5 33t34.5 14q16 0 27 -11t11 -27zM276 775q0 -19 -14.5 -33.5t-34.5 -14.5q-17 0 -28 11t-11 28q0 19 14.5 33t34.5 14q17 0 28 -11t11 -27zM257 0h-248l147 667h248l-15 -67h-172l-50 -225h165
l-15 -67h-165l-53 -241h172z" />
    <glyph glyph-name="Igrave" unicode="&#xcc;" horiz-adv-x="201" 
d="M84 0h-75l147 667h75zM242 723h-46l-68 144h67z" />
    <glyph glyph-name="Iacute" unicode="&#xcd;" horiz-adv-x="201" 
d="M84 0h-75l147 667h75zM347 867l-132 -144h-48l111 144h69z" />
    <glyph glyph-name="Icircumflex" unicode="&#xce;" horiz-adv-x="201" 
d="M307 723h-39l-38 105l-79 -105h-44l98 144h66zM84 0h-75l147 667h75z" />
    <glyph glyph-name="Idieresis" unicode="&#xcf;" horiz-adv-x="201" 
d="M330 775q0 -19 -14.5 -33.5t-34.5 -14.5q-16 0 -27 11t-11 28q0 19 14.5 33t34.5 14q16 0 27 -11t11 -27zM190 775q0 -19 -14.5 -33.5t-34.5 -14.5q-17 0 -28 11t-11 28q0 19 14.5 33t34.5 14q17 0 28 -11t11 -27zM84 0h-75l147 667h75z" />
    <glyph glyph-name="Eth" unicode="&#xd0;" horiz-adv-x="446" 
d="M156 0h-128l66 302h-60l14 63h60l67 302h124q58 0 99 -50t41 -150q0 -37 -7.5 -89.5t-27.5 -120.5t-50 -123.5t-82 -94.5t-116 -39zM254 302h-84l-52 -235h50q50 0 90 50t61 120.5t31.5 131t10.5 97.5q0 68 -21.5 101t-54.5 33h-49l-52 -235h84z" />
    <glyph glyph-name="Ntilde" unicode="&#xd1;" horiz-adv-x="436" 
d="M372 721q-21 0 -32 15t-13 32.5t-8 32.5t-18 15q-29 0 -48 -89h-40q31 134 95 134q21 0 32 -15t13 -32.5t8 -32.5t18 -15q28 0 48 89h40q-29 -134 -95 -134zM319 0h-72l-58 477l-105 -477h-75l147 667h75l56 -466l104 466h75z" />
    <glyph glyph-name="Ograve" unicode="&#xd2;" horiz-adv-x="434" 
d="M358 723h-46l-68 144h67zM175 -12q-69 0 -102.5 52.5t-33.5 136.5q0 46 9 107t29.5 131t49 128t73 96.5t96.5 38.5q69 0 103 -53.5t34 -137.5q0 -59 -15.5 -139t-44.5 -163t-81.5 -140t-116.5 -57zM180 56q38 0 72.5 50t55.5 121t33.5 142t12.5 121q0 120 -64 120
q-39 0 -73 -50t-55 -121.5t-33 -143t-12 -121.5q0 -118 63 -118z" />
    <glyph glyph-name="Oacute" unicode="&#xd3;" horiz-adv-x="434" 
d="M465 867l-132 -144h-48l111 144h69zM175 -12q-69 0 -102.5 52.5t-33.5 136.5q0 46 9 107t29.5 131t49 128t73 96.5t96.5 38.5q69 0 103 -53.5t34 -137.5q0 -59 -15.5 -139t-44.5 -163t-81.5 -140t-116.5 -57zM180 56q38 0 72.5 50t55.5 121t33.5 142t12.5 121
q0 120 -64 120q-39 0 -73 -50t-55 -121.5t-33 -143t-12 -121.5q0 -118 63 -118z" />
    <glyph glyph-name="Ocircumflex" unicode="&#xd4;" horiz-adv-x="434" 
d="M423 723h-39l-38 105l-79 -105h-44l98 144h66zM175 -12q-69 0 -102.5 52.5t-33.5 136.5q0 46 9 107t29.5 131t49 128t73 96.5t96.5 38.5q69 0 103 -53.5t34 -137.5q0 -59 -15.5 -139t-44.5 -163t-81.5 -140t-116.5 -57zM180 56q38 0 72.5 50t55.5 121t33.5 142t12.5 121
q0 120 -64 120q-39 0 -73 -50t-55 -121.5t-33 -143t-12 -121.5q0 -118 63 -118z" />
    <glyph glyph-name="Otilde" unicode="&#xd5;" horiz-adv-x="434" 
d="M175 -12q-69 0 -102.5 52.5t-33.5 136.5q0 46 9 107t29.5 131t49 128t73 96.5t96.5 38.5q69 0 103 -53.5t34 -137.5q0 -59 -15.5 -139t-44.5 -163t-81.5 -140t-116.5 -57zM180 56q38 0 72.5 50t55.5 121t33.5 142t12.5 121q0 120 -64 120q-39 0 -73 -50t-55 -121.5
t-33 -143t-12 -121.5q0 -118 63 -118zM370 721q-21 0 -32 15t-13 32.5t-8 32.5t-18 15q-29 0 -48 -89h-40q31 134 95 134q21 0 32 -15t13 -32.5t8 -32.5t18 -15q28 0 48 89h40q-29 -134 -95 -134z" />
    <glyph glyph-name="Odieresis" unicode="&#xd6;" horiz-adv-x="434" 
d="M446 775q0 -19 -14.5 -33.5t-34.5 -14.5q-16 0 -27 11t-11 28q0 19 14.5 33t34.5 14q16 0 27 -11t11 -27zM306 775q0 -19 -14.5 -33.5t-34.5 -14.5q-17 0 -28 11t-11 28q0 19 14.5 33t34.5 14q17 0 28 -11t11 -27zM175 -12q-69 0 -102.5 52.5t-33.5 136.5q0 46 9 107
t29.5 131t49 128t73 96.5t96.5 38.5q69 0 103 -53.5t34 -137.5q0 -59 -15.5 -139t-44.5 -163t-81.5 -140t-116.5 -57zM180 56q38 0 72.5 50t55.5 121t33.5 142t12.5 121q0 120 -64 120q-39 0 -73 -50t-55 -121.5t-33 -143t-12 -121.5q0 -118 63 -118z" />
    <glyph glyph-name="multiply" unicode="&#xd7;" 
d="M286 194l-82 105l-132 -108l-30 38l133 108l-83 105l39 32l82 -105l132 108l31 -38l-132 -108l81 -105z" />
    <glyph glyph-name="Oslash" unicode="&#xd8;" horiz-adv-x="434" 
d="M175 -12q-66 0 -101 49l-23 -37h-52l53 83q-13 40 -13 94q0 46 9 107t29.5 131t49 128t73 96.5t96.5 38.5q65 0 101 -51l26 40h51l-55 -86q14 -44 14 -94q0 -59 -15.5 -139t-44.5 -163t-81.5 -140t-116.5 -57zM290 610q-38 0 -71.5 -47t-54.5 -116t-33.5 -138.5
t-13.5 -122.5l231 364q-13 60 -58 60zM180 56q49 0 90 79.5t61.5 173.5t22.5 168l-232 -364q13 -57 58 -57z" />
    <glyph glyph-name="Ugrave" unicode="&#xd9;" horiz-adv-x="437" 
d="M181 -12q-61 0 -100 37.5t-39 102.5q0 24 5 46l109 493h75l-110 -498q-4 -28 -4 -36q0 -38 19.5 -58t50.5 -20q36 0 59 26.5t36 87.5l110 498h75l-109 -495q-41 -184 -177 -184zM359 723h-46l-68 144h67z" />
    <glyph glyph-name="Uacute" unicode="&#xda;" horiz-adv-x="437" 
d="M465 867l-132 -144h-48l111 144h69zM181 -12q-61 0 -100 37.5t-39 102.5q0 24 5 46l109 493h75l-110 -498q-4 -28 -4 -36q0 -38 19.5 -58t50.5 -20q36 0 59 26.5t36 87.5l110 498h75l-109 -495q-41 -184 -177 -184z" />
    <glyph glyph-name="Ucircumflex" unicode="&#xdb;" horiz-adv-x="437" 
d="M424 723h-39l-38 105l-79 -105h-44l98 144h66zM181 -12q-61 0 -100 37.5t-39 102.5q0 24 5 46l109 493h75l-110 -498q-4 -28 -4 -36q0 -38 19.5 -58t50.5 -20q36 0 59 26.5t36 87.5l110 498h75l-109 -495q-41 -184 -177 -184z" />
    <glyph glyph-name="Udieresis" unicode="&#xdc;" horiz-adv-x="437" 
d="M447 775q0 -19 -14.5 -33.5t-34.5 -14.5q-16 0 -27 11t-11 28q0 19 14.5 33t34.5 14q16 0 27 -11t11 -27zM307 775q0 -19 -14.5 -33.5t-34.5 -14.5q-17 0 -28 11t-11 28q0 19 14.5 33t34.5 14q17 0 28 -11t11 -27zM181 -12q-61 0 -100 37.5t-39 102.5q0 24 5 46l109 493
h75l-110 -498q-4 -28 -4 -36q0 -38 19.5 -58t50.5 -20q36 0 59 26.5t36 87.5l110 498h75l-109 -495q-41 -184 -177 -184z" />
    <glyph glyph-name="Yacute" unicode="&#xdd;" horiz-adv-x="372" 
d="M170 0h-75l62 283l-65 384h78l38 -307l174 307h84l-234 -384zM434 867l-132 -144h-48l111 144h69z" />
    <glyph glyph-name="Thorn" unicode="&#xde;" horiz-adv-x="387" 
d="M84 0h-75l147 667h75l-26 -121h49q59 0 95 -42t36 -109q0 -58 -20.5 -112t-69.5 -94.5t-119 -40.5h-59zM183 215q56 0 89 53t33 121q0 42 -18 66t-51 24h-46l-58 -264h51z" />
    <glyph glyph-name="germandbls" unicode="&#xdf;" horiz-adv-x="452" 
d="M413 140q0 -59 -41 -105.5t-105 -46.5q-86 0 -129 65l41 45q32 -54 82 -54q31 0 54.5 25t23.5 63q0 21 -12.5 40t-30.5 35t-35.5 33.5t-30 42.5t-12.5 55q0 35 14.5 62t36 43.5l42.5 31.5t35.5 34.5t14.5 43.5q0 29 -19 46t-53 17q-73 0 -95 -97l-114 -519h-68l114 519
q17 74 61.5 116t107.5 42q59 0 97.5 -32.5t38.5 -84.5q0 -34 -14.5 -60t-35.5 -42l-42.5 -31t-36 -34t-14.5 -43q0 -26 19.5 -50t43 -41.5t43 -49t19.5 -69.5z" />
    <glyph glyph-name="agrave" unicode="&#xe0;" horiz-adv-x="384" 
d="M210 495q30 0 54 -20.5t34 -60.5l15 69h68l-107 -483h-68l14 62q-44 -74 -101 -74q-46 0 -71 37t-25 106q0 48 12 107.5t34 118.5t59.5 98.5t81.5 39.5zM221 434q-39 0 -69.5 -58t-44 -124.5t-13.5 -115.5q0 -87 55 -87q23 0 47 23.5t39 56.5l50 224q-3 34 -21.5 57.5
t-42.5 23.5zM293 556h-46l-68 144h67z" />
    <glyph glyph-name="aacute" unicode="&#xe1;" horiz-adv-x="384" 
d="M210 495q30 0 54 -20.5t34 -60.5l15 69h68l-107 -483h-68l14 62q-44 -74 -101 -74q-46 0 -71 37t-25 106q0 48 12 107.5t34 118.5t59.5 98.5t81.5 39.5zM221 434q-39 0 -69.5 -58t-44 -124.5t-13.5 -115.5q0 -87 55 -87q23 0 47 23.5t39 56.5l50 224q-3 34 -21.5 57.5
t-42.5 23.5zM398 700l-132 -144h-48l111 144h69z" />
    <glyph glyph-name="acircumflex" unicode="&#xe2;" horiz-adv-x="384" 
d="M210 495q30 0 54 -20.5t34 -60.5l15 69h68l-107 -483h-68l14 62q-44 -74 -101 -74q-46 0 -71 37t-25 106q0 48 12 107.5t34 118.5t59.5 98.5t81.5 39.5zM221 434q-39 0 -69.5 -58t-44 -124.5t-13.5 -115.5q0 -87 55 -87q23 0 47 23.5t39 56.5l50 224q-3 34 -21.5 57.5
t-42.5 23.5zM357 556h-39l-38 105l-79 -105h-44l98 144h66z" />
    <glyph glyph-name="atilde" unicode="&#xe3;" horiz-adv-x="384" 
d="M210 495q30 0 54 -20.5t34 -60.5l15 69h68l-107 -483h-68l14 62q-44 -74 -101 -74q-46 0 -71 37t-25 106q0 48 12 107.5t34 118.5t59.5 98.5t81.5 39.5zM221 434q-39 0 -69.5 -58t-44 -124.5t-13.5 -115.5q0 -87 55 -87q23 0 47 23.5t39 56.5l50 224q-3 34 -21.5 57.5
t-42.5 23.5zM304 554q-21 0 -32 15t-13 32.5t-8 32.5t-18 15q-29 0 -48 -89h-40q31 134 95 134q21 0 32 -15t13 -32.5t8 -32.5t18 -15q28 0 48 89h40q-29 -134 -95 -134z" />
    <glyph glyph-name="adieresis" unicode="&#xe4;" horiz-adv-x="384" 
d="M210 495q30 0 54 -20.5t34 -60.5l15 69h68l-107 -483h-68l14 62q-44 -74 -101 -74q-46 0 -71 37t-25 106q0 48 12 107.5t34 118.5t59.5 98.5t81.5 39.5zM221 434q-39 0 -69.5 -58t-44 -124.5t-13.5 -115.5q0 -87 55 -87q23 0 47 23.5t39 56.5l50 224q-3 34 -21.5 57.5
t-42.5 23.5zM381 608q0 -19 -14.5 -33.5t-34.5 -14.5q-16 0 -27 11t-11 28q0 19 14.5 33t34.5 14q16 0 27 -11t11 -27zM241 608q0 -19 -14.5 -33.5t-34.5 -14.5q-17 0 -28 11t-11 28q0 19 14.5 33t34.5 14q17 0 28 -11t11 -27z" />
    <glyph glyph-name="aring" unicode="&#xe5;" horiz-adv-x="384" 
d="M210 495q30 0 54 -20.5t34 -60.5l15 69h68l-107 -483h-68l14 62q-44 -74 -101 -74q-46 0 -71 37t-25 106q0 48 12 107.5t34 118.5t59.5 98.5t81.5 39.5zM221 434q-39 0 -69.5 -58t-44 -124.5t-13.5 -115.5q0 -87 55 -87q23 0 47 23.5t39 56.5l50 224q-3 34 -21.5 57.5
t-42.5 23.5zM263 538q-33 0 -53.5 21.5t-20.5 54.5q0 37 27.5 64.5t64.5 27.5q32 0 53 -21.5t21 -54.5q0 -37 -27.5 -64.5t-64.5 -27.5zM265 574q22 0 38 15.5t16 37.5q0 18 -11.5 30.5t-28.5 12.5q-22 0 -38 -15.5t-16 -37.5q0 -18 11 -30.5t29 -12.5z" />
    <glyph glyph-name="ae" unicode="&#xe6;" horiz-adv-x="597" 
d="M221 434q-39 0 -69.5 -58t-44 -124.5t-13.5 -115.5q0 -87 55 -87q23 0 47 23.5t39 56.5l50 224q-3 34 -21.5 57.5t-42.5 23.5zM296 97l-22 -97h-68l14 62q-44 -74 -101 -74q-46 0 -71 37t-25 106q0 48 12 107.5t34 118.5t59.5 98.5t81.5 39.5q30 0 54 -20.5t34 -60.5
l15 69h68l-15 -67q45 79 108 79q102 -2 102 -145q0 -61 -18 -131h-234q-7 -28 -7 -68q0 -47 21 -76t63 -29q43 0 85 54l30 -47q-53 -65 -114 -65q-93 0 -106 109zM334 270h168q10 43 10 75q0 41 -15 67t-45 26q-45 0 -76 -52.5t-42 -115.5z" />
    <glyph glyph-name="ccedilla" unicode="&#xe7;" horiz-adv-x="317" 
d="M110 -191q-51 0 -82 37l24 33q23 -32 59 -32q22 0 36 15t14 35q0 27 -25 27q-16 0 -28 -14l-27 17l39 66q-95 23 -95 161q0 52 14 109.5t39 110t67 87t91 34.5q66 0 100 -49l-38 -50q-20 38 -60 38q-44 0 -77.5 -51t-48.5 -113t-15 -115q0 -106 73 -106q34 0 62 31
l19 -53q-42 -38 -92 -39l-27 -44q10 10 24 10q22 0 35 -15.5t13 -39.5q0 -37 -27.5 -63.5t-66.5 -26.5z" />
    <glyph glyph-name="egrave" unicode="&#xe8;" horiz-adv-x="373" 
d="M164 -12q-66 0 -103 42t-37 124q0 40 11.5 94.5t34.5 111.5t65 96t94 39q123 0 123 -149q0 -55 -18 -127h-236q-8 -32 -8 -68q0 -48 20.5 -77t62.5 -29q45 0 87 54l31 -43q-56 -68 -127 -68zM108 270h170q10 43 10 75q0 40 -16.5 66.5t-47.5 26.5q-45 0 -75 -52t-41 -116
zM301 556h-46l-68 144h67z" />
    <glyph glyph-name="eacute" unicode="&#xe9;" horiz-adv-x="373" 
d="M406 700l-132 -144h-48l111 144h69zM164 -12q-66 0 -103 42t-37 124q0 40 11.5 94.5t34.5 111.5t65 96t94 39q123 0 123 -149q0 -55 -18 -127h-236q-8 -32 -8 -68q0 -48 20.5 -77t62.5 -29q45 0 87 54l31 -43q-56 -68 -127 -68zM108 270h170q10 43 10 75q0 40 -16.5 66.5
t-47.5 26.5q-45 0 -75 -52t-41 -116z" />
    <glyph glyph-name="ecircumflex" unicode="&#xea;" horiz-adv-x="373" 
d="M364 556h-39l-38 105l-79 -105h-44l98 144h66zM164 -12q-66 0 -103 42t-37 124q0 40 11.5 94.5t34.5 111.5t65 96t94 39q123 0 123 -149q0 -55 -18 -127h-236q-8 -32 -8 -68q0 -48 20.5 -77t62.5 -29q45 0 87 54l31 -43q-56 -68 -127 -68zM108 270h170q10 43 10 75
q0 40 -16.5 66.5t-47.5 26.5q-45 0 -75 -52t-41 -116z" />
    <glyph glyph-name="edieresis" unicode="&#xeb;" horiz-adv-x="373" 
d="M388 608q0 -19 -14.5 -33.5t-34.5 -14.5q-16 0 -27 11t-11 28q0 19 14.5 33t34.5 14q16 0 27 -11t11 -27zM248 608q0 -19 -14.5 -33.5t-34.5 -14.5q-17 0 -28 11t-11 28q0 19 14.5 33t34.5 14q17 0 28 -11t11 -27zM164 -12q-66 0 -103 42t-37 124q0 40 11.5 94.5
t34.5 111.5t65 96t94 39q123 0 123 -149q0 -55 -18 -127h-236q-8 -32 -8 -68q0 -48 20.5 -77t62.5 -29q45 0 87 54l31 -43q-56 -68 -127 -68zM108 270h170q10 43 10 75q0 40 -16.5 66.5t-47.5 26.5q-45 0 -75 -52t-41 -116z" />
    <glyph glyph-name="igrave" unicode="&#xec;" horiz-adv-x="180" 
d="M70 0h-68l107 483h68zM195 556h-46l-68 144h67z" />
    <glyph glyph-name="iacute" unicode="&#xed;" horiz-adv-x="180" 
d="M300 700l-132 -144h-48l111 144h69zM70 0h-68l107 483h68z" />
    <glyph glyph-name="icircumflex" unicode="&#xee;" horiz-adv-x="180" 
d="M260 556h-39l-38 105l-79 -105h-44l98 144h66zM70 0h-68l107 483h68z" />
    <glyph glyph-name="idieresis" unicode="&#xef;" horiz-adv-x="180" 
d="M283 608q0 -19 -14.5 -33.5t-34.5 -14.5q-16 0 -27 11t-11 28q0 19 14.5 33t34.5 14q16 0 27 -11t11 -27zM143 608q0 -19 -14.5 -33.5t-34.5 -14.5q-17 0 -28 11t-11 28q0 19 14.5 33t34.5 14q17 0 28 -11t11 -27zM70 0h-68l107 483h68z" />
    <glyph glyph-name="eth" unicode="&#xf0;" horiz-adv-x="382" 
d="M178 516l-9 39l108 32q-11 48 -23 80l69 22q18 -59 23 -81l73 22l9 -38l-74 -23q12 -64 12 -153q0 -65 -12 -135.5t-35.5 -138t-66.5 -111t-98 -43.5q-130 0 -130 160q0 68 21.5 143t67 132.5t102.5 57.5q31 0 53.5 -19t29.5 -53q-2 73 -14 139zM155 49q39 0 70 54
t45 116.5t14 109.5q0 36 -15 64t-46 28q-30 0 -55.5 -32t-40.5 -77.5t-23.5 -90.5t-8.5 -76q0 -96 60 -96z" />
    <glyph glyph-name="ntilde" unicode="&#xf1;" 
d="M268 0h-68l82 371q3 18 3 24q0 39 -38 39q-25 0 -52.5 -24t-47.5 -58l-77 -352h-68l107 483h68l-14 -64q54 76 117 76q37 0 57.5 -19.5t20.5 -54.5q0 -19 -4 -31zM306 554q-21 0 -32 15t-13 32.5t-8 32.5t-18 15q-29 0 -48 -89h-40q31 134 95 134q21 0 32 -15t13 -32.5
t8 -32.5t18 -15q28 0 48 89h40q-29 -134 -95 -134z" />
    <glyph glyph-name="ograve" unicode="&#xf2;" horiz-adv-x="382" 
d="M150 -12q-60 0 -93 39.5t-33 117.5q0 74 22 152t71.5 138t113.5 60q60 0 92.5 -39t32.5 -118q0 -74 -22 -152t-71 -138t-113 -60zM154 49q39 0 71 54.5t46.5 119.5t14.5 115q0 96 -59 96q-39 0 -71.5 -55t-47 -120t-14.5 -115q0 -95 60 -95zM297 556h-46l-68 144h67z" />
    <glyph glyph-name="oacute" unicode="&#xf3;" horiz-adv-x="382" 
d="M402 700l-132 -144h-48l111 144h69zM150 -12q-60 0 -93 39.5t-33 117.5q0 74 22 152t71.5 138t113.5 60q60 0 92.5 -39t32.5 -118q0 -74 -22 -152t-71 -138t-113 -60zM154 49q39 0 71 54.5t46.5 119.5t14.5 115q0 96 -59 96q-39 0 -71.5 -55t-47 -120t-14.5 -115
q0 -95 60 -95z" />
    <glyph glyph-name="ocircumflex" unicode="&#xf4;" horiz-adv-x="382" 
d="M361 556h-39l-38 105l-79 -105h-44l98 144h66zM150 -12q-60 0 -93 39.5t-33 117.5q0 74 22 152t71.5 138t113.5 60q60 0 92.5 -39t32.5 -118q0 -74 -22 -152t-71 -138t-113 -60zM154 49q39 0 71 54.5t46.5 119.5t14.5 115q0 96 -59 96q-39 0 -71.5 -55t-47 -120
t-14.5 -115q0 -95 60 -95z" />
    <glyph glyph-name="otilde" unicode="&#xf5;" horiz-adv-x="382" 
d="M150 -12q-60 0 -93 39.5t-33 117.5q0 74 22 152t71.5 138t113.5 60q60 0 92.5 -39t32.5 -118q0 -74 -22 -152t-71 -138t-113 -60zM154 49q39 0 71 54.5t46.5 119.5t14.5 115q0 96 -59 96q-39 0 -71.5 -55t-47 -120t-14.5 -115q0 -95 60 -95zM308 554q-21 0 -32 15
t-13 32.5t-8 32.5t-18 15q-29 0 -48 -89h-40q31 134 95 134q21 0 32 -15t13 -32.5t8 -32.5t18 -15q28 0 48 89h40q-29 -134 -95 -134z" />
    <glyph glyph-name="odieresis" unicode="&#xf6;" horiz-adv-x="382" 
d="M385 608q0 -19 -14.5 -33.5t-34.5 -14.5q-16 0 -27 11t-11 28q0 19 14.5 33t34.5 14q16 0 27 -11t11 -27zM245 608q0 -19 -14.5 -33.5t-34.5 -14.5q-17 0 -28 11t-11 28q0 19 14.5 33t34.5 14q17 0 28 -11t11 -27zM150 -12q-60 0 -93 39.5t-33 117.5q0 74 22 152
t71.5 138t113.5 60q60 0 92.5 -39t32.5 -118q0 -74 -22 -152t-71 -138t-113 -60zM154 49q39 0 71 54.5t46.5 119.5t14.5 115q0 96 -59 96q-39 0 -71.5 -55t-47 -120t-14.5 -115q0 -95 60 -95z" />
    <glyph glyph-name="divide" unicode="&#xf7;" horiz-adv-x="374" 
d="M360 312h-316l11 50h316zM172 149q-17 0 -28.5 11.5t-11.5 28.5q0 19 14 33t34 14q16 0 28 -12t12 -28q0 -20 -14 -33.5t-34 -13.5zM236 435q-17 0 -28.5 11.5t-11.5 28.5q0 19 14 33t34 14q17 0 28.5 -11.5t11.5 -28.5q0 -20 -14 -33.5t-34 -13.5z" />
    <glyph glyph-name="oslash" unicode="&#xf8;" horiz-adv-x="382" 
d="M38 0h-47l46 63q-13 32 -13 82q0 74 22 152t71.5 138t113.5 60q61 0 92 -39l20 27h47l-47 -64q13 -36 13 -81q0 -74 -22 -152t-71 -138t-113 -60q-60 0 -93 39zM94 144v-3l185 254q-13 39 -52 39t-71.5 -55t-47 -120t-14.5 -115zM154 49q39 0 71 54.5t46.5 119.5
t14.5 115v2l-185 -253q14 -38 53 -38z" />
    <glyph glyph-name="ugrave" unicode="&#xf9;" 
d="M109 483h68l-82 -371q-3 -14 -3 -24q0 -39 38 -39q25 0 51 22t46 55l80 357h68l-107 -483h-68l14 64q-54 -76 -117 -76q-37 0 -57.5 19.5t-20.5 54.5q0 19 4 31zM296 556h-46l-68 144h67z" />
    <glyph glyph-name="uacute" unicode="&#xfa;" 
d="M400 700l-132 -144h-48l111 144h69zM109 483h68l-82 -371q-3 -14 -3 -24q0 -39 38 -39q25 0 51 22t46 55l80 357h68l-107 -483h-68l14 64q-54 -76 -117 -76q-37 0 -57.5 19.5t-20.5 54.5q0 19 4 31z" />
    <glyph glyph-name="ucircumflex" unicode="&#xfb;" 
d="M359 556h-39l-38 105l-79 -105h-44l98 144h66zM109 483h68l-82 -371q-3 -14 -3 -24q0 -39 38 -39q25 0 51 22t46 55l80 357h68l-107 -483h-68l14 64q-54 -76 -117 -76q-37 0 -57.5 19.5t-20.5 54.5q0 19 4 31z" />
    <glyph glyph-name="udieresis" unicode="&#xfc;" 
d="M383 608q0 -19 -14.5 -33.5t-34.5 -14.5q-16 0 -27 11t-11 28q0 19 14.5 33t34.5 14q16 0 27 -11t11 -27zM243 608q0 -19 -14.5 -33.5t-34.5 -14.5q-17 0 -28 11t-11 28q0 19 14.5 33t34.5 14q17 0 28 -11t11 -27zM109 483h68l-82 -371q-3 -14 -3 -24q0 -39 38 -39
q25 0 51 22t46 55l80 357h68l-107 -483h-68l14 64q-54 -76 -117 -76q-37 0 -57.5 19.5t-20.5 54.5q0 19 4 31z" />
    <glyph glyph-name="yacute" unicode="&#xfd;" horiz-adv-x="326" 
d="M-61 -186l23 57q6 -6 23 -6q15 0 25.5 10t22.5 35l37 77l-8 496h71l-8 -396l170 396h74l-274 -589q-25 -51 -49 -70.5t-58 -19.5q-29 0 -49 10zM370 700l-132 -144h-48l111 144h69z" />
    <glyph glyph-name="thorn" unicode="&#xfe;" horiz-adv-x="384" 
d="M173 -12q-66 0 -88 81l-56 -253h-67l187 851h68l-54 -246q44 74 101 74q46 0 71 -37.5t25 -105.5q0 -48 -12 -107.5t-33.5 -118.5t-59 -98.5t-82.5 -39.5zM162 49q39 0 69.5 58t44 124.5t13.5 115.5q0 87 -55 87q-23 0 -47 -23.5t-39 -56.5l-50 -224q3 -34 21.5 -57.5
t42.5 -23.5z" />
    <glyph glyph-name="ydieresis" unicode="&#xff;" horiz-adv-x="326" 
d="M-61 -186l23 57q6 -6 23 -6q15 0 25.5 10t22.5 35l37 77l-8 496h71l-8 -396l170 396h74l-274 -589q-25 -51 -49 -70.5t-58 -19.5q-29 0 -49 10zM353 608q0 -19 -14.5 -33.5t-34.5 -14.5q-16 0 -27 11t-11 28q0 19 14.5 33t34.5 14q16 0 27 -11t11 -27zM213 608
q0 -19 -14.5 -33.5t-34.5 -14.5q-17 0 -28 11t-11 28q0 19 14.5 33t34.5 14q17 0 28 -11t11 -27z" />
    <glyph glyph-name="Amacron" unicode="&#x100;" horiz-adv-x="364" 
d="M303 0h-75l7 153h-143l-60 -153h-79l278 667h87zM240 220l17 357l-141 -357h124zM416 740h-247l9 45h248z" />
    <glyph glyph-name="amacron" unicode="&#x101;" horiz-adv-x="384" 
d="M210 495q30 0 54 -20.5t34 -60.5l15 69h68l-107 -483h-68l14 62q-44 -74 -101 -74q-46 0 -71 37t-25 106q0 48 12 107.5t34 118.5t59.5 98.5t81.5 39.5zM221 434q-39 0 -69.5 -58t-44 -124.5t-13.5 -115.5q0 -87 55 -87q23 0 47 23.5t39 56.5l50 224q-3 34 -21.5 57.5
t-42.5 23.5zM384 573h-247l9 45h248z" />
    <glyph glyph-name="Abreve" unicode="&#x102;" horiz-adv-x="364" 
d="M303 0h-75l7 153h-143l-60 -153h-79l278 667h87zM240 220l17 357l-141 -357h124zM415 780q-58 -61 -132 -61q-75 0 -106 61l39 28q9 -20 29.5 -32t44.5 -12q55 0 92 44z" />
    <glyph glyph-name="abreve" unicode="&#x103;" horiz-adv-x="384" 
d="M210 495q30 0 54 -20.5t34 -60.5l15 69h68l-107 -483h-68l14 62q-44 -74 -101 -74q-46 0 -71 37t-25 106q0 48 12 107.5t34 118.5t59.5 98.5t81.5 39.5zM221 434q-39 0 -69.5 -58t-44 -124.5t-13.5 -115.5q0 -87 55 -87q23 0 47 23.5t39 56.5l50 224q-3 34 -21.5 57.5
t-42.5 23.5zM385 613q-58 -61 -132 -61q-75 0 -106 61l39 28q9 -20 29.5 -32t44.5 -12q55 0 92 44z" />
    <glyph glyph-name="Aogonek" unicode="&#x104;" horiz-adv-x="364" 
d="M272 -116l31 -22q-26 -48 -72 -48q-28 0 -45 15t-17 43q0 69 74 128h-15l7 153h-143l-60 -153h-79l278 667h87l-15 -667q-93 -56 -93 -123q0 -26 26 -26t36 33zM240 220l17 357l-141 -357h124z" />
    <glyph glyph-name="aogonek" unicode="&#x105;" horiz-adv-x="384" 
d="M243 -116l31 -22q-26 -48 -72 -48q-28 0 -45 15t-17 43q0 69 74 128h-8l14 62q-44 -74 -101 -74q-46 0 -71 37t-25 106q0 48 12 107.5t34 118.5t59.5 98.5t81.5 39.5q30 0 54 -20.5t34 -60.5l15 69h68l-107 -483q-93 -56 -93 -123q0 -26 26 -26t36 33zM221 434
q-39 0 -69.5 -58t-44 -124.5t-13.5 -115.5q0 -87 55 -87q23 0 47 23.5t39 56.5l50 224q-3 34 -21.5 57.5t-42.5 23.5z" />
    <glyph glyph-name="Cacute" unicode="&#x106;" horiz-adv-x="390" 
d="M464 872l-132 -144h-48l111 144h69zM175 -12q-65 0 -100.5 48t-35.5 141q0 61 15 141t44 163.5t81 140t117 56.5q62 0 93 -42.5t37 -111.5l-71 -14q-8 100 -65 100q-40 0 -74.5 -51.5t-55 -124.5t-32 -143.5t-11.5 -116.5q0 -63 15.5 -90.5t47.5 -27.5q47 0 94 85l60 -28
q-66 -125 -159 -125z" />
    <glyph glyph-name="cacute" unicode="&#x107;" horiz-adv-x="317" 
d="M408 700l-132 -144h-48l111 144h69zM158 -12q-63 0 -98 41.5t-35 124.5q0 52 14 109.5t39 110t67 87t91 34.5q66 0 100 -49l-38 -50q-20 38 -60 38q-44 0 -77.5 -51t-48.5 -113t-15 -115q0 -106 73 -106q34 0 62 31l19 -53q-42 -39 -93 -39z" />
    <glyph glyph-name="Ccircumflex" unicode="&#x108;" horiz-adv-x="390" 
d="M423 723h-39l-38 105l-79 -105h-44l98 144h66zM175 -12q-65 0 -100.5 48t-35.5 141q0 61 15 141t44 163.5t81 140t117 56.5q62 0 93 -42.5t37 -111.5l-71 -14q-8 100 -65 100q-40 0 -74.5 -51.5t-55 -124.5t-32 -143.5t-11.5 -116.5q0 -63 15.5 -90.5t47.5 -27.5
q47 0 94 85l60 -28q-66 -125 -159 -125z" />
    <glyph glyph-name="ccircumflex" unicode="&#x109;" horiz-adv-x="317" 
d="M367 556h-39l-38 105l-79 -105h-44l98 144h66zM158 -12q-63 0 -98 41.5t-35 124.5q0 52 14 109.5t39 110t67 87t91 34.5q66 0 100 -49l-38 -50q-20 38 -60 38q-44 0 -77.5 -51t-48.5 -113t-15 -115q0 -106 73 -106q34 0 62 31l19 -53q-42 -39 -93 -39z" />
    <glyph glyph-name="Cdotaccent" unicode="&#x10a;" horiz-adv-x="390" 
d="M175 -12q-65 0 -100.5 48t-35.5 141q0 61 15 141t44 163.5t81 140t117 56.5q62 0 93 -42.5t37 -111.5l-71 -14q-8 100 -65 100q-40 0 -74.5 -51.5t-55 -124.5t-32 -143.5t-11.5 -116.5q0 -63 15.5 -90.5t47.5 -27.5q47 0 94 85l60 -28q-66 -125 -159 -125zM376 773
q0 -20 -15 -34.5t-35 -14.5q-17 0 -28.5 11.5t-11.5 28.5q0 20 15 34.5t35 14.5q17 0 28.5 -11.5t11.5 -28.5z" />
    <glyph glyph-name="cdotaccent" unicode="&#x10b;" horiz-adv-x="317" 
d="M158 -12q-63 0 -98 41.5t-35 124.5q0 52 14 109.5t39 110t67 87t91 34.5q66 0 100 -49l-38 -50q-20 38 -60 38q-44 0 -77.5 -51t-48.5 -113t-15 -115q0 -106 73 -106q34 0 62 31l19 -53q-42 -39 -93 -39zM322 606q0 -20 -15 -34.5t-35 -14.5q-17 0 -28.5 11.5t-11.5 28.5
q0 20 15 34.5t35 14.5q17 0 28.5 -11.5t11.5 -28.5z" />
    <glyph glyph-name="Ccaron" unicode="&#x10c;" horiz-adv-x="390" 
d="M359 723h-66l-37 144h40l36 -105l81 105h43zM175 -12q-65 0 -100.5 48t-35.5 141q0 61 15 141t44 163.5t81 140t117 56.5q62 0 93 -42.5t37 -111.5l-71 -14q-8 100 -65 100q-40 0 -74.5 -51.5t-55 -124.5t-32 -143.5t-11.5 -116.5q0 -63 15.5 -90.5t47.5 -27.5
q47 0 94 85l60 -28q-66 -125 -159 -125z" />
    <glyph glyph-name="ccaron" unicode="&#x10d;" horiz-adv-x="317" 
d="M301 556h-66l-37 144h40l36 -105l81 105h43zM158 -12q-63 0 -98 41.5t-35 124.5q0 52 14 109.5t39 110t67 87t91 34.5q66 0 100 -49l-38 -50q-20 38 -60 38q-44 0 -77.5 -51t-48.5 -113t-15 -115q0 -106 73 -106q34 0 62 31l19 -53q-42 -39 -93 -39z" />
    <glyph glyph-name="Dcaron" unicode="&#x10e;" horiz-adv-x="427" 
d="M363 723h-66l-37 144h40l36 -105l81 105h43zM137 0h-128l147 667h124q58 0 99 -50t41 -150q0 -37 -7.5 -89.5t-27.5 -120.5t-50 -123.5t-82 -94.5t-116 -39zM99 67h50q50 0 90 50t61 120.5t31.5 131t10.5 97.5q0 68 -21.5 101t-54.5 33h-49z" />
    <glyph glyph-name="dcaron" unicode="&#x10f;" horiz-adv-x="466" 
d="M552 631q0 -41 -29.5 -81t-70.5 -62l-25 27q26 14 47 35.5t28 43.5q-2 -1 -7 -1q-14 0 -24 10.5t-10 26.5q0 20 14.5 34.5t33.5 14.5t31 -12.5t12 -35.5zM210 495q30 0 54 -20.5t34 -60.5l56 253h68l-148 -667h-68l14 62q-44 -74 -101 -74q-46 0 -71 37t-25 106
q0 48 12 107.5t34 118.5t59.5 98.5t81.5 39.5zM221 434q-39 0 -69.5 -58t-44 -124.5t-13.5 -115.5q0 -87 55 -87q23 0 47 23.5t39 56.5l50 224q-3 34 -21.5 57.5t-42.5 23.5z" />
    <glyph glyph-name="Dcroat" unicode="&#x110;" horiz-adv-x="446" 
d="M156 0h-128l66 302h-60l14 63h60l67 302h124q58 0 99 -50t41 -150q0 -37 -7.5 -89.5t-27.5 -120.5t-50 -123.5t-82 -94.5t-116 -39zM254 302h-84l-52 -235h50q50 0 90 50t61 120.5t31.5 131t10.5 97.5q0 68 -21.5 101t-54.5 33h-49l-52 -235h84z" />
    <glyph glyph-name="dcroat" unicode="&#x111;" horiz-adv-x="390" 
d="M210 495q30 0 54 -20.5t34 -60.5l27 122h-124l8 45h126l19 86h68l-19 -86h40l-10 -45h-40l-119 -536h-68l14 62q-44 -74 -101 -74q-46 0 -71 37t-25 106q0 48 12 107.5t34 118.5t59.5 98.5t81.5 39.5zM221 434q-39 0 -69.5 -58t-44 -124.5t-13.5 -115.5q0 -87 55 -87
q23 0 47 23.5t39 56.5l50 224q-3 34 -21.5 57.5t-42.5 23.5z" />
    <glyph glyph-name="Emacron" unicode="&#x112;" horiz-adv-x="352" 
d="M257 0h-248l147 667h248l-15 -67h-172l-50 -225h165l-15 -67h-165l-53 -241h172zM419 740h-247l9 45h248z" />
    <glyph glyph-name="emacron" unicode="&#x113;" horiz-adv-x="373" 
d="M164 -12q-66 0 -103 42t-37 124q0 40 11.5 94.5t34.5 111.5t65 96t94 39q123 0 123 -149q0 -55 -18 -127h-236q-8 -32 -8 -68q0 -48 20.5 -77t62.5 -29q45 0 87 54l31 -43q-56 -68 -127 -68zM108 270h170q10 43 10 75q0 40 -16.5 66.5t-47.5 26.5q-45 0 -75 -52t-41 -116
zM393 573h-247l9 45h248z" />
    <glyph glyph-name="Ebreve" unicode="&#x114;" horiz-adv-x="352" 
d="M257 0h-248l147 667h248l-15 -67h-172l-50 -225h165l-15 -67h-165l-53 -241h172zM420 780q-58 -61 -132 -61q-75 0 -106 61l39 28q9 -20 29.5 -32t44.5 -12q55 0 92 44z" />
    <glyph glyph-name="ebreve" unicode="&#x115;" horiz-adv-x="373" 
d="M164 -12q-66 0 -103 42t-37 124q0 40 11.5 94.5t34.5 111.5t65 96t94 39q123 0 123 -149q0 -55 -18 -127h-236q-8 -32 -8 -68q0 -48 20.5 -77t62.5 -29q45 0 87 54l31 -43q-56 -68 -127 -68zM108 270h170q10 43 10 75q0 40 -16.5 66.5t-47.5 26.5q-45 0 -75 -52t-41 -116
zM393 613q-58 -61 -132 -61q-75 0 -106 61l39 28q9 -20 29.5 -32t44.5 -12q55 0 92 44z" />
    <glyph glyph-name="Edotaccent" unicode="&#x116;" horiz-adv-x="352" 
d="M257 0h-248l147 667h248l-15 -67h-172l-50 -225h165l-15 -67h-165l-53 -241h172zM347 775q0 -20 -15 -34.5t-35 -14.5q-17 0 -28.5 11.5t-11.5 28.5q0 20 15 34.5t35 14.5q17 0 28.5 -11.5t11.5 -28.5z" />
    <glyph glyph-name="edotaccent" unicode="&#x117;" horiz-adv-x="373" 
d="M164 -12q-66 0 -103 42t-37 124q0 40 11.5 94.5t34.5 111.5t65 96t94 39q123 0 123 -149q0 -55 -18 -127h-236q-8 -32 -8 -68q0 -48 20.5 -77t62.5 -29q45 0 87 54l31 -43q-56 -68 -127 -68zM108 270h170q10 43 10 75q0 40 -16.5 66.5t-47.5 26.5q-45 0 -75 -52t-41 -116
zM320 606q0 -20 -15 -34.5t-35 -14.5q-17 0 -28.5 11.5t-11.5 28.5q0 20 15 34.5t35 14.5q17 0 28.5 -11.5t11.5 -28.5z" />
    <glyph glyph-name="Eogonek" unicode="&#x118;" horiz-adv-x="352" 
d="M257 0q-93 -56 -93 -123q0 -26 26 -26t36 33l31 -22q-26 -48 -72 -48q-28 0 -45 15t-17 43q0 69 74 128h-188l147 667h248l-15 -67h-172l-50 -225h165l-15 -67h-165l-53 -241h172z" />
    <glyph glyph-name="eogonek" unicode="&#x119;" horiz-adv-x="373" 
d="M189 -116l31 -22q-26 -48 -72 -48q-28 0 -45 15t-17 43q0 64 61 117q-58 5 -90.5 47t-32.5 118q0 40 11.5 94.5t34.5 111.5t65 96t94 39q123 0 123 -149q0 -55 -18 -127h-236q-8 -32 -8 -68q0 -48 20.5 -77t62.5 -29q45 0 87 54l31 -43q-33 -39 -71 -56q-93 -56 -93 -123
q0 -26 26 -26t36 33zM108 270h170q10 43 10 75q0 40 -16.5 66.5t-47.5 26.5q-45 0 -75 -52t-41 -116z" />
    <glyph glyph-name="Ecaron" unicode="&#x11a;" horiz-adv-x="352" 
d="M327 723h-66l-37 144h40l36 -105l81 105h43zM257 0h-248l147 667h248l-15 -67h-172l-50 -225h165l-15 -67h-165l-53 -241h172z" />
    <glyph glyph-name="ecaron" unicode="&#x11b;" horiz-adv-x="373" 
d="M300 556h-66l-37 144h40l36 -105l81 105h43zM164 -12q-66 0 -103 42t-37 124q0 40 11.5 94.5t34.5 111.5t65 96t94 39q123 0 123 -149q0 -55 -18 -127h-236q-8 -32 -8 -68q0 -48 20.5 -77t62.5 -29q45 0 87 54l31 -43q-56 -68 -127 -68zM108 270h170q10 43 10 75
q0 40 -16.5 66.5t-47.5 26.5q-45 0 -75 -52t-41 -116z" />
    <glyph glyph-name="Gcircumflex" unicode="&#x11c;" horiz-adv-x="411" 
d="M423 723h-39l-38 105l-79 -105h-44l98 144h66zM175 -12q-65 0 -100.5 47.5t-35.5 141.5q0 65 16 146.5t45.5 163t81 136.5t114.5 55t93.5 -42.5t33.5 -104.5l-66 -15q-7 94 -67 94q-39 0 -73 -50t-55 -121t-33 -142.5t-12 -122.5q0 -64 15.5 -91t47.5 -27q38 0 80 56
l34 161h-89l15 67h158l-56 -255q-64 -97 -147 -97z" />
    <glyph glyph-name="gcircumflex" unicode="&#x11d;" horiz-adv-x="384" 
d="M352 550h-39l-38 105l-79 -105h-44l98 144h66zM99 -196q-87 0 -132 56l41 54q30 -49 91 -49q76 0 102 116l22 89q-43 -74 -102 -74q-45 0 -71.5 34.5t-26.5 104.5q0 47 11.5 105.5t32.5 117t59 98t85 39.5q28 0 54.5 -22t33.5 -59l15 69h67l-110 -495q-22 -99 -65 -141.5
t-107 -42.5zM150 56q24 0 47.5 23.5t38.5 57.5l49 216q-3 31 -21.5 56t-43.5 25q-29 0 -54 -32t-40 -79t-23.5 -95t-8.5 -84q0 -88 56 -88z" />
    <glyph glyph-name="Gbreve" unicode="&#x11e;" horiz-adv-x="411" 
d="M175 -12q-65 0 -100.5 47.5t-35.5 141.5q0 65 16 146.5t45.5 163t81 136.5t114.5 55t93.5 -42.5t33.5 -104.5l-66 -15q-7 94 -67 94q-39 0 -73 -50t-55 -121t-33 -142.5t-12 -122.5q0 -64 15.5 -91t47.5 -27q38 0 80 56l34 161h-89l15 67h158l-56 -255q-64 -97 -147 -97z
M450 780q-58 -61 -132 -61q-75 0 -106 61l39 28q9 -20 29.5 -32t44.5 -12q55 0 92 44z" />
    <glyph glyph-name="gbreve" unicode="&#x11f;" horiz-adv-x="384" 
d="M99 -196q-87 0 -132 56l41 54q30 -49 91 -49q76 0 102 116l22 89q-43 -74 -102 -74q-45 0 -71.5 34.5t-26.5 104.5q0 47 11.5 105.5t32.5 117t59 98t85 39.5q28 0 54.5 -22t33.5 -59l15 69h67l-110 -495q-22 -99 -65 -141.5t-107 -42.5zM150 56q24 0 47.5 23.5t38.5 57.5
l49 216q-3 31 -21.5 56t-43.5 25q-29 0 -54 -32t-40 -79t-23.5 -95t-8.5 -84q0 -88 56 -88zM383 613q-58 -61 -132 -61q-75 0 -106 61l39 28q9 -20 29.5 -32t44.5 -12q55 0 92 44z" />
    <glyph glyph-name="Gdotaccent" unicode="&#x120;" horiz-adv-x="411" 
d="M175 -12q-65 0 -100.5 47.5t-35.5 141.5q0 65 16 146.5t45.5 163t81 136.5t114.5 55t93.5 -42.5t33.5 -104.5l-66 -15q-7 94 -67 94q-39 0 -73 -50t-55 -121t-33 -142.5t-12 -122.5q0 -64 15.5 -91t47.5 -27q38 0 80 56l34 161h-89l15 67h158l-56 -255q-64 -97 -147 -97z
M376 773q0 -20 -15 -34.5t-35 -14.5q-17 0 -28.5 11.5t-11.5 28.5q0 20 15 34.5t35 14.5q17 0 28.5 -11.5t11.5 -28.5z" />
    <glyph glyph-name="gdotaccent" unicode="&#x121;" horiz-adv-x="384" 
d="M99 -196q-87 0 -132 56l41 54q30 -49 91 -49q76 0 102 116l22 89q-43 -74 -102 -74q-45 0 -71.5 34.5t-26.5 104.5q0 47 11.5 105.5t32.5 117t59 98t85 39.5q28 0 54.5 -22t33.5 -59l15 69h67l-110 -495q-22 -99 -65 -141.5t-107 -42.5zM150 56q24 0 47.5 23.5t38.5 57.5
l49 216q-3 31 -21.5 56t-43.5 25q-29 0 -54 -32t-40 -79t-23.5 -95t-8.5 -84q0 -88 56 -88zM310 606q0 -20 -15 -34.5t-35 -14.5q-17 0 -28.5 11.5t-11.5 28.5q0 20 15 34.5t35 14.5q17 0 28.5 -11.5t11.5 -28.5z" />
    <glyph glyph-name="Gcommaaccent" unicode="&#x122;" horiz-adv-x="411" 
d="M179 -121q0 -41 -29.5 -81t-70.5 -62l-25 27q26 14 47 35.5t28 43.5q-2 -1 -7 -1q-14 0 -24 10.5t-10 26.5q0 20 14.5 34.5t33.5 14.5t31 -12.5t12 -35.5zM175 -12q-65 0 -100.5 47.5t-35.5 141.5q0 65 16 146.5t45.5 163t81 136.5t114.5 55t93.5 -42.5t33.5 -104.5
l-66 -15q-7 94 -67 94q-39 0 -73 -50t-55 -121t-33 -142.5t-12 -122.5q0 -64 15.5 -91t47.5 -27q38 0 80 56l34 161h-89l15 67h158l-56 -255q-64 -97 -147 -97z" />
    <glyph glyph-name="gcommaaccent" unicode="&#x123;" horiz-adv-x="384" 
d="M220 606q0 40 30 81t71 62l24 -27q-26 -13 -47 -35t-28 -43h7q14 0 24.5 -11t10.5 -27q0 -20 -14.5 -34.5t-34.5 -14.5q-19 0 -31 13t-12 36zM99 -196q-87 0 -132 56l41 54q30 -49 91 -49q76 0 102 116l22 89q-43 -74 -102 -74q-45 0 -71.5 34.5t-26.5 104.5
q0 47 11.5 105.5t32.5 117t59 98t85 39.5q28 0 54.5 -22t33.5 -59l15 69h67l-110 -495q-22 -99 -65 -141.5t-107 -42.5zM150 56q24 0 47.5 23.5t38.5 57.5l49 216q-3 31 -21.5 56t-43.5 25q-29 0 -54 -32t-40 -79t-23.5 -95t-8.5 -84q0 -88 56 -88z" />
    <glyph glyph-name="Hcircumflex" unicode="&#x124;" horiz-adv-x="436" 
d="M424 723h-39l-38 105l-79 -105h-44l98 144h66zM319 0h-75l68 309h-160l-68 -309h-75l147 667h75l-64 -290h160l64 290h75z" />
    <glyph glyph-name="hcircumflex" unicode="&#x125;" 
d="M396 723h-39l-38 105l-79 -105h-44l98 144h66zM268 0h-68l82 371q3 15 3 24q0 39 -38 39q-25 0 -52.5 -24t-47.5 -58l-77 -352h-68l147 667h68l-54 -248q54 76 117 76q38 0 58 -20.5t20 -53.5q0 -11 -4 -31z" />
    <glyph glyph-name="Hbar" unicode="&#x126;" horiz-adv-x="478" 
d="M340 0h-75l68 309h-160l-68 -309h-75l110 501h-62l10 45h62l27 121h75l-27 -121h160l27 121h75l-27 -121h61l-10 -45h-61zM188 377h160l27 124h-160z" />
    <glyph glyph-name="hbar" unicode="&#x127;" horiz-adv-x="384" 
d="M274 0h-68l82 371q3 15 3 24q0 39 -38 39q-25 0 -52.5 -24t-47.5 -58l-77 -352h-68l118 536h-48l10 45h48l19 86h68l-19 -86h118l-9 -45h-119l-25 -117q54 76 117 76q38 0 58 -20.5t20 -53.5q0 -11 -4 -31z" />
    <glyph glyph-name="Itilde" unicode="&#x128;" horiz-adv-x="201" 
d="M84 0h-75l147 667h75zM254 721q-21 0 -32 15t-13 32.5t-8 32.5t-18 15q-29 0 -48 -89h-40q31 134 95 134q21 0 32 -15t13 -32.5t8 -32.5t18 -15q28 0 48 89h40q-29 -134 -95 -134z" />
    <glyph glyph-name="itilde" unicode="&#x129;" horiz-adv-x="180" 
d="M70 0h-68l107 483h68zM207 554q-21 0 -32 15t-13 32.5t-8 32.5t-18 15q-29 0 -48 -89h-40q31 134 95 134q21 0 32 -15t13 -32.5t8 -32.5t18 -15q28 0 48 89h40q-29 -134 -95 -134z" />
    <glyph glyph-name="Imacron" unicode="&#x12a;" horiz-adv-x="201" 
d="M84 0h-75l147 667h75zM334 740h-247l9 45h248z" />
    <glyph glyph-name="imacron" unicode="&#x12b;" horiz-adv-x="180" 
d="M70 0h-68l107 483h68zM287 573h-247l9 45h248z" />
    <glyph glyph-name="Ibreve" unicode="&#x12c;" horiz-adv-x="201" 
d="M84 0h-75l147 667h75zM334 780q-58 -61 -132 -61q-75 0 -106 61l39 28q9 -20 29.5 -32t44.5 -12q55 0 92 44z" />
    <glyph glyph-name="ibreve" unicode="&#x12d;" horiz-adv-x="180" 
d="M70 0h-68l107 483h68zM287 613q-58 -61 -132 -61q-75 0 -106 61l39 28q9 -20 29.5 -32t44.5 -12q55 0 92 44z" />
    <glyph glyph-name="Iogonek" unicode="&#x12e;" horiz-adv-x="201" 
d="M54 -116l31 -22q-26 -48 -72 -48q-28 0 -45 15t-17 43q0 69 74 128h-16l147 667h75l-147 -667h1q-93 -56 -93 -123q0 -26 26 -26t36 33z" />
    <glyph glyph-name="iogonek" unicode="&#x12f;" horiz-adv-x="180" 
d="M39 -116l31 -22q-26 -48 -72 -48q-28 0 -45 15t-17 43q0 69 74 128h-8l107 483h68l-107 -483q-93 -56 -93 -123q0 -26 26 -26t36 33zM163 554q-18 0 -30.5 12t-12.5 29q0 23 17 38.5t37 15.5q18 0 30.5 -12.5t12.5 -29.5q0 -23 -17 -38t-37 -15z" />
    <glyph glyph-name="Idotaccent" unicode="&#x130;" horiz-adv-x="201" 
d="M84 0h-75l147 667h75zM261 773q0 -20 -15 -34.5t-35 -14.5q-17 0 -28.5 11.5t-11.5 28.5q0 20 15 34.5t35 14.5q17 0 28.5 -11.5t11.5 -28.5z" />
    <glyph glyph-name="dotlessi" unicode="&#x131;" horiz-adv-x="180" 
d="M70 0h-68l107 483h68z" />
    <glyph glyph-name="IJ" unicode="&#x132;" horiz-adv-x="522" 
d="M84 0h-75l147 667h75zM277 -12q-77 0 -112 50l37 58q23 -40 70 -40q37 0 58.5 21t31.5 68l116 522h75l-116 -525q-18 -80 -56 -117t-104 -37z" />
    <glyph glyph-name="ij" unicode="&#x133;" horiz-adv-x="361" 
d="M163 554q-18 0 -30.5 12t-12.5 29q0 23 17 38.5t37 15.5q18 0 30.5 -12.5t12.5 -29.5q0 -23 -17 -38t-37 -15zM70 0h-68l107 483h68zM123 -196q-49 0 -65 34l37 46q5 -19 26 -19q31 0 44 64l124 554h68l-123 -554q-16 -68 -41 -96.5t-70 -28.5zM343 554q-18 0 -30.5 12
t-12.5 29q0 23 17 38.5t37 15.5q18 0 30.5 -12.5t12.5 -29.5q0 -23 -17 -38t-37 -15z" />
    <glyph glyph-name="Jcircumflex" unicode="&#x134;" horiz-adv-x="321" 
d="M427 723h-39l-38 105l-79 -105h-44l98 144h66zM76 -12q-77 0 -112 50l37 58q23 -40 70 -40q37 0 58.5 21t31.5 68l116 522h75l-116 -525q-18 -80 -56 -117t-104 -37z" />
    <glyph glyph-name="jcircumflex" unicode="&#x135;" horiz-adv-x="180" 
d="M261 556h-39l-38 105l-79 -105h-44l98 144h66zM-57 -196q-49 0 -65 34l37 46q5 -19 26 -19q31 0 44 64l124 554h68l-123 -554q-16 -68 -41 -96.5t-70 -28.5z" />
    <glyph glyph-name="Kcommaaccent" unicode="&#x136;" horiz-adv-x="418" 
d="M193 -121q0 -41 -29.5 -81t-70.5 -62l-25 27q26 14 47 35.5t28 43.5q-2 -1 -7 -1q-14 0 -24 10.5t-10 26.5q0 20 14.5 34.5t33.5 14.5t31 -12.5t12 -35.5zM353 0h-81l-79 292l-64 -89l-45 -203h-75l147 667h75l-73 -335l239 335h90l-238 -317z" />
    <glyph glyph-name="kcommaaccent" unicode="&#x137;" horiz-adv-x="361" 
d="M159 -121q0 -41 -29.5 -81t-70.5 -62l-25 27q26 14 47 35.5t28 43.5q-2 -1 -7 -1q-14 0 -24 10.5t-10 26.5q0 20 14.5 34.5t33.5 14.5t31 -12.5t12 -35.5zM291 0h-72l-44 222l-78 -99l-27 -123h-68l147 667h68l-98 -446l204 262h76l-171 -216z" />
    <glyph glyph-name="kgreenlandic" unicode="&#x138;" horiz-adv-x="361" 
d="M291 0h-72l-44 222l-78 -99l-27 -123h-68l107 483h68l-58 -262l204 262h76l-171 -216z" />
    <glyph glyph-name="Lacute" unicode="&#x139;" horiz-adv-x="333" 
d="M435 867l-132 -144h-48l111 144h69zM257 0h-248l147 667h75l-132 -600h172z" />
    <glyph glyph-name="lacute" unicode="&#x13a;" horiz-adv-x="180" 
d="M337 867l-132 -144h-48l111 144h69zM70 0h-68l147 667h68z" />
    <glyph glyph-name="Lcommaaccent" unicode="&#x13b;" horiz-adv-x="333" 
d="M159 -121q0 -41 -29.5 -81t-70.5 -62l-25 27q26 14 47 35.5t28 43.5q-2 -1 -7 -1q-14 0 -24 10.5t-10 26.5q0 20 14.5 34.5t33.5 14.5t31 -12.5t12 -35.5zM257 0h-248l147 667h75l-132 -600h172z" />
    <glyph glyph-name="lcommaaccent" unicode="&#x13c;" horiz-adv-x="180" 
d="M53 -121q0 -41 -29.5 -81t-70.5 -62l-25 27q26 14 47 35.5t28 43.5q-2 -1 -7 -1q-14 0 -24 10.5t-10 26.5q0 20 14.5 34.5t33.5 14.5t31 -12.5t12 -35.5zM70 0h-68l147 667h68z" />
    <glyph glyph-name="Lcaron" unicode="&#x13d;" horiz-adv-x="333" 
d="M369 632q0 -41 -29.5 -81t-70.5 -62l-25 27q26 14 47 35.5t28 43.5q-2 -1 -7 -1q-14 0 -24 10.5t-10 26.5q0 20 14.5 34.5t33.5 14.5t31 -12.5t12 -35.5zM257 0h-248l147 667h75l-132 -600h172z" />
    <glyph glyph-name="lcaron" unicode="&#x13e;" horiz-adv-x="261" 
d="M363 632q0 -41 -29.5 -81t-70.5 -62l-25 27q26 14 47 35.5t28 43.5q-2 -1 -7 -1q-14 0 -24 10.5t-10 26.5q0 20 14.5 34.5t33.5 14.5t31 -12.5t12 -35.5zM70 0h-68l147 667h68z" />
    <glyph glyph-name="Ldot" unicode="&#x13f;" horiz-adv-x="362" 
d="M257 0h-248l147 667h75l-132 -600h172zM297 290q-19 0 -33 14t-14 33q0 23 17 39.5t40 16.5q19 0 33 -13.5t14 -33.5q0 -24 -16.5 -40t-40.5 -16z" />
    <glyph glyph-name="ldot" unicode="&#x140;" horiz-adv-x="287" 
d="M70 0h-68l147 667h68zM229 193q-19 0 -33 13.5t-14 33.5q0 23 17 39.5t40 16.5q19 0 33 -14t14 -33q0 -24 -16.5 -40t-40.5 -16z" />
    <glyph glyph-name="Lslash" unicode="&#x141;" horiz-adv-x="346" 
d="M22 247l14 67l62 32l71 321h75l-62 -278l69 35l-14 -66l-69 -36l-56 -255h172l-14 -67h-248l61 278z" />
    <glyph glyph-name="lslash" unicode="&#x142;" horiz-adv-x="222" 
d="M25 262l12 56l63 32l70 317h68l-62 -279l64 32l-13 -55l-63 -32l-73 -333h-68l65 294z" />
    <glyph glyph-name="Nacute" unicode="&#x143;" horiz-adv-x="436" 
d="M466 867l-132 -144h-48l111 144h69zM319 0h-72l-58 477l-105 -477h-75l147 667h75l56 -466l104 466h75z" />
    <glyph glyph-name="nacute" unicode="&#x144;" 
d="M400 700l-132 -144h-48l111 144h69zM268 0h-68l82 371q3 18 3 24q0 39 -38 39q-25 0 -52.5 -24t-47.5 -58l-77 -352h-68l107 483h68l-14 -64q54 76 117 76q37 0 57.5 -19.5t20.5 -54.5q0 -19 -4 -31z" />
    <glyph glyph-name="Ncommaaccent" unicode="&#x145;" horiz-adv-x="436" 
d="M184 -121q0 -41 -29.5 -81t-70.5 -62l-25 27q26 14 47 35.5t28 43.5q-2 -1 -7 -1q-14 0 -24 10.5t-10 26.5q0 20 14.5 34.5t33.5 14.5t31 -12.5t12 -35.5zM319 0h-72l-58 477l-105 -477h-75l147 667h75l56 -466l104 466h75z" />
    <glyph glyph-name="ncommaaccent" unicode="&#x146;" 
d="M154 -121q0 -41 -29.5 -81t-70.5 -62l-25 27q26 14 47 35.5t28 43.5q-2 -1 -7 -1q-14 0 -24 10.5t-10 26.5q0 20 14.5 34.5t33.5 14.5t31 -12.5t12 -35.5zM268 0h-68l82 371q3 18 3 24q0 39 -38 39q-25 0 -52.5 -24t-47.5 -58l-77 -352h-68l107 483h68l-14 -64
q54 76 117 76q37 0 57.5 -19.5t20.5 -54.5q0 -19 -4 -31z" />
    <glyph glyph-name="Ncaron" unicode="&#x147;" horiz-adv-x="436" 
d="M360 723h-66l-37 144h40l36 -105l81 105h43zM319 0h-72l-58 477l-105 -477h-75l147 667h75l56 -466l104 466h75z" />
    <glyph glyph-name="ncaron" unicode="&#x148;" 
d="M293 556h-66l-37 144h40l36 -105l81 105h43zM268 0h-68l82 371q3 18 3 24q0 39 -38 39q-25 0 -52.5 -24t-47.5 -58l-77 -352h-68l107 483h68l-14 -64q54 76 117 76q37 0 57.5 -19.5t20.5 -54.5q0 -19 -4 -31z" />
    <glyph glyph-name="napostrophe" unicode="&#x149;" 
d="M232 693q0 -41 -29.5 -81t-70.5 -62l-25 27q26 14 47 35.5t28 43.5q-2 -1 -7 -1q-14 0 -24 10.5t-10 26.5q0 20 14.5 34.5t33.5 14.5t31 -12.5t12 -35.5zM268 0h-68l82 371q3 18 3 24q0 39 -38 39q-25 0 -52.5 -24t-47.5 -58l-77 -352h-68l107 483h68l-14 -64
q54 76 117 76q37 0 57.5 -19.5t20.5 -54.5q0 -19 -4 -31z" />
    <glyph glyph-name="Eng" unicode="&#x14a;" horiz-adv-x="436" 
d="M150 -196q-75 0 -112 50l36 55q23 -38 71 -38q37 0 58 21t32 68l11 50l-57 467l-105 -477h-75l147 667h75l56 -466l104 466h75l-156 -709q-18 -81 -56 -117.5t-104 -36.5z" />
    <glyph glyph-name="eng" unicode="&#x14b;" 
d="M354 390l-102 -460q-16 -70 -42 -98t-70 -28q-45 0 -64 34l37 46q5 -19 25 -19q16 0 26.5 14.5t19.5 50.5l98 441q3 21 3 25q0 38 -38 38q-25 0 -52.5 -24t-47.5 -58l-77 -352h-68l107 483h68l-15 -68q55 80 118 80q36 0 57 -19t21 -55q0 -13 -4 -31z" />
    <glyph glyph-name="Omacron" unicode="&#x14c;" horiz-adv-x="434" 
d="M450 740h-247l9 45h248zM175 -12q-69 0 -102.5 52.5t-33.5 136.5q0 46 9 107t29.5 131t49 128t73 96.5t96.5 38.5q69 0 103 -53.5t34 -137.5q0 -59 -15.5 -139t-44.5 -163t-81.5 -140t-116.5 -57zM180 56q38 0 72.5 50t55.5 121t33.5 142t12.5 121q0 120 -64 120
q-39 0 -73 -50t-55 -121.5t-33 -143t-12 -121.5q0 -118 63 -118z" />
    <glyph glyph-name="omacron" unicode="&#x14d;" horiz-adv-x="382" 
d="M388 573h-247l9 45h248zM150 -12q-60 0 -93 39.5t-33 117.5q0 74 22 152t71.5 138t113.5 60q60 0 92.5 -39t32.5 -118q0 -74 -22 -152t-71 -138t-113 -60zM154 49q39 0 71 54.5t46.5 119.5t14.5 115q0 96 -59 96q-39 0 -71.5 -55t-47 -120t-14.5 -115q0 -95 60 -95z" />
    <glyph glyph-name="Obreve" unicode="&#x14e;" horiz-adv-x="434" 
d="M175 -12q-69 0 -102.5 52.5t-33.5 136.5q0 46 9 107t29.5 131t49 128t73 96.5t96.5 38.5q69 0 103 -53.5t34 -137.5q0 -59 -15.5 -139t-44.5 -163t-81.5 -140t-116.5 -57zM180 56q38 0 72.5 50t55.5 121t33.5 142t12.5 121q0 120 -64 120q-39 0 -73 -50t-55 -121.5
t-33 -143t-12 -121.5q0 -118 63 -118zM451 780q-58 -61 -132 -61q-75 0 -106 61l39 28q9 -20 29.5 -32t44.5 -12q55 0 92 44z" />
    <glyph glyph-name="obreve" unicode="&#x14f;" horiz-adv-x="382" 
d="M150 -12q-60 0 -93 39.5t-33 117.5q0 74 22 152t71.5 138t113.5 60q60 0 92.5 -39t32.5 -118q0 -74 -22 -152t-71 -138t-113 -60zM154 49q39 0 71 54.5t46.5 119.5t14.5 115q0 96 -59 96q-39 0 -71.5 -55t-47 -120t-14.5 -115q0 -95 60 -95zM389 613q-58 -61 -132 -61
q-75 0 -106 61l39 28q9 -20 29.5 -32t44.5 -12q55 0 92 44z" />
    <glyph glyph-name="Ohungarumlaut" unicode="&#x150;" horiz-adv-x="434" 
d="M380 867l-109 -144h-40l88 144h61zM497 867l-110 -144h-40l88 144h62zM175 -12q-69 0 -102.5 52.5t-33.5 136.5q0 46 9 107t29.5 131t49 128t73 96.5t96.5 38.5q69 0 103 -53.5t34 -137.5q0 -59 -15.5 -139t-44.5 -163t-81.5 -140t-116.5 -57zM180 56q38 0 72.5 50
t55.5 121t33.5 142t12.5 121q0 120 -64 120q-39 0 -73 -50t-55 -121.5t-33 -143t-12 -121.5q0 -118 63 -118z" />
    <glyph glyph-name="ohungarumlaut" unicode="&#x151;" horiz-adv-x="382" 
d="M321 700l-109 -144h-40l88 144h61zM438 700l-110 -144h-40l88 144h62zM150 -12q-60 0 -93 39.5t-33 117.5q0 74 22 152t71.5 138t113.5 60q60 0 92.5 -39t32.5 -118q0 -74 -22 -152t-71 -138t-113 -60zM154 49q39 0 71 54.5t46.5 119.5t14.5 115q0 96 -59 96
q-39 0 -71.5 -55t-47 -120t-14.5 -115q0 -95 60 -95z" />
    <glyph glyph-name="OE" unicode="&#x152;" horiz-adv-x="594" 
d="M497 0h-248l14 66q-47 -78 -112 -78q-53 0 -82.5 51t-29.5 138q0 48 9.5 110t30.5 131t50 126.5t74 95t97 37.5q67 0 82 -76l14 66h248l-14 -67h-172l-50 -225h165l-15 -67h-166l-52 -241h172zM289 178l69 311q-3 120 -62 120q-42 0 -77.5 -49.5t-56.5 -120.5t-33 -142
t-12 -123q0 -118 58 -118q31 0 61 32.5t53 89.5z" />
    <glyph glyph-name="oe" unicode="&#x153;" horiz-adv-x="608" 
d="M569 219h-233q-6 -30 -6 -68q0 -106 80 -106q43 0 85 54l31 -43q-58 -68 -125 -68q-51 0 -80.5 29t-35.5 81q-30 -55 -62 -82.5t-75 -27.5q-124 0 -124 157q0 79 23 157.5t71.5 135.5t110.5 57q88 0 104 -107q51 107 133 107q122 0 122 -149q0 -62 -19 -127zM347 270h167
q9 40 9 75q0 93 -62 93q-31 0 -56 -29t-38 -64t-20 -75zM282 338q0 96 -58 96q-39 0 -70.5 -54.5t-45.5 -119.5t-14 -116q0 -96 58 -96q30 0 56 33t41.5 80.5t24 94.5t8.5 82z" />
    <glyph glyph-name="Racute" unicode="&#x154;" horiz-adv-x="409" 
d="M455 867l-132 -144h-48l111 144h69zM311 0h-78l-27 269h-63l-59 -269h-75l147 667h123q59 0 96.5 -42.5t37.5 -107.5q0 -85 -40.5 -151.5t-96.5 -83.5zM158 336h53q57 0 89.5 53.5t32.5 122.5q0 44 -18 66t-49 22h-49z" />
    <glyph glyph-name="racute" unicode="&#x155;" horiz-adv-x="252" 
d="M350 700l-132 -144h-48l111 144h69zM70 0h-68l107 483h68l-14 -68q46 78 129 78l-16 -70q-9 3 -23 3q-61 0 -107 -82z" />
    <glyph glyph-name="Rcommaaccent" unicode="&#x156;" horiz-adv-x="409" 
d="M173 -121q0 -41 -29.5 -81t-70.5 -62l-25 27q26 14 47 35.5t28 43.5q-2 -1 -7 -1q-14 0 -24 10.5t-10 26.5q0 20 14.5 34.5t33.5 14.5t31 -12.5t12 -35.5zM311 0h-78l-27 269h-63l-59 -269h-75l147 667h123q59 0 96.5 -42.5t37.5 -107.5q0 -85 -40.5 -151.5t-96.5 -83.5z
M158 336h53q57 0 89.5 53.5t32.5 122.5q0 44 -18 66t-49 22h-49z" />
    <glyph glyph-name="rcommaaccent" unicode="&#x157;" horiz-adv-x="252" 
d="M109 -121q0 -41 -29.5 -81t-70.5 -62l-25 27q26 14 47 35.5t28 43.5q-2 -1 -7 -1q-14 0 -24 10.5t-10 26.5q0 20 14.5 34.5t33.5 14.5t31 -12.5t12 -35.5zM70 0h-68l107 483h68l-14 -68q46 78 129 78l-16 -70q-9 3 -23 3q-61 0 -107 -82z" />
    <glyph glyph-name="Rcaron" unicode="&#x158;" horiz-adv-x="409" 
d="M347 723h-66l-37 144h40l36 -105l81 105h43zM311 0h-78l-27 269h-63l-59 -269h-75l147 667h123q59 0 96.5 -42.5t37.5 -107.5q0 -85 -40.5 -151.5t-96.5 -83.5zM158 336h53q57 0 89.5 53.5t32.5 122.5q0 44 -18 66t-49 22h-49z" />
    <glyph glyph-name="rcaron" unicode="&#x159;" horiz-adv-x="252" 
d="M249 556h-66l-37 144h40l36 -105l81 105h43zM70 0h-68l107 483h68l-14 -68q46 78 129 78l-16 -70q-9 3 -23 3q-61 0 -107 -82z" />
    <glyph glyph-name="Sacute" unicode="&#x15a;" horiz-adv-x="354" 
d="M423 867l-132 -144h-48l111 144h69zM125 -12q-44 0 -83 19t-59 50l49 55q14 -25 40 -40.5t53 -15.5q42 0 73.5 36t31.5 96q0 35 -22 72t-48 65t-48 71t-22 89q0 81 52.5 137t123.5 56q80 0 123 -55l-43 -56q-30 43 -81 43q-42 0 -69 -34t-27 -80q0 -26 14.5 -53.5
t34.5 -53l40.5 -53t35 -63.5t14.5 -74q0 -90 -52.5 -150.5t-130.5 -60.5z" />
    <glyph glyph-name="sacute" unicode="&#x15b;" horiz-adv-x="309" 
d="M366 700l-132 -144h-48l111 144h69zM110 -12q-43 0 -77 18t-50 49l42 44q29 -55 88 -55q33 0 56 25t23 59q0 28 -20.5 55t-45.5 46.5t-45.5 52t-20.5 70.5q0 59 38.5 101t102.5 42q76 0 116 -59l-41 -43q-10 21 -31.5 33.5t-45.5 12.5q-32 0 -52 -21t-20 -53
q0 -25 21 -51.5t46 -46t46 -53.5t21 -72q0 -64 -43 -109t-108 -45z" />
    <glyph glyph-name="Scircumflex" unicode="&#x15c;" horiz-adv-x="354" 
d="M383 723h-39l-38 105l-79 -105h-44l98 144h66zM125 -12q-44 0 -83 19t-59 50l49 55q14 -25 40 -40.5t53 -15.5q42 0 73.5 36t31.5 96q0 35 -22 72t-48 65t-48 71t-22 89q0 81 52.5 137t123.5 56q80 0 123 -55l-43 -56q-30 43 -81 43q-42 0 -69 -34t-27 -80
q0 -26 14.5 -53.5t34.5 -53l40.5 -53t35 -63.5t14.5 -74q0 -90 -52.5 -150.5t-130.5 -60.5z" />
    <glyph glyph-name="scircumflex" unicode="&#x15d;" horiz-adv-x="309" 
d="M325 556h-39l-38 105l-79 -105h-44l98 144h66zM110 -12q-43 0 -77 18t-50 49l42 44q29 -55 88 -55q33 0 56 25t23 59q0 28 -20.5 55t-45.5 46.5t-45.5 52t-20.5 70.5q0 59 38.5 101t102.5 42q76 0 116 -59l-41 -43q-10 21 -31.5 33.5t-45.5 12.5q-32 0 -52 -21t-20 -53
q0 -25 21 -51.5t46 -46t46 -53.5t21 -72q0 -64 -43 -109t-108 -45z" />
    <glyph glyph-name="Scedilla" unicode="&#x15e;" horiz-adv-x="354" 
d="M75 -191q-51 0 -82 37l24 33q23 -32 59 -32q22 0 36 15t14 35q0 27 -25 27q-16 0 -28 -14l-27 17l39 65q-69 14 -102 65l49 55q14 -25 40 -40.5t53 -15.5q42 0 73.5 36t31.5 96q0 35 -22 72t-48 65t-48 71t-22 89q0 81 52.5 137t123.5 56q80 0 123 -55l-43 -56
q-30 43 -81 43q-42 0 -69 -34t-27 -80q0 -26 14.5 -53.5t34.5 -53l40.5 -53t35 -63.5t14.5 -74q0 -90 -52.5 -150.5t-130.5 -60.5h-1l-27 -44q10 10 24 10q22 0 35 -15.5t13 -39.5q0 -37 -27.5 -63.5t-66.5 -26.5z" />
    <glyph glyph-name="scedilla" unicode="&#x15f;" horiz-adv-x="309" 
d="M61 -191q-51 0 -82 37l24 33q23 -32 59 -32q22 0 36 15t14 35q0 27 -25 27q-16 0 -28 -14l-27 17l38 65q-61 14 -87 63l42 44q29 -55 88 -55q33 0 56 25t23 59q0 28 -20.5 55t-45.5 46.5t-45.5 52t-20.5 70.5q0 59 38.5 101t102.5 42q76 0 116 -59l-41 -43
q-10 21 -31.5 33.5t-45.5 12.5q-32 0 -52 -21t-20 -53q0 -25 21 -51.5t46 -46t46 -53.5t21 -72q0 -63 -42.5 -108t-108.5 -46l-27 -44q10 10 24 10q22 0 35 -15.5t13 -39.5q0 -37 -27.5 -63.5t-66.5 -26.5z" />
    <glyph glyph-name="Scaron" unicode="&#x160;" horiz-adv-x="354" 
d="M318 723h-66l-37 144h40l36 -105l81 105h43zM125 -12q-44 0 -83 19t-59 50l49 55q14 -25 40 -40.5t53 -15.5q42 0 73.5 36t31.5 96q0 35 -22 72t-48 65t-48 71t-22 89q0 81 52.5 137t123.5 56q80 0 123 -55l-43 -56q-30 43 -81 43q-42 0 -69 -34t-27 -80
q0 -26 14.5 -53.5t34.5 -53l40.5 -53t35 -63.5t14.5 -74q0 -90 -52.5 -150.5t-130.5 -60.5z" />
    <glyph glyph-name="scaron" unicode="&#x161;" horiz-adv-x="309" 
d="M261 556h-66l-37 144h40l36 -105l81 105h43zM110 -12q-43 0 -77 18t-50 49l42 44q29 -55 88 -55q33 0 56 25t23 59q0 28 -20.5 55t-45.5 46.5t-45.5 52t-20.5 70.5q0 59 38.5 101t102.5 42q76 0 116 -59l-41 -43q-10 21 -31.5 33.5t-45.5 12.5q-32 0 -52 -21t-20 -53
q0 -25 21 -51.5t46 -46t46 -53.5t21 -72q0 -64 -43 -109t-108 -45z" />
    <glyph glyph-name="Tcommaaccent" unicode="&#x162;" horiz-adv-x="322" 
d="M131 -121q0 -41 -29.5 -81t-70.5 -62l-25 27q26 14 47 35.5t28 43.5q-2 -1 -7 -1q-14 0 -24 10.5t-10 26.5q0 20 14.5 34.5t33.5 14.5t31 -12.5t12 -35.5zM145 0h-76l133 600h-105l14 67h286l-14 -67h-106z" />
    <glyph glyph-name="tcommaaccent" unicode="&#x163;" horiz-adv-x="233" 
d="M79 -121q0 -41 -29.5 -81t-70.5 -62l-25 27q26 14 47 35.5t28 43.5q-2 -1 -7 -1q-14 0 -24 10.5t-10 26.5q0 20 14.5 34.5t33.5 14.5t31 -12.5t12 -35.5zM114 -12q-82 0 -82 71q0 16 4 36l74 328h-49l13 60h49l29 132h69l-29 -132h65l-13 -60h-66l-71 -319q-4 -18 -4 -27
q0 -28 29 -28q18 0 31 13l10 -53q-25 -21 -59 -21z" />
    <glyph glyph-name="Tcaron" unicode="&#x164;" horiz-adv-x="322" 
d="M298 723h-66l-37 144h40l36 -105l81 105h43zM145 0h-76l133 600h-105l14 67h286l-14 -67h-106z" />
    <glyph glyph-name="tcaron" unicode="&#x165;" horiz-adv-x="255" 
d="M379 693q0 -41 -29.5 -81t-70.5 -62l-25 27q26 14 47 35.5t28 43.5q-2 -1 -7 -1q-14 0 -24 10.5t-10 26.5q0 20 14.5 34.5t33.5 14.5t31 -12.5t12 -35.5zM114 -12q-82 0 -82 71q0 16 4 36l74 328h-49l13 60h49l29 132h69l-29 -132h65l-13 -60h-66l-71 -319q-4 -18 -4 -27
q0 -28 29 -28q18 0 31 13l10 -53q-25 -21 -59 -21z" />
    <glyph glyph-name="Tbar" unicode="&#x166;" horiz-adv-x="322" 
d="M145 0h-76l66 298h-75l10 45h75l57 257h-105l14 67h286l-14 -67h-106l-57 -257h75l-9 -45h-76z" />
    <glyph glyph-name="tbar" unicode="&#x167;" horiz-adv-x="233" 
d="M114 -12q-82 0 -82 71q0 16 4 36l30 134h-48l9 45h49l34 149h-49l13 60h49l29 132h69l-29 -132h65l-13 -60h-66l-33 -149h37l-11 -45h-36l-28 -125q-4 -18 -4 -27q0 -28 29 -28q18 0 31 13l10 -53q-25 -21 -59 -21z" />
    <glyph glyph-name="Utilde" unicode="&#x168;" horiz-adv-x="437" 
d="M181 -12q-61 0 -100 37.5t-39 102.5q0 24 5 46l109 493h75l-110 -498q-4 -28 -4 -36q0 -38 19.5 -58t50.5 -20q36 0 59 26.5t36 87.5l110 498h75l-109 -495q-41 -184 -177 -184zM371 721q-21 0 -32 15t-13 32.5t-8 32.5t-18 15q-29 0 -48 -89h-40q31 134 95 134
q21 0 32 -15t13 -32.5t8 -32.5t18 -15q28 0 48 89h40q-29 -134 -95 -134z" />
    <glyph glyph-name="utilde" unicode="&#x169;" 
d="M109 483h68l-82 -371q-3 -14 -3 -24q0 -39 38 -39q25 0 51 22t46 55l80 357h68l-107 -483h-68l14 64q-54 -76 -117 -76q-37 0 -57.5 19.5t-20.5 54.5q0 19 4 31zM306 554q-21 0 -32 15t-13 32.5t-8 32.5t-18 15q-29 0 -48 -89h-40q31 134 95 134q21 0 32 -15t13 -32.5
t8 -32.5t18 -15q28 0 48 89h40q-29 -134 -95 -134z" />
    <glyph glyph-name="Umacron" unicode="&#x16a;" horiz-adv-x="437" 
d="M181 -12q-61 0 -100 37.5t-39 102.5q0 24 5 46l109 493h75l-110 -498q-4 -28 -4 -36q0 -38 19.5 -58t50.5 -20q36 0 59 26.5t36 87.5l110 498h75l-109 -495q-41 -184 -177 -184zM451 740h-247l9 45h248z" />
    <glyph glyph-name="umacron" unicode="&#x16b;" 
d="M109 483h68l-82 -371q-3 -14 -3 -24q0 -39 38 -39q25 0 51 22t46 55l80 357h68l-107 -483h-68l14 64q-54 -76 -117 -76q-37 0 -57.5 19.5t-20.5 54.5q0 19 4 31zM387 573h-247l9 45h248z" />
    <glyph glyph-name="Ubreve" unicode="&#x16c;" horiz-adv-x="437" 
d="M181 -12q-61 0 -100 37.5t-39 102.5q0 24 5 46l109 493h75l-110 -498q-4 -28 -4 -36q0 -38 19.5 -58t50.5 -20q36 0 59 26.5t36 87.5l110 498h75l-109 -495q-41 -184 -177 -184zM450 780q-58 -61 -132 -61q-75 0 -106 61l39 28q9 -20 29.5 -32t44.5 -12q55 0 92 44z" />
    <glyph glyph-name="ubreve" unicode="&#x16d;" 
d="M109 483h68l-82 -371q-3 -14 -3 -24q0 -39 38 -39q25 0 51 22t46 55l80 357h68l-107 -483h-68l14 64q-54 -76 -117 -76q-37 0 -57.5 19.5t-20.5 54.5q0 19 4 31zM387 613q-58 -61 -132 -61q-75 0 -106 61l39 28q9 -20 29.5 -32t44.5 -12q55 0 92 44z" />
    <glyph glyph-name="Uring" unicode="&#x16e;" horiz-adv-x="437" 
d="M326 692q-33 0 -53.5 21.5t-20.5 54.5q0 37 27.5 64.5t64.5 27.5q32 0 53 -21.5t21 -54.5q0 -37 -27.5 -64.5t-64.5 -27.5zM328 728q22 0 38 15.5t16 37.5q0 18 -11.5 30.5t-28.5 12.5q-22 0 -38 -15.5t-16 -37.5q0 -18 11 -30.5t29 -12.5zM181 -12q-61 0 -100 37.5
t-39 102.5q0 24 5 46l109 493h75l-110 -498q-4 -28 -4 -36q0 -38 19.5 -58t50.5 -20q36 0 59 26.5t36 87.5l110 498h75l-109 -495q-41 -184 -177 -184z" />
    <glyph glyph-name="uring" unicode="&#x16f;" 
d="M267 545q-33 0 -53.5 21.5t-20.5 54.5q0 37 27.5 64.5t64.5 27.5q32 0 53 -21.5t21 -54.5q0 -37 -27.5 -64.5t-64.5 -27.5zM269 581q22 0 38 15.5t16 37.5q0 18 -11.5 30.5t-28.5 12.5q-22 0 -38 -15.5t-16 -37.5q0 -18 11 -30.5t29 -12.5zM109 483h68l-82 -371
q-3 -14 -3 -24q0 -39 38 -39q25 0 51 22t46 55l80 357h68l-107 -483h-68l14 64q-54 -76 -117 -76q-37 0 -57.5 19.5t-20.5 54.5q0 19 4 31z" />
    <glyph glyph-name="Uhungarumlaut" unicode="&#x170;" horiz-adv-x="437" 
d="M181 -12q-61 0 -100 37.5t-39 102.5q0 24 5 46l109 493h75l-110 -498q-4 -28 -4 -36q0 -38 19.5 -58t50.5 -20q36 0 59 26.5t36 87.5l110 498h75l-109 -495q-41 -184 -177 -184zM382 867l-109 -144h-40l88 144h61zM499 867l-110 -144h-40l88 144h62z" />
    <glyph glyph-name="uhungarumlaut" unicode="&#x171;" 
d="M109 483h68l-82 -371q-3 -14 -3 -24q0 -39 38 -39q25 0 51 22t46 55l80 357h68l-107 -483h-68l14 64q-54 -76 -117 -76q-37 0 -57.5 19.5t-20.5 54.5q0 19 4 31zM319 700l-109 -144h-40l88 144h61zM436 700l-110 -144h-40l88 144h62z" />
    <glyph glyph-name="Uogonek" unicode="&#x172;" horiz-adv-x="437" 
d="M214 -116l31 -22q-26 -48 -72 -48q-28 0 -45 15t-17 43q0 62 60 117q-57 3 -93 40t-36 99q0 24 5 46l109 493h75l-110 -498q-4 -28 -4 -36q0 -38 19.5 -58t50.5 -20q36 0 59 26.5t36 87.5l110 498h75l-109 -495q-32 -138 -113 -172q-93 -56 -93 -123q0 -26 26 -26t36 33z
" />
    <glyph glyph-name="uogonek" unicode="&#x173;" 
d="M109 483h68l-82 -371q-3 -14 -3 -24q0 -39 38 -39q25 0 51 22t46 55l80 357h68l-107 -483q-93 -56 -93 -123q0 -26 26 -26t36 33l31 -22q-26 -48 -72 -48q-28 0 -45 15t-17 43q0 69 74 128h-8l14 64q-54 -76 -117 -76q-37 0 -57.5 19.5t-20.5 54.5q0 19 4 31z" />
    <glyph glyph-name="Wcircumflex" unicode="&#x174;" horiz-adv-x="548" 
d="M479 723h-39l-38 105l-79 -105h-44l98 144h66zM370 0h-80l44 514l-184 -514h-79l40 667h77l-47 -531l193 531h64l-42 -531l188 531h79z" />
    <glyph glyph-name="wcircumflex" unicode="&#x175;" horiz-adv-x="541" 
d="M437 556h-39l-38 105l-79 -105h-44l98 144h66zM369 0h-71l4 389l-167 -389h-71l2 483h70l-14 -387l164 387h69l-7 -387l159 387h74z" />
    <glyph glyph-name="Ycircumflex" unicode="&#x176;" horiz-adv-x="372" 
d="M393 723h-39l-38 105l-79 -105h-44l98 144h66zM170 0h-75l62 283l-65 384h78l38 -307l174 307h84l-234 -384z" />
    <glyph glyph-name="ycircumflex" unicode="&#x177;" horiz-adv-x="326" 
d="M-61 -186l23 57q6 -6 23 -6q15 0 25.5 10t22.5 35l37 77l-8 496h71l-8 -396l170 396h74l-274 -589q-25 -51 -49 -70.5t-58 -19.5q-29 0 -49 10zM329 556h-39l-38 105l-79 -105h-44l98 144h66z" />
    <glyph glyph-name="Ydieresis" unicode="&#x178;" horiz-adv-x="372" 
d="M418 775q0 -19 -14.5 -33.5t-34.5 -14.5q-16 0 -27 11t-11 28q0 19 14.5 33t34.5 14q16 0 27 -11t11 -27zM278 775q0 -19 -14.5 -33.5t-34.5 -14.5q-17 0 -28 11t-11 28q0 19 14.5 33t34.5 14q17 0 28 -11t11 -27zM170 0h-75l62 283l-65 384h78l38 -307l174 307h84
l-234 -384z" />
    <glyph glyph-name="Zacute" unicode="&#x179;" horiz-adv-x="340" 
d="M414 867l-132 -144h-48l111 144h69zM253 0h-274l14 66l298 534h-179l14 67h267l-14 -63l-300 -537h189z" />
    <glyph glyph-name="zacute" unicode="&#x17a;" horiz-adv-x="303" 
d="M359 700l-132 -144h-48l111 144h69zM214 0h-234l11 54l232 369h-149l13 60h230l-11 -52l-231 -371h152z" />
    <glyph glyph-name="Zdotaccent" unicode="&#x17b;" horiz-adv-x="340" 
d="M253 0h-274l14 66l298 534h-179l14 67h267l-14 -63l-300 -537h189zM327 773q0 -20 -15 -34.5t-35 -14.5q-17 0 -28.5 11.5t-11.5 28.5q0 20 15 34.5t35 14.5q17 0 28.5 -11.5t11.5 -28.5z" />
    <glyph glyph-name="zdotaccent" unicode="&#x17c;" horiz-adv-x="303" 
d="M214 0h-234l11 54l232 369h-149l13 60h230l-11 -52l-231 -371h152zM274 606q0 -20 -15 -34.5t-35 -14.5q-17 0 -28.5 11.5t-11.5 28.5q0 20 15 34.5t35 14.5q17 0 28.5 -11.5t11.5 -28.5z" />
    <glyph glyph-name="Zcaron" unicode="&#x17d;" horiz-adv-x="340" 
d="M308 723h-66l-37 144h40l36 -105l81 105h43zM253 0h-274l14 66l298 534h-179l14 67h267l-14 -63l-300 -537h189z" />
    <glyph glyph-name="zcaron" unicode="&#x17e;" horiz-adv-x="303" 
d="M253 556h-66l-37 144h40l36 -105l81 105h43zM214 0h-234l11 54l232 369h-149l13 60h230l-11 -52l-231 -371h152z" />
    <glyph glyph-name="longs" unicode="&#x17f;" horiz-adv-x="224" 
d="M85 0h-69l94 423h-48l14 60h47l17 81q24 113 117 113q52 0 73 -29l-34 -52q-12 20 -34 20q-42 0 -53 -52z" />
    <glyph glyph-name="florin" unicode="&#x192;" horiz-adv-x="364" 
d="M45 -161h-77l92 417h-47v62h61l56 252q11 50 40.5 78.5t74.5 28.5q49 0 74 -26l-29 -55q-11 14 -34 14q-40 0 -53 -56l-52 -236h90v-62h-104z" />
    <glyph glyph-name="Ohorn" unicode="&#x1a0;" horiz-adv-x="434" 
d="M175 -12q-69 0 -102.5 52.5t-33.5 136.5q0 46 9 107t29.5 131t49 128t73 96.5t96.5 38.5q92 0 123 -97q41 28 52 64h-7q-14 0 -23.5 10t-9.5 25q0 19 14 32.5t32 13.5t29.5 -12t11.5 -34q0 -38 -26 -75t-64 -59q5 -24 5 -59q0 -59 -15.5 -139t-44.5 -163t-81.5 -140
t-116.5 -57zM180 56q38 0 72.5 50t55.5 121t33.5 142t12.5 121q0 120 -64 120q-39 0 -73 -50t-55 -121.5t-33 -143t-12 -121.5q0 -118 63 -118z" />
    <glyph glyph-name="ohorn" unicode="&#x1a1;" horiz-adv-x="382" 
d="M427 546q0 -35 -24 -71t-59 -59q12 -32 12 -78q0 -74 -22 -152t-71 -138t-113 -60q-60 0 -93 39.5t-33 117.5q0 74 22 152t71.5 138t113.5 60q67 0 98 -47q41 29 51 63h-7q-13 0 -23 10t-10 25q0 19 14 32.5t32 13.5t29.5 -12t11.5 -34zM154 49q39 0 71 54.5t46.5 119.5
t14.5 115q0 96 -59 96q-39 0 -71.5 -55t-47 -120t-14.5 -115q0 -95 60 -95z" />
    <glyph glyph-name="Uhorn" unicode="&#x1af;" horiz-adv-x="437" 
d="M562 744q0 -40 -32.5 -81.5t-77.5 -61.5l-94 -429q-41 -184 -177 -184q-61 0 -100 37.5t-39 102.5q0 24 5 46l109 493h75l-110 -498q-4 -28 -4 -36q0 -38 19.5 -58t50.5 -20q36 0 59 26.5t36 87.5l110 498h75l-5 -22q42 28 53 64h-7q-14 0 -23.5 10t-9.5 25q0 19 14 32.5
t32 13.5t29.5 -12t11.5 -34z" />
    <glyph glyph-name="uhorn" unicode="&#x1b0;" 
d="M453 551q0 -37 -26.5 -75t-66.5 -61l-92 -415h-68l14 64q-54 -76 -117 -76q-37 0 -57.5 19.5t-20.5 54.5q0 19 4 31l86 390h68l-82 -371q-3 -21 -3 -24q0 -39 38 -39q25 0 51 22t46 55l80 357h68l-4 -18q26 25 35 51h-7q-13 0 -22.5 10t-9.5 25q0 19 13.5 32t32.5 13
q17 0 28.5 -11.5t11.5 -33.5z" />
    <glyph glyph-name="AEacute" unicode="&#x1fc;" horiz-adv-x="554" 
d="M550 867l-132 -144h-48l111 144h69zM457 0h-248l34 153h-123l-80 -153h-80l364 667h280l-14 -67h-172l-50 -225h165l-15 -67h-166l-52 -241h172zM258 220l77 348l-181 -348h104z" />
    <glyph glyph-name="aeacute" unicode="&#x1fd;" horiz-adv-x="597" 
d="M505 700l-132 -144h-48l111 144h69zM221 434q-39 0 -69.5 -58t-44 -124.5t-13.5 -115.5q0 -87 55 -87q23 0 47 23.5t39 56.5l50 224q-3 34 -21.5 57.5t-42.5 23.5zM296 97l-22 -97h-68l14 62q-44 -74 -101 -74q-46 0 -71 37t-25 106q0 48 12 107.5t34 118.5t59.5 98.5
t81.5 39.5q30 0 54 -20.5t34 -60.5l15 69h68l-15 -67q45 79 108 79q102 -2 102 -145q0 -61 -18 -131h-234q-7 -28 -7 -68q0 -47 21 -76t63 -29q43 0 85 54l30 -47q-53 -65 -114 -65q-93 0 -106 109zM334 270h168q10 43 10 75q0 41 -15 67t-45 26q-45 0 -76 -52.5t-42 -115.5
z" />
    <glyph glyph-name="Oslashacute" unicode="&#x1fe;" horiz-adv-x="434" 
d="M465 867l-132 -144h-48l111 144h69zM175 -12q-66 0 -101 49l-23 -37h-52l53 83q-13 40 -13 94q0 46 9 107t29.5 131t49 128t73 96.5t96.5 38.5q65 0 101 -51l26 40h51l-55 -86q14 -44 14 -94q0 -59 -15.5 -139t-44.5 -163t-81.5 -140t-116.5 -57zM290 610
q-38 0 -71.5 -47t-54.5 -116t-33.5 -138.5t-13.5 -122.5l231 364q-13 60 -58 60zM180 56q49 0 90 79.5t61.5 173.5t22.5 168l-232 -364q13 -57 58 -57z" />
    <glyph glyph-name="oslashacute" unicode="&#x1ff;" horiz-adv-x="382" 
d="M402 700l-132 -144h-48l111 144h69zM38 0h-47l46 63q-13 32 -13 82q0 74 22 152t71.5 138t113.5 60q61 0 92 -39l20 27h47l-47 -64q13 -36 13 -81q0 -74 -22 -152t-71 -138t-113 -60q-60 0 -93 39zM94 144v-3l185 254q-13 39 -52 39t-71.5 -55t-47 -120t-14.5 -115z
M154 49q39 0 71 54.5t46.5 119.5t14.5 115v2l-185 -253q14 -38 53 -38z" />
    <glyph glyph-name="Scommaaccent" unicode="&#x218;" horiz-adv-x="354" 
d="M142 -121q0 -41 -29.5 -81t-70.5 -62l-25 27q26 14 47 35.5t28 43.5q-2 -1 -7 -1q-14 0 -24 10.5t-10 26.5q0 20 14.5 34.5t33.5 14.5t31 -12.5t12 -35.5zM125 -12q-44 0 -83 19t-59 50l49 55q14 -25 40 -40.5t53 -15.5q42 0 73.5 36t31.5 96q0 35 -22 72t-48 65t-48 71
t-22 89q0 81 52.5 137t123.5 56q80 0 123 -55l-43 -56q-30 43 -81 43q-42 0 -69 -34t-27 -80q0 -26 14.5 -53.5t34.5 -53l40.5 -53t35 -63.5t14.5 -74q0 -90 -52.5 -150.5t-130.5 -60.5z" />
    <glyph glyph-name="scommaaccent" unicode="&#x219;" horiz-adv-x="310" 
d="M118 -121q0 -41 -29.5 -81t-70.5 -62l-25 27q26 14 47 35.5t28 43.5q-2 -1 -7 -1q-14 0 -24 10.5t-10 26.5q0 20 14.5 34.5t33.5 14.5t31 -12.5t12 -35.5zM110 -12q-43 0 -77 18t-50 49l42 44q29 -55 88 -55q33 0 56 25t23 59q0 28 -20.5 55t-45.5 46.5t-45.5 52
t-20.5 70.5q0 59 38.5 101t102.5 42q76 0 116 -59l-41 -43q-10 21 -31.5 33.5t-45.5 12.5q-32 0 -52 -21t-20 -53q0 -25 21 -51.5t46 -46t46 -53.5t21 -72q0 -64 -43 -109t-108 -45z" />
    <glyph glyph-name="uni021A" unicode="&#x21a;" horiz-adv-x="322" 
d="M131 -121q0 -41 -29.5 -81t-70.5 -62l-25 27q26 14 47 35.5t28 43.5q-2 -1 -7 -1q-14 0 -24 10.5t-10 26.5q0 20 14.5 34.5t33.5 14.5t31 -12.5t12 -35.5zM145 0h-76l133 600h-105l14 67h286l-14 -67h-106z" />
    <glyph glyph-name="uni021B" unicode="&#x21b;" horiz-adv-x="233" 
d="M79 -121q0 -41 -29.5 -81t-70.5 -62l-25 27q26 14 47 35.5t28 43.5q-2 -1 -7 -1q-14 0 -24 10.5t-10 26.5q0 20 14.5 34.5t33.5 14.5t31 -12.5t12 -35.5zM114 -12q-82 0 -82 71q0 16 4 36l74 328h-49l13 60h49l29 132h69l-29 -132h65l-13 -60h-66l-71 -319q-4 -18 -4 -27
q0 -28 29 -28q18 0 31 13l10 -53q-25 -21 -59 -21z" />
    <glyph glyph-name="uni0237" unicode="&#x237;" horiz-adv-x="180" 
d="M-57 -196q-49 0 -65 34l37 46q5 -19 26 -19q31 0 44 64l124 554h68l-123 -554q-16 -68 -41 -96.5t-70 -28.5z" />
    <glyph glyph-name="hsuperior" unicode="&#x2b0;" horiz-adv-x="287" 
d="M260 326h-53l51 232q3 12 3 18q0 27 -28 27q-32 0 -67 -53l-49 -224h-54l96 434h53l-36 -163q35 51 82 51q28 0 43.5 -14t15.5 -36q0 -2 -3 -29z" />
    <glyph glyph-name="uni02BC" unicode="&#x2bc;" horiz-adv-x="228" 
d="M252 622q0 -44 -33 -89t-79 -68l-28 30q28 15 51 38t31 46h-8q-16 0 -28 12t-12 30q0 23 17 39.5t39 16.5t36 -14.5t14 -40.5z" />
    <glyph glyph-name="circumflex" unicode="&#x2c6;" horiz-adv-x="200" 
d="M269 556h-39l-38 105l-79 -105h-44l98 144h66z" />
    <glyph glyph-name="caron" unicode="&#x2c7;" horiz-adv-x="200" 
d="M204 556h-66l-37 144h40l36 -105l81 105h43z" />
    <glyph glyph-name="uni02C9" unicode="&#x2c9;" horiz-adv-x="248" 
d="M324 591h-247l10 45h247z" />
    <glyph glyph-name="uni02CB" unicode="&#x2cb;" horiz-adv-x="146" 
d="M215 556h-46l-68 144h67z" />
    <glyph glyph-name="breve" unicode="&#x2d8;" horiz-adv-x="238" 
d="M320 613q-58 -61 -132 -61q-75 0 -106 61l39 28q9 -20 29.5 -32t44.5 -12q55 0 92 44z" />
    <glyph glyph-name="dotaccent" unicode="&#x2d9;" horiz-adv-x="104" 
d="M176 606q0 -20 -15 -34.5t-35 -14.5q-17 0 -28.5 11.5t-11.5 28.5q0 20 15 34.5t35 14.5q17 0 28.5 -11.5t11.5 -28.5z" />
    <glyph glyph-name="ring" unicode="&#x2da;" horiz-adv-x="165" 
d="M159 545q-33 0 -53.5 21.5t-20.5 54.5q0 37 27.5 64.5t64.5 27.5q32 0 53 -21.5t21 -54.5q0 -37 -27.5 -64.5t-64.5 -27.5zM161 581q22 0 38 15.5t16 37.5q0 18 -11.5 30.5t-28.5 12.5q-22 0 -38 -15.5t-16 -37.5q0 -18 11 -30.5t29 -12.5z" />
    <glyph glyph-name="ogonek" unicode="&#x2db;" horiz-adv-x="138" 
d="M23 -116l31 -22q-26 -48 -72 -48q-28 0 -45 15t-17 43q0 83 105 150l29 -22q-93 -56 -93 -123q0 -26 26 -26t36 33z" />
    <glyph glyph-name="tilde" unicode="&#x2dc;" horiz-adv-x="226" 
d="M229 554q-21 0 -32 15t-13 32.5t-8 32.5t-18 15q-29 0 -48 -89h-40q31 134 95 134q21 0 32 -15t13 -32.5t8 -32.5t18 -15q28 0 48 89h40q-29 -134 -95 -134z" />
    <glyph glyph-name="hungarumlaut" unicode="&#x2dd;" horiz-adv-x="232" 
d="M216 700l-109 -144h-40l88 144h61zM333 700l-110 -144h-40l88 144h62z" />
    <glyph glyph-name="hookabovecomb" unicode="&#x309;" horiz-adv-x="138" 
d="M211 737l-28 10q20 43 59 43q50 0 50 -48q0 -40 -35 -75h-37q37 32 38 69q2 24 -18 24q-18 0 -29 -23z" />
    <glyph glyph-name="uni037E" unicode="&#x37e;" horiz-adv-x="227" 
d="M123 38q0 -44 -33 -89t-79 -68l-29 31q28 14 51.5 37t30.5 47q-3 -1 -8 -1q-16 0 -27.5 12t-11.5 30q0 23 16.5 39.5t39.5 16.5q21 0 35.5 -14.5t14.5 -40.5zM152 387q-20 0 -34 13.5t-14 33.5q0 23 17 39.5t40 16.5q19 0 33 -14t14 -33q0 -24 -16.5 -40t-39.5 -16z" />
    <glyph glyph-name="tonos" unicode="&#x384;" 
d="M211 567h-36l63 198h73z" />
    <glyph glyph-name="dieresistonos" unicode="&#x385;" 
d="M272 567h-36l63 198h73zM431 608q0 -19 -14.5 -33.5t-34.5 -14.5q-17 0 -28 11t-11 28q0 19 14.5 33t34.5 14q17 0 28 -11t11 -27zM200 608q0 -19 -14.5 -33.5t-34.5 -14.5q-17 0 -28 11t-11 28q0 19 14.5 33t34.5 14q17 0 28 -11t11 -27z" />
    <glyph glyph-name="Alphatonos" unicode="&#x386;" horiz-adv-x="364" 
d="M133 567h-36l63 198h73zM303 0h-75l7 153h-143l-60 -153h-79l278 667h87zM240 220l17 357l-141 -357h124z" />
    <glyph glyph-name="Epsilontonos" unicode="&#x388;" horiz-adv-x="376" 
d="M102 567h-36l63 198h73zM280 0h-248l147 667h248l-15 -67h-172l-50 -225h165l-15 -67h-165l-53 -241h172z" />
    <glyph glyph-name="Etatonos" unicode="&#x389;" horiz-adv-x="460" 
d="M102 567h-36l63 198h73zM342 0h-75l68 309h-160l-68 -309h-75l147 667h75l-64 -290h160l64 290h75z" />
    <glyph glyph-name="Iotatonos" unicode="&#x38a;" horiz-adv-x="225" 
d="M102 567h-36l63 198h73zM107 0h-75l147 667h75z" />
    <glyph glyph-name="Omicrontonos" unicode="&#x38c;" horiz-adv-x="445" 
d="M122 567h-36l63 198h73zM186 -12q-69 0 -102.5 52.5t-33.5 136.5q0 46 9 107t29.5 131t49 128t73 96.5t96.5 38.5q69 0 103 -53.5t34 -137.5q0 -59 -15.5 -139t-44.5 -163t-81.5 -140t-116.5 -57zM191 56q38 0 72.5 50t55.5 121t33.5 142t12.5 121q0 120 -64 120
q-39 0 -73 -50t-55 -121.5t-33 -143t-12 -121.5q0 -118 63 -118z" />
    <glyph glyph-name="Upsilontonos" unicode="&#x38e;" horiz-adv-x="436" 
d="M95 567h-36l63 198h73zM234 0h-75l62 283l-65 384h78l38 -307l174 307h84l-234 -384z" />
    <glyph glyph-name="Omegatonos" unicode="&#x38f;" horiz-adv-x="432" 
d="M122 567h-36l63 198h73zM18 67h80q-43 63 -43 161q0 59 16.5 133.5t45.5 146.5t77 121t104 49q141 0 141 -183q0 -137 -49 -254t-115 -174h72l-14 -67h-132l14 67q58 45 101.5 184t43.5 239q0 63 -14.5 91t-48.5 28q-38 0 -72.5 -48t-55 -117t-32.5 -138t-12 -118
q0 -84 26 -121l-15 -67h-132z" />
    <glyph glyph-name="iotadieresistonos" unicode="&#x390;" horiz-adv-x="190" 
d="M178 567h-36l63 198h73zM337 608q0 -19 -14.5 -33.5t-34.5 -14.5q-17 0 -28 11t-11 28q0 19 14.5 33t34.5 14q17 0 28 -11t11 -27zM106 608q0 -19 -14.5 -33.5t-34.5 -14.5q-17 0 -28 11t-11 28q0 19 14.5 33t34.5 14q17 0 28 -11t11 -27zM84 -12q-45 0 -59 25t-2 79
l85 391h68l-84 -384q-11 -50 19 -50q9 0 15 1l-7 -58q-16 -4 -35 -4z" />
    <glyph glyph-name="Alpha" unicode="&#x391;" horiz-adv-x="364" 
d="M303 0h-75l7 153h-143l-60 -153h-79l278 667h87zM240 220l17 357l-141 -357h124z" />
    <glyph glyph-name="Beta" unicode="&#x392;" horiz-adv-x="403" 
d="M172 0h-163l147 667h117q64 0 99.5 -37.5t35.5 -96.5q0 -69 -34.5 -127t-91.5 -69q33 -10 49.5 -43.5t16.5 -73.5q0 -86 -47 -153t-129 -67zM229 375q46 0 72.5 47.5t26.5 98.5q0 39 -20 59t-55 20h-36l-50 -225h62zM163 67q46 0 77 48t31 110q0 83 -77 83h-42l-53 -241
h64z" />
    <glyph glyph-name="Gamma" unicode="&#x393;" horiz-adv-x="351" 
d="M84 0h-75l147 667h248l-15 -67h-172z" />
    <glyph glyph-name="uni0394" unicode="&#x394;" horiz-adv-x="364" 
d="M303 0h-350l278 667h87zM232 67l25 510l-201 -510h176z" />
    <glyph glyph-name="Epsilon" unicode="&#x395;" horiz-adv-x="352" 
d="M257 0h-248l147 667h248l-15 -67h-172l-50 -225h165l-15 -67h-165l-53 -241h172z" />
    <glyph glyph-name="Zeta" unicode="&#x396;" horiz-adv-x="340" 
d="M253 0h-274l14 66l298 534h-179l14 67h267l-14 -63l-300 -537h189z" />
    <glyph glyph-name="Eta" unicode="&#x397;" horiz-adv-x="436" 
d="M319 0h-75l68 309h-160l-68 -309h-75l147 667h75l-64 -290h160l64 290h75z" />
    <glyph glyph-name="Theta" unicode="&#x398;" horiz-adv-x="434" 
d="M300 308h-139l15 67h138zM175 -12q-69 0 -102.5 52.5t-33.5 136.5q0 46 9 107t29.5 131t49 128t73 96.5t96.5 38.5q69 0 103 -53.5t34 -137.5q0 -59 -15.5 -139t-44.5 -163t-81.5 -140t-116.5 -57zM180 56q38 0 72.5 50t55.5 121t33.5 142t12.5 121q0 120 -64 120
q-39 0 -73 -50t-55 -121.5t-33 -143t-12 -121.5q0 -118 63 -118z" />
    <glyph glyph-name="Iota" unicode="&#x399;" horiz-adv-x="201" 
d="M84 0h-75l147 667h75z" />
    <glyph glyph-name="Kappa" unicode="&#x39a;" horiz-adv-x="418" 
d="M353 0h-81l-79 292l-64 -89l-45 -203h-75l147 667h75l-73 -335l239 335h90l-238 -317z" />
    <glyph glyph-name="Lambda" unicode="&#x39b;" horiz-adv-x="364" 
d="M303 0h-75l29 577l-225 -577h-79l278 667h87z" />
    <glyph glyph-name="Mu" unicode="&#x39c;" horiz-adv-x="558" 
d="M441 0h-74l113 511l-240 -511h-30l-12 511l-114 -511h-75l147 667h100l13 -459l217 459h102z" />
    <glyph glyph-name="Nu" unicode="&#x39d;" horiz-adv-x="436" 
d="M319 0h-72l-58 477l-105 -477h-75l147 667h75l56 -466l104 466h75z" />
    <glyph glyph-name="Xi" unicode="&#x39e;" horiz-adv-x="371" 
d="M407 600h-287l14 67h287zM274 0h-286l14 67h287zM336 308h-273l15 67h272z" />
    <glyph glyph-name="Omicron" unicode="&#x39f;" horiz-adv-x="434" 
d="M175 -12q-69 0 -102.5 52.5t-33.5 136.5q0 46 9 107t29.5 131t49 128t73 96.5t96.5 38.5q69 0 103 -53.5t34 -137.5q0 -59 -15.5 -139t-44.5 -163t-81.5 -140t-116.5 -57zM180 56q38 0 72.5 50t55.5 121t33.5 142t12.5 121q0 120 -64 120q-39 0 -73 -50t-55 -121.5
t-33 -143t-12 -121.5q0 -118 63 -118z" />
    <glyph glyph-name="Pi" unicode="&#x3a0;" horiz-adv-x="436" 
d="M319 0h-75l132 600h-160l-132 -600h-75l147 667h310z" />
    <glyph glyph-name="Rho" unicode="&#x3a1;" horiz-adv-x="387" 
d="M84 0h-75l147 667h125q58 0 94.5 -42t36.5 -110q0 -97 -55.5 -171.5t-153.5 -74.5h-60zM158 336h52q57 0 89.5 53t32.5 121q0 44 -18.5 67t-49.5 23h-47z" />
    <glyph glyph-name="Sigma" unicode="&#x3a3;" horiz-adv-x="313" 
d="M185 600l59 -262l-175 -271h170l-15 -67h-248l16 76l177 274l-59 256l13 61h248l-14 -67h-172z" />
    <glyph glyph-name="Tau" unicode="&#x3a4;" horiz-adv-x="322" 
d="M145 0h-76l133 600h-105l14 67h286l-14 -67h-106z" />
    <glyph glyph-name="Upsilon" unicode="&#x3a5;" horiz-adv-x="372" 
d="M170 0h-75l62 283l-65 384h78l38 -307l174 307h84l-234 -384z" />
    <glyph glyph-name="Phi" unicode="&#x3a6;" horiz-adv-x="585" 
d="M276 0h-76l15 67q-162 25 -162 205q0 52 16.5 105.5t49.5 102.5t89.5 82.5t128.5 38.5l15 66h76l-16 -69q163 -25 163 -204q0 -52 -16.5 -105.5t-49.5 -103t-89.5 -82.5t-128.5 -38zM133 272q0 -118 98 -137l90 396q-51 -8 -89 -35.5t-58.5 -66t-30.5 -78t-10 -79.5z
M494 394q0 117 -97 136l-90 -395q49 8 87 35t59 65t31 78t10 81z" />
    <glyph glyph-name="Chi" unicode="&#x3a7;" horiz-adv-x="368" 
d="M311 0h-80l-41 265l-153 -265h-87l214 343l-60 324h80l35 -254l143 254h88l-204 -331z" />
    <glyph glyph-name="Psi" unicode="&#x3a8;" horiz-adv-x="592" 
d="M280 0h-75l29 127q-154 19 -154 156q0 31 10 73l71 311h76l-74 -323q-7 -30 -7 -55q2 -83 93 -96l108 474h75l-108 -474q122 17 154 151l74 323h75l-76 -336q-22 -96 -87.5 -148.5t-155.5 -58.5z" />
    <glyph glyph-name="uni03A9" unicode="&#x3a9;" horiz-adv-x="419" 
d="M5 67h80q-43 63 -43 161q0 59 16.5 133.5t45.5 146.5t77 121t104 49q141 0 141 -183q0 -137 -49 -254t-115 -174h72l-14 -67h-132l14 67q58 45 101.5 184t43.5 239q0 63 -14.5 91t-48.5 28q-38 0 -72.5 -48t-55 -117t-32.5 -138t-12 -118q0 -84 26 -121l-15 -67h-132z
" />
    <glyph glyph-name="Iotadieresis" unicode="&#x3aa;" horiz-adv-x="201" 
d="M84 0h-75l147 667h75zM335 792q0 -19 -14.5 -33.5t-34.5 -14.5q-16 0 -27 11t-11 28q0 19 14.5 33t34.5 14q16 0 27 -11t11 -27zM195 792q0 -19 -14.5 -33.5t-34.5 -14.5q-17 0 -28 11t-11 28q0 19 14.5 33t34.5 14q17 0 28 -11t11 -27z" />
    <glyph glyph-name="Upsilondieresis" unicode="&#x3ab;" horiz-adv-x="372" 
d="M170 0h-75l62 283l-65 384h78l38 -307l174 307h84l-234 -384zM420 792q0 -19 -14.5 -33.5t-34.5 -14.5q-16 0 -27 11t-11 28q0 19 14.5 33t34.5 14q16 0 27 -11t11 -27zM280 792q0 -19 -14.5 -33.5t-34.5 -14.5q-17 0 -28 11t-11 28q0 19 14.5 33t34.5 14q17 0 28 -11
t11 -27z" />
    <glyph glyph-name="alphatonos" unicode="&#x3ac;" horiz-adv-x="393" 
d="M278 567h-36l63 198h73zM330 50l-8 -58q-14 -4 -34 -4q-41 0 -55.5 20.5t-9.5 60.5q-45 -81 -104 -81q-46 0 -71 38t-25 105q0 48 12 107.5t34 118.5t59.5 98.5t81.5 39.5q30 0 54 -20.5t34 -60.5l15 69h68l-85 -384q-11 -50 18 -50q10 0 16 1zM149 49q23 0 47 23.5
t39 56.5l50 224q-3 34 -21.5 57.5t-42.5 23.5q-39 0 -69.5 -58t-44 -124.5t-13.5 -115.5q0 -87 55 -87z" />
    <glyph glyph-name="epsilontonos" unicode="&#x3ad;" horiz-adv-x="350" 
d="M265 567h-36l63 198h73zM136 -12q-63 0 -95.5 32.5t-32.5 82.5q0 55 36.5 95.5t86.5 49.5q-30 8 -47.5 34.5t-17.5 59.5q0 68 50 110.5t121 42.5q95 0 127 -77l-47 -37q-21 58 -81 58q-43 0 -73 -28t-30 -74q0 -30 17 -47t48 -17h69l-13 -57h-71q-40 0 -72.5 -23.5
t-32.5 -79.5q0 -31 18 -50t50 -19q63 0 114 63l32 -42q-67 -77 -156 -77z" />
    <glyph glyph-name="etatonos" unicode="&#x3ae;" 
d="M274 567h-36l63 198h73zM228 -184h-68l122 555q3 18 3 24q0 39 -38 39q-25 0 -52.5 -24t-47.5 -58l-77 -352h-68l107 483h68l-14 -64q54 76 117 76q37 0 57.5 -19.5t20.5 -54.5q0 -17 -4 -31z" />
    <glyph glyph-name="iotatonos" unicode="&#x3af;" horiz-adv-x="190" 
d="M179 567h-36l63 198h73zM84 -12q-45 0 -59 25t-2 79l85 391h68l-84 -384q-11 -50 19 -50q9 0 15 1l-7 -58q-16 -4 -35 -4z" />
    <glyph glyph-name="upsilondieresistonos" unicode="&#x3b0;" horiz-adv-x="380" 
d="M277 567h-36l63 198h73zM436 608q0 -19 -14.5 -33.5t-34.5 -14.5q-17 0 -28 11t-11 28q0 19 14.5 33t34.5 14q17 0 28 -11t11 -27zM205 608q0 -19 -14.5 -33.5t-34.5 -14.5q-17 0 -28 11t-11 28q0 19 14.5 33t34.5 14q17 0 28 -11t11 -27zM137 -12q-64 0 -91 44t-10 122
l72 329h68l-71 -329q-24 -105 40 -105q57 0 98.5 86.5t41.5 201.5q0 68 -17 133l69 23q19 -60 19 -151q0 -59 -13.5 -119t-38.5 -113.5t-69 -87.5t-98 -34z" />
    <glyph glyph-name="alpha" unicode="&#x3b1;" horiz-adv-x="393" 
d="M330 50l-8 -58q-14 -4 -34 -4q-41 0 -55.5 20.5t-9.5 60.5q-45 -81 -104 -81q-46 0 -71 38t-25 105q0 48 12 107.5t34 118.5t59.5 98.5t81.5 39.5q30 0 54 -20.5t34 -60.5l15 69h68l-85 -384q-11 -50 18 -50q10 0 16 1zM149 49q23 0 47 23.5t39 56.5l50 224
q-3 34 -21.5 57.5t-42.5 23.5q-39 0 -69.5 -58t-44 -124.5t-13.5 -115.5q0 -87 55 -87z" />
    <glyph glyph-name="beta" unicode="&#x3b2;" horiz-adv-x="384" 
d="M172 -12q-32 0 -55.5 20t-32.5 56l-54 -248h-68l141 648q47 213 184 213q112 0 112 -124q0 -69 -33 -129.5t-93 -78.5q30 -11 47 -43.5t17 -81.5q0 -94 -48.5 -163t-116.5 -69zM171 460l-73 -334q2 -32 18.5 -54.5t42.5 -22.5q46 0 76.5 55.5t30.5 117.5q0 44 -16.5 67
t-42.5 23h-18l14 60h15q46 0 76.5 49t30.5 122t-46 73q-73 0 -108 -156z" />
    <glyph glyph-name="gamma" unicode="&#x3b3;" horiz-adv-x="326" 
d="M103 -184h-69l32 147q64 296 -15 520h76q50 -196 15 -380q97 159 146 380h68q-26 -118 -83 -244t-129 -233z" />
    <glyph glyph-name="delta" unicode="&#x3b4;" horiz-adv-x="382" 
d="M149 -12q-63 0 -95.5 45t-32.5 115q0 163 157 282q-44 53 -44 109q0 61 43.5 100.5t106.5 39.5q78 0 112 -54l-42 -44q-21 42 -73 42q-34 0 -57 -23t-23 -56q0 -22 14.5 -44t35.5 -43.5t42 -48t35.5 -67.5t14.5 -92q0 -36 -12.5 -79.5t-35.5 -85t-61.5 -69t-84.5 -27.5z
M277 244q0 75 -62 145q-122 -97 -122 -237q0 -46 17 -74.5t47 -28.5q53 0 86.5 67t33.5 128z" />
    <glyph glyph-name="epsilon" unicode="&#x3b5;" horiz-adv-x="350" 
d="M136 -12q-63 0 -95.5 32.5t-32.5 82.5q0 55 36.5 95.5t86.5 49.5q-30 8 -47.5 34.5t-17.5 59.5q0 68 50 110.5t121 42.5q95 0 127 -77l-47 -37q-21 58 -81 58q-43 0 -73 -28t-30 -74q0 -30 17 -47t48 -17h69l-13 -57h-71q-40 0 -72.5 -23.5t-32.5 -79.5q0 -31 18 -50
t50 -19q63 0 114 63l32 -42q-67 -77 -156 -77z" />
    <glyph glyph-name="zeta" unicode="&#x3b6;" horiz-adv-x="317" 
d="M163 -34q0 22 -28 22q-57 0 -87.5 42.5t-30.5 105.5q0 43 11.5 90t40 108t87 132t141.5 141h-172l13 60h241l-11 -52q-123 -107 -200 -233t-77 -233q0 -42 18 -71t55 -29q67 0 67 -57q0 -55 -74 -149h-70q76 84 76 123z" />
    <glyph glyph-name="eta" unicode="&#x3b7;" 
d="M228 -184h-68l122 555q3 18 3 24q0 39 -38 39q-25 0 -52.5 -24t-47.5 -58l-77 -352h-68l107 483h68l-14 -64q54 76 117 76q37 0 57.5 -19.5t20.5 -54.5q0 -17 -4 -31z" />
    <glyph glyph-name="theta" unicode="&#x3b8;" horiz-adv-x="382" 
d="M153 -12q-56 0 -89 45.5t-33 138.5q0 107 28.5 222t85 200t124.5 85q56 0 88.5 -46.5t32.5 -138.5q0 -106 -28 -221t-84.5 -200t-124.5 -85zM156 49q42 0 78 73.5t61 182.5h-180q-16 -94 -16 -152q0 -104 57 -104zM265 618q-42 0 -77.5 -72.5t-60.5 -180.5h179
q16 91 16 148q0 105 -57 105z" />
    <glyph glyph-name="iota" unicode="&#x3b9;" horiz-adv-x="190" 
d="M84 -12q-45 0 -59 25t-2 79l85 391h68l-84 -384q-11 -50 19 -50q9 0 15 1l-7 -58q-16 -4 -35 -4z" />
    <glyph glyph-name="kappa" unicode="&#x3ba;" horiz-adv-x="361" 
d="M291 0h-72l-44 222l-78 -99l-27 -123h-68l107 483h68l-58 -262l204 262h76l-171 -216z" />
    <glyph glyph-name="lambda" unicode="&#x3bb;" horiz-adv-x="326" 
d="M130 612l1 60q19 7 43 7q39 0 58 -19.5t20 -70.5l10 -589h-71l10 396l-171 -396h-75l231 498v75q-1 25 -8 35t-24 10q-14 0 -24 -6z" />
    <glyph glyph-name="uni03BC" unicode="&#x3bc;" horiz-adv-x="387" 
d="M73 11l-43 -195h-68l147 667h68l-82 -372q-14 -64 35 -64q51 0 98 79l79 357h68l-85 -384q-6 -25 -2 -37.5t21 -12.5q9 0 15 1l-8 -58q-14 -4 -34 -4q-39 0 -52.5 20t-8.5 64q-20 -38 -47.5 -61t-56.5 -23t-44 23z" />
    <glyph glyph-name="nu" unicode="&#x3bd;" horiz-adv-x="326" 
d="M140 0h-69l-10 483h74l-7 -405q110 180 160 405h68q-26 -119 -84.5 -247.5t-131.5 -235.5z" />
    <glyph glyph-name="xi" unicode="&#x3be;" horiz-adv-x="317" 
d="M139 -12q-59 0 -91.5 40.5t-32.5 100.5q0 77 36 131t100 74q-61 20 -61 108q0 102 105 165h-66l13 60h227l-13 -60h-110q-38 -24 -60.5 -63.5t-22.5 -85.5q0 -41 17.5 -63t47.5 -22h69l-13 -60h-69q-51 0 -88 -45.5t-37 -122.5q0 -39 18 -67.5t56 -28.5q67 0 67 -57
q0 -55 -74 -149h-65q71 82 71 123q0 22 -24 22z" />
    <glyph glyph-name="omicron" unicode="&#x3bf;" horiz-adv-x="382" 
d="M150 -12q-60 0 -93 39.5t-33 117.5q0 74 22 152t71.5 138t113.5 60q60 0 92.5 -39t32.5 -118q0 -74 -22 -152t-71 -138t-113 -60zM154 49q39 0 71 54.5t46.5 119.5t14.5 115q0 96 -59 96q-39 0 -71.5 -55t-47 -120t-14.5 -115q0 -95 60 -95z" />
    <glyph glyph-name="pi" unicode="&#x3c0;" horiz-adv-x="406" 
d="M282 0h-68l93 423h-130l-92 -423h-69l93 423h-49l13 60h364l-13 -60h-49z" />
    <glyph glyph-name="rho" unicode="&#x3c1;" horiz-adv-x="384" 
d="M173 -12q-66 0 -88 81l-55 -253h-68l93 426q24 111 74 182t119 71q55 0 83.5 -40.5t28.5 -106.5q0 -46 -12 -105t-33.5 -117.5t-59 -98t-82.5 -39.5zM162 49q39 0 69.5 58t44 124.5t13.5 115.5q0 87 -48 87q-38 0 -68.5 -52.5t-49.5 -139.5l-24 -112q2 -32 20.5 -56.5
t42.5 -24.5z" />
    <glyph glyph-name="sigma1" unicode="&#x3c2;" horiz-adv-x="310" 
d="M133 -12q-43 0 -75.5 43.5t-32.5 122.5q0 52 14 109.5t39 110t67 87t91 34.5q66 0 100 -49l-38 -50q-20 38 -60 38q-44 0 -77.5 -51t-48.5 -113t-15 -115t19 -79.5t46 -26.5q66 0 66 -56q0 -55 -73 -150h-68q77 83 77 123q0 22 -31 22z" />
    <glyph glyph-name="sigma" unicode="&#x3c3;" horiz-adv-x="382" 
d="M350 316q0 -47 -12.5 -101.5t-36 -106.5t-63.5 -86t-88 -34q-60 0 -93 39.5t-33 117.5q0 54 14.5 111.5t41.5 109t72 84.5t99 33h168l-14 -61h-79q24 -44 24 -106zM284 327q0 64 -17 95h-25q-35 0 -65 -29.5t-47 -73.5t-26.5 -90t-9.5 -85q0 -95 60 -95q39 0 70.5 54.5
t45.5 116.5t14 107z" />
    <glyph glyph-name="tau" unicode="&#x3c4;" horiz-adv-x="269" 
d="M128 -12q-45 0 -59 25t-2 79l72 331h-85l13 60h239l-13 -60h-86l-70 -321q-12 -53 18 -53q21 0 36 17l11 -50q-31 -28 -74 -28z" />
    <glyph glyph-name="upsilon" unicode="&#x3c5;" horiz-adv-x="380" 
d="M137 -12q-64 0 -91 44t-10 122l72 329h68l-71 -329q-24 -105 40 -105q57 0 98.5 86.5t41.5 201.5q0 68 -17 133l69 23q19 -60 19 -151q0 -59 -13.5 -119t-38.5 -113.5t-69 -87.5t-98 -34z" />
    <glyph glyph-name="phi" unicode="&#x3c6;" horiz-adv-x="531" 
d="M503 307q0 -37 -9 -77t-29 -81.5t-49 -75t-74 -57t-98 -27.5l-38 -173h-69l38 175q-76 11 -112 61.5t-36 126.5q0 99 47 185t148 131l19 -53q-71 -35 -106 -106t-35 -152q0 -115 89 -132l97 443h34q93 0 138 -52.5t45 -135.5zM341 432l-83 -380q41 7 73.5 30.5t50.5 52.5
t29.5 63.5t15 59t3.5 43.5q0 54 -21.5 89.5t-67.5 41.5z" />
    <glyph glyph-name="chi" unicode="&#x3c7;" horiz-adv-x="326" 
d="M219 -184h-69l-20 267l-139 -267h-73l183 337l-31 330h68l18 -259l131 259h72l-175 -330z" />
    <glyph glyph-name="psi" unicode="&#x3c8;" horiz-adv-x="531" 
d="M206 -184h-69l38 175q-134 18 -134 145q0 41 11 90l56 257h68l-58 -266q-10 -47 -10 -76q1 -80 80 -90l136 616h69l-135 -616q54 8 89.5 46t53.5 120l58 266h68l-61 -277q-45 -206 -222 -217z" />
    <glyph glyph-name="omega" unicode="&#x3c9;" horiz-adv-x="576" 
d="M547 314q0 -42 -12 -95t-33.5 -106t-60 -89t-85.5 -36q-48 0 -73 30t-25 85q-23 -55 -57.5 -85t-73.5 -30q-52 0 -78.5 43.5t-26.5 111.5q0 111 52 212.5t128 139.5l39 -41q-67 -35 -107.5 -125t-40.5 -183q0 -97 46 -97q70 0 114 193l27 123h68l-27 -123
q-44 -193 32 -193q36 0 66 51.5t43.5 110t13.5 98.5q0 109 -47 145l55 41q30 -21 46.5 -72.5t16.5 -108.5z" />
    <glyph glyph-name="iotadieresis" unicode="&#x3ca;" horiz-adv-x="190" 
d="M286 608q0 -19 -14.5 -33.5t-34.5 -14.5q-16 0 -27 11t-11 28q0 19 14.5 33t34.5 14q16 0 27 -11t11 -27zM146 608q0 -19 -14.5 -33.5t-34.5 -14.5q-17 0 -28 11t-11 28q0 19 14.5 33t34.5 14q17 0 28 -11t11 -27zM84 -12q-45 0 -59 25t-2 79l85 391h68l-84 -384
q-11 -50 19 -50q9 0 15 1l-7 -58q-16 -4 -35 -4z" />
    <glyph glyph-name="upsilondieresis" unicode="&#x3cb;" horiz-adv-x="380" 
d="M387 608q0 -19 -14.5 -33.5t-34.5 -14.5q-16 0 -27 11t-11 28q0 19 14.5 33t34.5 14q16 0 27 -11t11 -27zM247 608q0 -19 -14.5 -33.5t-34.5 -14.5q-17 0 -28 11t-11 28q0 19 14.5 33t34.5 14q17 0 28 -11t11 -27zM137 -12q-64 0 -91 44t-10 122l72 329h68l-71 -329
q-24 -105 40 -105q57 0 98.5 86.5t41.5 201.5q0 68 -17 133l69 23q19 -60 19 -151q0 -59 -13.5 -119t-38.5 -113.5t-69 -87.5t-98 -34z" />
    <glyph glyph-name="omicrontonos" unicode="&#x3cc;" horiz-adv-x="382" 
d="M276 567h-36l63 198h73zM150 -12q-60 0 -93 39.5t-33 117.5q0 74 22 152t71.5 138t113.5 60q60 0 92.5 -39t32.5 -118q0 -74 -22 -152t-71 -138t-113 -60zM154 49q39 0 71 54.5t46.5 119.5t14.5 115q0 96 -59 96q-39 0 -71.5 -55t-47 -120t-14.5 -115q0 -95 60 -95z" />
    <glyph glyph-name="upsilontonos" unicode="&#x3cd;" horiz-adv-x="380" 
d="M279 567h-36l63 198h73zM137 -12q-64 0 -91 44t-10 122l72 329h68l-71 -329q-24 -105 40 -105q57 0 98.5 86.5t41.5 201.5q0 68 -17 133l69 23q19 -60 19 -151q0 -59 -13.5 -119t-38.5 -113.5t-69 -87.5t-98 -34z" />
    <glyph glyph-name="omegatonos" unicode="&#x3ce;" horiz-adv-x="576" 
d="M373 567h-36l63 198h73zM547 314q0 -42 -12 -95t-33.5 -106t-60 -89t-85.5 -36q-48 0 -73 30t-25 85q-23 -55 -57.5 -85t-73.5 -30q-52 0 -78.5 43.5t-26.5 111.5q0 111 52 212.5t128 139.5l39 -41q-67 -35 -107.5 -125t-40.5 -183q0 -97 46 -97q70 0 114 193l27 123h68
l-27 -123q-44 -193 32 -193q36 0 66 51.5t43.5 110t13.5 98.5q0 109 -47 145l55 41q30 -21 46.5 -72.5t16.5 -108.5z" />
    <glyph glyph-name="afii10023" unicode="&#x401;" horiz-adv-x="352" 
d="M416 775q0 -19 -14.5 -33.5t-34.5 -14.5q-16 0 -27 11t-11 28q0 19 14.5 33t34.5 14q16 0 27 -11t11 -27zM276 775q0 -19 -14.5 -33.5t-34.5 -14.5q-17 0 -28 11t-11 28q0 19 14.5 33t34.5 14q17 0 28 -11t11 -27zM257 0h-248l147 667h248l-15 -67h-172l-50 -225h165
l-15 -67h-165l-53 -241h172z" />
    <glyph glyph-name="afii10051" unicode="&#x402;" horiz-adv-x="476" 
d="M218 -12l14 68q85 0 111 117l12 53q13 59 -6.5 95.5t-67.5 36.5q-35 0 -59 -7l-77 -351h-76l133 600h-106l15 67h286l-14 -67h-106l-40 -182q35 7 68 7q81 0 112.5 -57t13.5 -142l-13 -53q-21 -97 -74.5 -141t-125.5 -44z" />
    <glyph glyph-name="afii10052" unicode="&#x403;" horiz-adv-x="351" 
d="M442 867l-132 -144h-48l111 144h69zM84 0h-75l147 667h248l-15 -67h-172z" />
    <glyph glyph-name="afii10053" unicode="&#x404;" horiz-adv-x="390" 
d="M175 -12q-65 0 -100.5 48t-35.5 141q0 61 15 141t44 163.5t81 140t117 56.5q62 0 93 -42.5t37 -111.5l-71 -14q-8 100 -65 100q-47 0 -84 -67t-61 -168h187l-15 -67h-186q-14 -76 -14 -134q0 -63 15.5 -90.5t47.5 -27.5q47 0 94 85l60 -28q-66 -125 -159 -125z" />
    <glyph glyph-name="afii10054" unicode="&#x405;" horiz-adv-x="354" 
d="M125 -12q-44 0 -83 19t-59 50l49 55q14 -25 40 -40.5t53 -15.5q42 0 73.5 36t31.5 96q0 35 -22 72t-48 65t-48 71t-22 89q0 81 52.5 137t123.5 56q80 0 123 -55l-43 -56q-30 43 -81 43q-42 0 -69 -34t-27 -80q0 -26 14.5 -53.5t34.5 -53l40.5 -53t35 -63.5t14.5 -74
q0 -90 -52.5 -150.5t-130.5 -60.5z" />
    <glyph glyph-name="afii10055" unicode="&#x406;" horiz-adv-x="201" 
d="M84 0h-75l147 667h75z" />
    <glyph glyph-name="afii10056" unicode="&#x407;" horiz-adv-x="201" 
d="M332 775q0 -19 -14.5 -33.5t-34.5 -14.5q-16 0 -27 11t-11 28q0 19 14.5 33t34.5 14q16 0 27 -11t11 -27zM192 775q0 -19 -14.5 -33.5t-34.5 -14.5q-17 0 -28 11t-11 28q0 19 14.5 33t34.5 14q17 0 28 -11t11 -27zM84 0h-75l147 667h75z" />
    <glyph glyph-name="afii10057" unicode="&#x408;" horiz-adv-x="321" 
d="M76 -12q-77 0 -112 50l37 58q23 -40 70 -40q37 0 58.5 21t31.5 68l116 522h75l-116 -525q-18 -80 -56 -117t-104 -37z" />
    <glyph glyph-name="afii10058" unicode="&#x409;" horiz-adv-x="622" 
d="M-37 -12l14 68q27 0 46 15t44 69.5t55 159.5l104 367h240l-59 -269h53q66 0 99.5 -48.5t26.5 -123.5q-7 -94 -60.5 -160t-144.5 -66h-137l132 600h-94l-86 -302q-28 -99 -56 -163t-58 -95t-56.5 -41.5t-62.5 -10.5zM443 331h-51l-58 -264h53q50 0 82 44.5t38 108.5
q6 52 -10.5 81.5t-53.5 29.5z" />
    <glyph glyph-name="afii10059" unicode="&#x40a;" horiz-adv-x="622" 
d="M374 0h-137l68 309h-160l-68 -309h-75l146 667h76l-64 -290h160l64 290h75l-64 -290h54q66 0 99.5 -46t26.5 -120q-6 -86 -60 -148.5t-141 -62.5zM431 309h-50l-54 -242h53q46 0 78 41t38 97q11 104 -65 104z" />
    <glyph glyph-name="afii10060" unicode="&#x40b;" horiz-adv-x="476" 
d="M298 0l50 226q13 60 -3 96t-64 36q-35 0 -59 -7l-77 -351h-76l133 600h-106l15 67h286l-14 -67h-106l-40 -182q35 7 68 7q80 0 108.5 -56.5t9.5 -142.5l-50 -226h-75z" />
    <glyph glyph-name="afii10061" unicode="&#x40c;" horiz-adv-x="418" 
d="M463 867l-132 -144h-48l111 144h69zM353 0h-81l-79 292l-64 -89l-45 -203h-75l147 667h75l-73 -335l239 335h90l-238 -317z" />
    <glyph glyph-name="afii10062" unicode="&#x40e;" horiz-adv-x="372" 
d="M22 -12q-45 0 -76 23l34 64q17 -18 49 -18q36 0 59 46l43 82l-40 482h78l26 -367l188 367h82l-308 -587q-49 -92 -135 -92zM417 780q-58 -61 -132 -61q-75 0 -106 61l39 28q9 -20 29.5 -32t44.5 -12q55 0 92 44z" />
    <glyph glyph-name="afii10145" unicode="&#x40f;" horiz-adv-x="436" 
d="M98 -129l28 129h-117l147 667h75l-132 -600h160l132 600h75l-147 -667h-117l-29 -129h-75z" />
    <glyph glyph-name="afii10017" unicode="&#x410;" horiz-adv-x="364" 
d="M303 0h-75l7 153h-143l-60 -153h-79l278 667h87zM240 220l17 357l-141 -357h124z" />
    <glyph glyph-name="afii10018" unicode="&#x411;" horiz-adv-x="387" 
d="M156 667h261l-14 -67h-187l-44 -202h50q58 0 94.5 -42t36.5 -109q0 -62 -22 -117t-71 -92.5t-116 -37.5h-135zM204 331h-47l-58 -264h52q57 0 89.5 53t32.5 121q0 45 -19 67.5t-50 22.5z" />
    <glyph glyph-name="afii10019" unicode="&#x412;" horiz-adv-x="403" 
d="M172 0h-163l147 667h117q64 0 99.5 -37.5t35.5 -96.5q0 -69 -34.5 -127t-91.5 -69q33 -10 49.5 -43.5t16.5 -73.5q0 -86 -47 -153t-129 -67zM229 375q46 0 72.5 47.5t26.5 98.5q0 39 -20 59t-55 20h-36l-50 -225h62zM163 67q46 0 77 48t31 110q0 83 -77 83h-42l-53 -241
h64z" />
    <glyph glyph-name="afii10020" unicode="&#x413;" horiz-adv-x="351" 
d="M84 0h-75l147 667h248l-15 -67h-172z" />
    <glyph glyph-name="afii10021" unicode="&#x414;" horiz-adv-x="455" 
d="M-64 -123l40 183q29 5 47 18.5t45 70t58 167.5l99 351h240l-132 -600h60l-42 -190h-75l26 123h-264l-27 -123h-75zM281 600l-82 -291q-52 -181 -117 -242h176l118 533h-95z" />
    <glyph glyph-name="afii10022" unicode="&#x415;" horiz-adv-x="352" 
d="M257 0h-248l147 667h248l-15 -67h-172l-50 -225h165l-15 -67h-165l-53 -241h172z" />
    <glyph glyph-name="afii10024" unicode="&#x416;" horiz-adv-x="574" 
d="M43 0h-90l259 350l-100 317h80l83 -304l67 304h75l-63 -285l205 285h88l-238 -317l104 -350h-83l-74 294l-30 -40l-55 -254h-76l56 254l-9 31z" />
    <glyph glyph-name="afii10025" unicode="&#x417;" horiz-adv-x="390" 
d="M155 -12q-59 0 -102 34.5t-57 99.5l65 34q9 -49 32.5 -74.5t57.5 -25.5q50 0 80.5 52.5t30.5 112.5q0 45 -21.5 66t-56.5 21h-64l16 68h69q57 0 87 47t30 110q0 76 -68 76q-60 0 -100 -71l-46 43q63 96 158 96q63 0 101 -34.5t38 -98.5q0 -69 -42.5 -130.5t-104.5 -73.5
q42 -13 61 -47t19 -77q0 -89 -52.5 -158.5t-130.5 -69.5z" />
    <glyph glyph-name="afii10026" unicode="&#x418;" horiz-adv-x="436" 
d="M81 0h-72l147 667h76l-103 -466l262 466h75l-147 -667h-75l104 477z" />
    <glyph glyph-name="afii10027" unicode="&#x419;" horiz-adv-x="436" 
d="M81 0h-72l147 667h76l-103 -466l262 466h75l-147 -667h-75l104 477zM451 780q-58 -61 -132 -61q-75 0 -106 61l39 28q9 -20 29.5 -32t44.5 -12q55 0 92 44z" />
    <glyph glyph-name="afii10028" unicode="&#x41a;" horiz-adv-x="418" 
d="M353 0h-81l-79 292l-64 -89l-45 -203h-75l147 667h75l-73 -335l239 335h90l-238 -317z" />
    <glyph glyph-name="afii10029" unicode="&#x41b;" horiz-adv-x="436" 
d="M-38 -12l14 68q27 0 46.5 15.5t44.5 71t55 161.5l103 363h240l-146 -667h-75l131 600h-94l-85 -302q-28 -100 -56 -163.5t-58 -94.5t-56.5 -41.5t-63.5 -10.5z" />
    <glyph glyph-name="afii10030" unicode="&#x41c;" horiz-adv-x="558" 
d="M441 0h-74l113 511l-240 -511h-30l-12 511l-114 -511h-75l147 667h100l13 -459l217 459h102z" />
    <glyph glyph-name="afii10031" unicode="&#x41d;" horiz-adv-x="436" 
d="M319 0h-75l68 309h-160l-68 -309h-75l147 667h75l-64 -290h160l64 290h75z" />
    <glyph glyph-name="afii10032" unicode="&#x41e;" horiz-adv-x="434" 
d="M175 -12q-69 0 -102.5 52.5t-33.5 136.5q0 46 9 107t29.5 131t49 128t73 96.5t96.5 38.5q69 0 103 -53.5t34 -137.5q0 -59 -15.5 -139t-44.5 -163t-81.5 -140t-116.5 -57zM180 56q38 0 72.5 50t55.5 121t33.5 142t12.5 121q0 120 -64 120q-39 0 -73 -50t-55 -121.5
t-33 -143t-12 -121.5q0 -118 63 -118z" />
    <glyph glyph-name="afii10033" unicode="&#x41f;" horiz-adv-x="436" 
d="M319 0h-75l132 600h-160l-132 -600h-75l147 667h310z" />
    <glyph glyph-name="afii10034" unicode="&#x420;" horiz-adv-x="387" 
d="M84 0h-75l147 667h125q58 0 94.5 -42t36.5 -110q0 -97 -55.5 -171.5t-153.5 -74.5h-60zM158 336h52q57 0 89.5 53t32.5 121q0 44 -18.5 67t-49.5 23h-47z" />
    <glyph glyph-name="afii10035" unicode="&#x421;" horiz-adv-x="390" 
d="M175 -12q-65 0 -100.5 48t-35.5 141q0 61 15 141t44 163.5t81 140t117 56.5q62 0 93 -42.5t37 -111.5l-71 -14q-8 100 -65 100q-40 0 -74.5 -51.5t-55 -124.5t-32 -143.5t-11.5 -116.5q0 -63 15.5 -90.5t47.5 -27.5q47 0 94 85l60 -28q-66 -125 -159 -125z" />
    <glyph glyph-name="afii10036" unicode="&#x422;" horiz-adv-x="322" 
d="M145 0h-76l133 600h-105l14 67h286l-14 -67h-106z" />
    <glyph glyph-name="afii10037" unicode="&#x423;" horiz-adv-x="372" 
d="M22 -12q-45 0 -76 23l34 64q17 -18 49 -18q36 0 59 46l43 82l-40 482h78l26 -367l188 367h82l-308 -587q-49 -92 -135 -92z" />
    <glyph glyph-name="afii10038" unicode="&#x424;" horiz-adv-x="585" 
d="M276 0h-76l15 67q-162 25 -162 205q0 52 16.5 105.5t49.5 102.5t89.5 82.5t128.5 38.5l15 66h76l-16 -69q163 -25 163 -204q0 -52 -16.5 -105.5t-49.5 -103t-89.5 -82.5t-128.5 -38zM133 272q0 -118 98 -137l90 396q-51 -8 -89 -35.5t-58.5 -66t-30.5 -78t-10 -79.5z
M494 394q0 117 -97 136l-90 -395q49 8 87 35t59 65t31 78t10 81z" />
    <glyph glyph-name="afii10039" unicode="&#x425;" horiz-adv-x="368" 
d="M311 0h-80l-41 265l-153 -265h-87l214 343l-60 324h80l35 -254l143 254h88l-204 -331z" />
    <glyph glyph-name="afii10040" unicode="&#x426;" horiz-adv-x="455" 
d="M276 -123l27 123h-294l147 667h75l-132 -600h160l132 600h75l-132 -600h60l-42 -190h-76z" />
    <glyph glyph-name="afii10041" unicode="&#x427;" horiz-adv-x="415" 
d="M216 667l-43 -199q-14 -60 2.5 -96t64.5 -36q34 0 58 7l71 324h76l-147 -667h-75l60 276q-29 -7 -68 -7q-80 0 -108.5 56.5t-8.5 142.5l43 199h75z" />
    <glyph glyph-name="afii10042" unicode="&#x428;" horiz-adv-x="629" 
d="M584 667h75l-147 -667h-502l146 667h75l-131 -600h138l132 600h75l-131 -600h138z" />
    <glyph glyph-name="afii10043" unicode="&#x429;" horiz-adv-x="648" 
d="M584 667h75l-132 -600h57l-42 -190h-76l27 123h-483l146 667h75l-131 -600h138l132 600h75l-131 -600h138z" />
    <glyph glyph-name="afii10044" unicode="&#x42a;" horiz-adv-x="448" 
d="M205 0h-136l132 600h-105l15 67h180l-59 -269h50q59 0 95 -42t36 -109q0 -98 -55 -172.5t-153 -74.5zM265 331h-47l-59 -264h52q57 0 90 53.5t33 120.5q0 45 -19 67.5t-50 22.5z" />
    <glyph glyph-name="afii10045" unicode="&#x42b;" horiz-adv-x="563" 
d="M446 0h-75l147 667h75zM156 667h75l-59 -269h50q58 0 94.5 -42t36.5 -109q0 -62 -22 -117t-71 -92.5t-116 -37.5h-135zM204 331h-47l-58 -264h52q57 0 89.5 53t32.5 121q0 45 -19 67.5t-50 22.5z" />
    <glyph glyph-name="afii10046" unicode="&#x42c;" horiz-adv-x="387" 
d="M156 667h75l-59 -269h50q58 0 94.5 -42t36.5 -109q0 -62 -22 -117t-71 -92.5t-116 -37.5h-135zM204 331h-47l-58 -264h52q57 0 89.5 53t32.5 121q0 45 -19 67.5t-50 22.5z" />
    <glyph glyph-name="afii10047" unicode="&#x42d;" horiz-adv-x="390" 
d="M253 678q65 0 100.5 -48t35.5 -141q0 -61 -15 -141t-44 -163.5t-81 -140t-117 -56.5q-62 0 -93 42.5t-37 111.5l71 14q8 -100 65 -100q49 0 87 72.5t62 179.5h-188l15 67h186q11 72 11 117q0 63 -15.5 90.5t-47.5 27.5q-47 0 -94 -85l-60 28q66 125 159 125z" />
    <glyph glyph-name="afii10048" unicode="&#x42e;" horiz-adv-x="613" 
d="M355 -12q-69 0 -102.5 52.5t-33.5 136.5q0 58 13 132h-79l-69 -309h-75l147 667h75l-64 -290h80q20 80 48.5 144t76 110.5t104.5 46.5q69 0 103 -53.5t34 -137.5q0 -59 -15.5 -139t-44.5 -163t-81.5 -140t-116.5 -57zM360 56q38 0 72.5 50t55.5 121t33.5 142t12.5 121
q0 120 -64 120q-39 0 -73 -50t-55 -121.5t-33 -143t-12 -121.5q0 -118 63 -118z" />
    <glyph glyph-name="afii10049" unicode="&#x42f;" horiz-adv-x="409" 
d="M77 0h-87l164 290q-59 42 -59 130q0 62 22 117t71 92.5t116 37.5h135l-147 -667h-75l59 269h-54zM243 336h47l59 264h-52q-57 0 -89.5 -53t-32.5 -121q0 -45 18.5 -67.5t49.5 -22.5z" />
    <glyph glyph-name="afii10065" unicode="&#x430;" horiz-adv-x="384" 
d="M210 495q30 0 54 -20.5t34 -60.5l15 69h68l-107 -483h-68l14 62q-44 -74 -101 -74q-46 0 -71 37t-25 106q0 48 12 107.5t34 118.5t59.5 98.5t81.5 39.5zM221 434q-39 0 -69.5 -58t-44 -124.5t-13.5 -115.5q0 -87 55 -87q23 0 47 23.5t39 56.5l50 224q-3 34 -21.5 57.5
t-42.5 23.5z" />
    <glyph glyph-name="afii10066" unicode="&#x431;" horiz-adv-x="382" 
d="M154 49q39 0 71 54.5t46.5 119.5t14.5 115q0 96 -59 96q-39 0 -71.5 -55t-47 -120t-14.5 -115q0 -95 60 -95zM150 -12q-60 0 -93 39.5t-33 117.5q0 84 53 267q27 87 76 138t143 72q52 12 59 45h68q-17 -80 -135 -108q-69 -16 -103 -48.5t-55 -96.5q47 81 122 81
q45 0 74.5 -40t29.5 -117q0 -74 -22 -152t-71 -138t-113 -60z" />
    <glyph glyph-name="afii10067" unicode="&#x432;" horiz-adv-x="361" 
d="M160 0h-158l106 483h121q55 0 87.5 -24.5t33.5 -70.5q0 -48 -25.5 -87.5t-75.5 -54.5q58 -20 58 -82q1 -65 -37 -114.5t-110 -49.5zM82 55h66q43 0 66.5 33.5t22.5 73.5q0 58 -62 58h-57zM130 276h65q38 0 59.5 30.5t21.5 65.5q0 56 -66 56h-46z" />
    <glyph glyph-name="afii10068" unicode="&#x433;" horiz-adv-x="291" 
d="M321 483l-14 -60h-144l-93 -423h-68l106 483h213z" />
    <glyph glyph-name="afii10069" unicode="&#x434;" horiz-adv-x="397" 
d="M-62 -123l38 176q18 5 28 10t24.5 21t28 49.5t29.5 86.5l75 263h213l-93 -423h54l-41 -183h-68l27 123h-221l-27 -123h-67zM213 423l-60 -208q-34 -116 -81 -155h141l79 363h-79z" />
    <glyph glyph-name="afii10070" unicode="&#x435;" horiz-adv-x="373" 
d="M164 -12q-66 0 -103 42t-37 124q0 40 11.5 94.5t34.5 111.5t65 96t94 39q123 0 123 -149q0 -55 -18 -127h-236q-8 -32 -8 -68q0 -48 20.5 -77t62.5 -29q45 0 87 54l31 -43q-56 -68 -127 -68zM108 270h170q10 43 10 75q0 40 -16.5 66.5t-47.5 26.5q-45 0 -75 -52t-41 -116
z" />
    <glyph glyph-name="afii10072" unicode="&#x436;" horiz-adv-x="473" 
d="M40 0h-78l179 267l-74 216h70l70 -213l47 213h69l-44 -198l154 198h77l-170 -216l63 -267h-70l-44 223l-32 -40l-40 -183h-69l40 183l-12 33z" />
    <glyph glyph-name="afii10073" unicode="&#x437;" horiz-adv-x="350" 
d="M217 495q61 0 92 -31.5t31 -81.5q0 -56 -34 -94t-84 -47q31 -7 50.5 -36t19.5 -62q0 -69 -50.5 -112t-120.5 -43q-48 0 -82.5 21t-49.5 58l46 36q23 -59 86 -59q44 0 74.5 28.5t30.5 75.5q0 30 -20 49t-52 19h-67l12 57h68q40 0 71.5 25t31.5 74q0 67 -63 67
q-65 0 -115 -62l-32 42q66 76 157 76z" />
    <glyph glyph-name="afii10074" unicode="&#x438;" 
d="M73 0h-71l106 483h68l-73 -334l197 334h74l-106 -483h-68l74 342z" />
    <glyph glyph-name="afii10075" unicode="&#x439;" 
d="M73 0h-71l106 483h68l-73 -334l197 334h74l-106 -483h-68l74 342zM386 613q-58 -61 -132 -61q-75 0 -106 61l39 28q9 -20 29.5 -32t44.5 -12q55 0 92 44z" />
    <glyph glyph-name="afii10076" unicode="&#x43a;" horiz-adv-x="361" 
d="M291 0h-72l-44 222l-78 -99l-27 -123h-68l107 483h68l-58 -262l204 262h76l-171 -216z" />
    <glyph glyph-name="afii10077" unicode="&#x43b;" 
d="M-38 -12l13 61q32 0 56.5 34t54.5 137l75 263h213l-106 -483h-68l92 423h-79l-60 -208q-37 -131 -82 -179t-109 -48z" />
    <glyph glyph-name="afii10078" unicode="&#x43c;" horiz-adv-x="479" 
d="M369 0h-67l76 349l-177 -349h-31l-24 349l-76 -349h-68l106 483h86l23 -323l167 323h91z" />
    <glyph glyph-name="afii10079" unicode="&#x43d;" 
d="M70 0h-68l106 483h68l-44 -201h129l45 201h68l-106 -483h-68l48 222h-129z" />
    <glyph glyph-name="afii10080" unicode="&#x43e;" horiz-adv-x="382" 
d="M150 -12q-60 0 -93 39.5t-33 117.5q0 74 22 152t71.5 138t113.5 60q60 0 92.5 -39t32.5 -118q0 -74 -22 -152t-71 -138t-113 -60zM154 49q39 0 71 54.5t46.5 119.5t14.5 115q0 96 -59 96q-39 0 -71.5 -55t-47 -120t-14.5 -115q0 -95 60 -95z" />
    <glyph glyph-name="afii10081" unicode="&#x43f;" 
d="M268 0h-68l92 423h-129l-93 -423h-68l106 483h266z" />
    <glyph glyph-name="afii10082" unicode="&#x440;" horiz-adv-x="384" 
d="M173 -12q-66 0 -88 81l-56 -253h-67l147 667h68l-14 -62q44 74 101 74q46 0 71 -37.5t25 -105.5q0 -48 -12 -107.5t-33.5 -118.5t-59 -98.5t-82.5 -39.5zM162 49q39 0 69.5 58t44 124.5t13.5 115.5q0 87 -55 87q-23 0 -47 -23.5t-39 -56.5l-50 -224q3 -34 21.5 -57.5
t42.5 -23.5z" />
    <glyph glyph-name="afii10083" unicode="&#x441;" horiz-adv-x="317" 
d="M158 -12q-63 0 -98 41.5t-35 124.5q0 52 14 109.5t39 110t67 87t91 34.5q66 0 100 -49l-38 -50q-20 38 -60 38q-44 0 -77.5 -51t-48.5 -113t-15 -115q0 -106 73 -106q34 0 62 31l19 -53q-42 -39 -93 -39z" />
    <glyph glyph-name="afii10084" unicode="&#x442;" horiz-adv-x="277" 
d="M119 0h-69l93 423h-82l13 60h233l-13 -60h-82z" />
    <glyph glyph-name="afii10085" unicode="&#x443;" horiz-adv-x="326" 
d="M-61 -186l23 57q6 -6 23 -6q15 0 25.5 10t22.5 35l37 77l-8 496h71l-8 -396l170 396h74l-274 -589q-25 -51 -49 -70.5t-58 -19.5q-29 0 -49 10z" />
    <glyph glyph-name="afii10086" unicode="&#x444;" horiz-adv-x="560" 
d="M202 495q61 0 81 -78l55 250h68l-54 -244q43 72 96 72q84 0 84 -140q0 -49 -12 -110t-33.5 -119.5t-56.5 -98t-75 -39.5q-61 0 -81 78l-55 -250h-68l54 244q-44 -72 -96 -72q-84 0 -84 140q0 49 12 110t33.5 119.5t56.5 98t75 39.5zM219 434q-35 0 -65.5 -58t-44.5 -126
t-14 -116q0 -44 10.5 -64.5t35.5 -20.5q20 0 42 23.5t37 56.5l48 221q-2 35 -15 59.5t-34 24.5zM338 49q35 0 65 58t44 126t14 116q0 44 -10 64.5t-35 20.5q-20 0 -41.5 -23t-37.5 -57l-48 -221q2 -35 15 -59.5t34 -24.5z" />
    <glyph glyph-name="afii10087" unicode="&#x445;" horiz-adv-x="326" 
d="M259 0h-71l-35 191l-119 -191h-76l163 244l-50 239h71l30 -184l114 184h74l-156 -239z" />
    <glyph glyph-name="afii10088" unicode="&#x446;" horiz-adv-x="397" 
d="M226 -123l27 123h-250l105 483h68l-93 -423h129l94 423h68l-93 -423h54l-40 -183h-69z" />
    <glyph glyph-name="afii10089" unicode="&#x447;" horiz-adv-x="367" 
d="M97 483h69l-37 -170q-8 -33 2.5 -48t42.5 -15q40 0 75 23l46 210h68l-106 -483h-68l48 220q-44 -31 -97 -31q-59 0 -77.5 25.5t-6.5 79.5z" />
    <glyph glyph-name="afii10090" unicode="&#x448;" horiz-adv-x="548" 
d="M476 483h68l-106 -483h-435l105 483h68l-93 -423h116l93 423h68l-93 -423h115z" />
    <glyph glyph-name="afii10091" unicode="&#x449;" horiz-adv-x="567" 
d="M476 483h68l-93 -423h54l-40 -183h-69l27 123h-420l105 483h68l-93 -423h116l93 423h68l-93 -423h115z" />
    <glyph glyph-name="afii10092" unicode="&#x44a;" horiz-adv-x="407" 
d="M190 0h-140l93 423h-82l13 60h151l-43 -190h48q57 0 90.5 -29.5t33.5 -83.5q0 -68 -43.5 -124t-120.5 -56zM217 237h-46l-41 -181h63q40 0 64 37t24 80q0 64 -64 64z" />
    <glyph glyph-name="afii10093" unicode="&#x44b;" horiz-adv-x="512" 
d="M402 0h-69l106 483h69zM108 483h68l-42 -190h47q57 0 91 -29.5t34 -83.5q0 -68 -43.5 -124t-120.5 -56h-140zM168 237h-46l-40 -181h62q40 0 64 37t24 80q0 64 -64 64z" />
    <glyph glyph-name="afii10094" unicode="&#x44c;" horiz-adv-x="358" 
d="M108 483h68l-42 -190h47q57 0 91 -29.5t34 -83.5q0 -68 -43.5 -124t-120.5 -56h-140zM168 237h-46l-40 -181h62q40 0 64 37t24 80q0 64 -64 64z" />
    <glyph glyph-name="afii10095" unicode="&#x44d;" horiz-adv-x="317" 
d="M159 495q62 0 97 -41.5t35 -124.5q0 -71 -22.5 -147t-72.5 -135t-115 -59q-66 0 -100 49l35 46q20 -38 60 -38q45 0 77.5 49t50.5 121h-147l13 60h146q4 38 4 53q0 54 -19.5 82t-53.5 28t-63 -32l-18 52q41 37 93 37z" />
    <glyph glyph-name="afii10096" unicode="&#x44e;" horiz-adv-x="543" 
d="M310 -12q-59 0 -92 39.5t-33 117.5q0 37 6 77h-72l-49 -222h-67l105 483h68l-43 -201h70q24 91 72.5 152t115.5 61q60 0 92.5 -39t32.5 -118q0 -74 -22 -152t-71 -138t-113 -60zM314 49q39 0 71 54.5t46.5 119.5t14.5 115q0 96 -59 96q-39 0 -71.5 -55t-47 -120
t-14.5 -115q0 -95 60 -95z" />
    <glyph glyph-name="afii10097" unicode="&#x44f;" 
d="M66 0h-80l132 205q-54 28 -54 98q0 68 43.5 124t120.5 56h146l-106 -483h-68l42 190h-60zM202 246h52l40 181h-69q-40 0 -64 -37t-24 -80q0 -64 65 -64z" />
    <glyph glyph-name="afii10071" unicode="&#x451;" horiz-adv-x="373" 
d="M388 608q0 -19 -14.5 -33.5t-34.5 -14.5q-16 0 -27 11t-11 28q0 19 14.5 33t34.5 14q16 0 27 -11t11 -27zM248 608q0 -19 -14.5 -33.5t-34.5 -14.5q-17 0 -28 11t-11 28q0 19 14.5 33t34.5 14q17 0 28 -11t11 -27zM164 -12q-66 0 -103 42t-37 124q0 40 11.5 94.5
t34.5 111.5t65 96t94 39q123 0 123 -149q0 -55 -18 -127h-236q-8 -32 -8 -68q0 -48 20.5 -77t62.5 -29q45 0 87 54l31 -43q-56 -68 -127 -68zM108 270h170q10 43 10 75q0 40 -16.5 66.5t-47.5 26.5q-45 0 -75 -52t-41 -116z" />
    <glyph glyph-name="afii10099" unicode="&#x452;" horiz-adv-x="392" 
d="M318 536h-116l-26 -121q24 34 58.5 57t66.5 23q90 0 67 -105l-102 -461q-14 -66 -44.5 -95.5t-80.5 -29.5q-39 0 -51 31l37 49q5 -19 23 -19q34 0 48 64l98 442q13 63 -33 63q-26 0 -54 -23.5t-47 -55.5l-77 -355h-69l118 536h-49l9 45h50l19 86h68l-19 -86h115z" />
    <glyph glyph-name="afii10100" unicode="&#x453;" horiz-adv-x="291" 
d="M380 700l-132 -144h-48l111 144h69zM321 483l-14 -60h-144l-93 -423h-68l106 483h213z" />
    <glyph glyph-name="afii10101" unicode="&#x454;" horiz-adv-x="317" 
d="M158 -12q-63 0 -98 41.5t-35 124.5q0 52 14 109.5t39 110t67 87t91 34.5q66 0 100 -49l-35 -46q-20 38 -61 38q-43 0 -75 -46.5t-51 -116.5h147l-13 -60h-146q-5 -37 -5 -60q0 -55 19.5 -82.5t53.5 -27.5t63 32l18 -52q-41 -37 -93 -37z" />
    <glyph glyph-name="afii10102" unicode="&#x455;" horiz-adv-x="309" 
d="M110 -12q-43 0 -77 18t-50 49l42 44q29 -55 88 -55q33 0 56 25t23 59q0 28 -20.5 55t-45.5 46.5t-45.5 52t-20.5 70.5q0 59 38.5 101t102.5 42q76 0 116 -59l-41 -43q-10 21 -31.5 33.5t-45.5 12.5q-32 0 -52 -21t-20 -53q0 -25 21 -51.5t46 -46t46 -53.5t21 -72
q0 -64 -43 -109t-108 -45z" />
    <glyph glyph-name="afii10103" unicode="&#x456;" horiz-adv-x="180" 
d="M163 554q-18 0 -30.5 12t-12.5 29q0 23 17 38.5t37 15.5q18 0 30.5 -12.5t12.5 -29.5q0 -23 -17 -38t-37 -15zM70 0h-68l107 483h68z" />
    <glyph glyph-name="afii10104" unicode="&#x457;" horiz-adv-x="180" 
d="M284 608q0 -19 -14.5 -33.5t-34.5 -14.5q-16 0 -27 11t-11 28q0 19 14.5 33t34.5 14q16 0 27 -11t11 -27zM144 608q0 -19 -14.5 -33.5t-34.5 -14.5q-17 0 -28 11t-11 28q0 19 14.5 33t34.5 14q17 0 28 -11t11 -27zM70 0h-68l107 483h68z" />
    <glyph glyph-name="afii10105" unicode="&#x458;" horiz-adv-x="180" 
d="M-57 -196q-49 0 -65 34l37 46q5 -19 26 -19q31 0 44 64l124 554h68l-123 -554q-16 -68 -41 -96.5t-70 -28.5zM163 554q-18 0 -30.5 12t-12.5 29q0 23 17 38.5t37 15.5q18 0 30.5 -12.5t12.5 -29.5q0 -23 -17 -38t-37 -15z" />
    <glyph glyph-name="afii10106" unicode="&#x459;" horiz-adv-x="557" 
d="M-38 -12l13 61q32 0 56.5 34t54.5 137l75 263h213l-44 -196h51q67 0 98 -35.5t23 -95.5q-8 -64 -53.5 -110t-120.5 -46h-128l92 423h-79l-60 -208q-37 -131 -82 -179t-109 -48zM362 231h-44l-38 -175h53q42 0 67.5 29.5t30.5 71.5q8 74 -69 74z" />
    <glyph glyph-name="afii10107" unicode="&#x45a;" horiz-adv-x="557" 
d="M70 0h-68l106 483h68l-44 -201h129l45 201h68l-44 -201h47q57 0 92 -28t35 -80q0 -67 -43.5 -120.5t-120.5 -53.5h-140l48 222h-129zM363 226h-46l-37 -170h62q41 0 64.5 34.5t23.5 77.5q0 58 -67 58z" />
    <glyph glyph-name="afii10108" unicode="&#x45b;" horiz-adv-x="384" 
d="M274 0h-68l82 371q3 15 3 24q0 39 -38 39q-25 0 -52.5 -24t-47.5 -58l-77 -352h-68l118 536h-48l10 45h48l19 86h68l-19 -86h118l-9 -45h-119l-25 -117q54 76 117 76q38 0 58 -20.5t20 -53.5q0 -11 -4 -31z" />
    <glyph glyph-name="afii10109" unicode="&#x45c;" horiz-adv-x="361" 
d="M401 700l-132 -144h-48l111 144h69zM291 0h-72l-44 222l-78 -99l-27 -123h-68l107 483h68l-58 -262l204 262h76l-171 -216z" />
    <glyph glyph-name="afii10110" unicode="&#x45e;" horiz-adv-x="326" 
d="M-61 -186l23 57q6 -6 23 -6q15 0 25.5 10t22.5 35l37 77l-8 496h71l-8 -396l170 396h74l-274 -589q-25 -51 -49 -70.5t-58 -19.5q-29 0 -49 10zM359 613q-58 -61 -132 -61q-75 0 -106 61l39 28q9 -20 29.5 -32t44.5 -12q55 0 92 44z" />
    <glyph glyph-name="afii10193" unicode="&#x45f;" 
d="M73 -124l27 124h-97l105 483h68l-93 -423h129l94 423h68l-106 -483h-99l-27 -124h-69z" />
    <glyph glyph-name="afii10050" unicode="&#x490;" horiz-adv-x="351" 
d="M84 0h-75l147 667h172l28 126h76l-43 -193h-173z" />
    <glyph glyph-name="afii10098" unicode="&#x491;" horiz-adv-x="291" 
d="M163 423l-93 -423h-68l106 483h144l27 124h69l-41 -184h-144z" />
    <glyph glyph-name="uni1E02" unicode="&#x1e02;" horiz-adv-x="403" 
d="M172 0h-163l147 667h117q64 0 99.5 -37.5t35.5 -96.5q0 -69 -34.5 -127t-91.5 -69q33 -10 49.5 -43.5t16.5 -73.5q0 -86 -47 -153t-129 -67zM229 375q46 0 72.5 47.5t26.5 98.5q0 39 -20 59t-55 20h-36l-50 -225h62zM163 67q46 0 77 48t31 110q0 83 -77 83h-42l-53 -241
h64zM364 773q0 -20 -15 -34.5t-35 -14.5q-17 0 -28.5 11.5t-11.5 28.5q0 20 15 34.5t35 14.5q17 0 28.5 -11.5t11.5 -28.5z" />
    <glyph glyph-name="uni1E03" unicode="&#x1e03;" horiz-adv-x="384" 
d="M173 -12q-66 0 -88 81l-15 -69h-67l146 667h68l-54 -246q44 74 101 74q46 0 71 -37.5t25 -105.5q0 -48 -12 -107.5t-33.5 -118.5t-59 -98.5t-82.5 -39.5zM162 49q39 0 69.5 58t44 124.5t13.5 115.5q0 87 -55 87q-23 0 -47 -23.5t-39 -56.5l-50 -224q3 -34 21.5 -57.5
t42.5 -23.5zM360 773q0 -20 -15 -34.5t-35 -14.5q-17 0 -28.5 11.5t-11.5 28.5q0 20 15 34.5t35 14.5q17 0 28.5 -11.5t11.5 -28.5z" />
    <glyph glyph-name="uni1E0A" unicode="&#x1e0a;" horiz-adv-x="427" 
d="M137 0h-128l147 667h124q58 0 99 -50t41 -150q0 -37 -7.5 -89.5t-27.5 -120.5t-50 -123.5t-82 -94.5t-116 -39zM99 67h50q50 0 90 50t61 120.5t31.5 131t10.5 97.5q0 68 -21.5 101t-54.5 33h-49zM382 773q0 -20 -15 -34.5t-35 -14.5q-17 0 -28.5 11.5t-11.5 28.5
q0 20 15 34.5t35 14.5q17 0 28.5 -11.5t11.5 -28.5z" />
    <glyph glyph-name="uni1E0B" unicode="&#x1e0b;" horiz-adv-x="384" 
d="M210 495q30 0 54 -20.5t34 -60.5l56 253h68l-148 -667h-68l14 62q-44 -74 -101 -74q-46 0 -71 37t-25 106q0 48 12 107.5t34 118.5t59.5 98.5t81.5 39.5zM221 434q-39 0 -69.5 -58t-44 -124.5t-13.5 -115.5q0 -87 55 -87q23 0 47 23.5t39 56.5l50 224q-3 34 -21.5 57.5
t-42.5 23.5zM348 773q0 -20 -15 -34.5t-35 -14.5q-17 0 -28.5 11.5t-11.5 28.5q0 20 15 34.5t35 14.5q17 0 28.5 -11.5t11.5 -28.5z" />
    <glyph glyph-name="uni1E1E" unicode="&#x1e1e;" horiz-adv-x="351" 
d="M347 773q0 -20 -15 -34.5t-35 -14.5q-17 0 -28.5 11.5t-11.5 28.5q0 20 15 34.5t35 14.5q17 0 28.5 -11.5t11.5 -28.5zM84 0h-75l147 667h248l-15 -67h-172l-50 -225h165l-15 -67h-165z" />
    <glyph glyph-name="uni1E1F" unicode="&#x1e1f;" horiz-adv-x="224" 
d="M313 773q0 -20 -15 -34.5t-35 -14.5q-17 0 -28.5 11.5t-11.5 28.5q0 20 15 34.5t35 14.5q17 0 28.5 -11.5t11.5 -28.5zM85 0h-69l94 423h-48l14 60h47l17 81q24 113 117 113q52 0 73 -29l-34 -52q-12 20 -34 20q-42 0 -53 -52l-17 -81h65l-13 -60h-66z" />
    <glyph glyph-name="uni1E22" unicode="&#x1e22;" horiz-adv-x="436" 
d="M319 0h-75l68 309h-160l-68 -309h-75l147 667h75l-64 -290h160l64 290h75zM379 773q0 -20 -15 -34.5t-35 -14.5q-17 0 -28.5 11.5t-11.5 28.5q0 20 15 34.5t35 14.5q17 0 28.5 -11.5t11.5 -28.5z" />
    <glyph glyph-name="uni1E23" unicode="&#x1e23;" 
d="M268 0h-68l82 371q3 15 3 24q0 39 -38 39q-25 0 -52.5 -24t-47.5 -58l-77 -352h-68l147 667h68l-54 -248q54 76 117 76q38 0 58 -20.5t20 -53.5q0 -11 -4 -31zM351 773q0 -20 -15 -34.5t-35 -14.5q-17 0 -28.5 11.5t-11.5 28.5q0 20 15 34.5t35 14.5q17 0 28.5 -11.5
t11.5 -28.5z" />
    <glyph glyph-name="uni1E56" unicode="&#x1e56;" horiz-adv-x="387" 
d="M84 0h-75l147 667h125q58 0 94.5 -42t36.5 -110q0 -97 -55.5 -171.5t-153.5 -74.5h-60zM158 336h52q57 0 89.5 53t32.5 121q0 44 -18.5 67t-49.5 23h-47zM367 773q0 -20 -15 -34.5t-35 -14.5q-17 0 -28.5 11.5t-11.5 28.5q0 20 15 34.5t35 14.5q17 0 28.5 -11.5
t11.5 -28.5z" />
    <glyph glyph-name="uni1E57" unicode="&#x1e57;" horiz-adv-x="384" 
d="M173 -12q-66 0 -88 81l-56 -253h-67l147 667h68l-14 -62q44 74 101 74q46 0 71 -37.5t25 -105.5q0 -48 -12 -107.5t-33.5 -118.5t-59 -98.5t-82.5 -39.5zM162 49q39 0 69.5 58t44 124.5t13.5 115.5q0 87 -55 87q-23 0 -47 -23.5t-39 -56.5l-50 -224q3 -34 21.5 -57.5
t42.5 -23.5zM324 606q0 -20 -15 -34.5t-35 -14.5q-17 0 -28.5 11.5t-11.5 28.5q0 20 15 34.5t35 14.5q17 0 28.5 -11.5t11.5 -28.5z" />
    <glyph glyph-name="uni1E60" unicode="&#x1e60;" horiz-adv-x="354" 
d="M125 -12q-44 0 -83 19t-59 50l49 55q14 -25 40 -40.5t53 -15.5q42 0 73.5 36t31.5 96q0 35 -22 72t-48 65t-48 71t-22 89q0 81 52.5 137t123.5 56q80 0 123 -55l-43 -56q-30 43 -81 43q-42 0 -69 -34t-27 -80q0 -26 14.5 -53.5t34.5 -53l40.5 -53t35 -63.5t14.5 -74
q0 -90 -52.5 -150.5t-130.5 -60.5zM337 773q0 -20 -15 -34.5t-35 -14.5q-17 0 -28.5 11.5t-11.5 28.5q0 20 15 34.5t35 14.5q17 0 28.5 -11.5t11.5 -28.5z" />
    <glyph glyph-name="uni1E61" unicode="&#x1e61;" horiz-adv-x="309" 
d="M110 -12q-43 0 -77 18t-50 49l42 44q29 -55 88 -55q33 0 56 25t23 59q0 28 -20.5 55t-45.5 46.5t-45.5 52t-20.5 70.5q0 59 38.5 101t102.5 42q76 0 116 -59l-41 -43q-10 21 -31.5 33.5t-45.5 12.5q-32 0 -52 -21t-20 -53q0 -25 21 -51.5t46 -46t46 -53.5t21 -72
q0 -64 -43 -109t-108 -45zM280 606q0 -20 -15 -34.5t-35 -14.5q-17 0 -28.5 11.5t-11.5 28.5q0 20 15 34.5t35 14.5q17 0 28.5 -11.5t11.5 -28.5z" />
    <glyph glyph-name="uni1E6A" unicode="&#x1e6a;" horiz-adv-x="322" 
d="M145 0h-76l133 600h-105l14 67h286l-14 -67h-106zM323 773q0 -20 -15 -34.5t-35 -14.5q-17 0 -28.5 11.5t-11.5 28.5q0 20 15 34.5t35 14.5q17 0 28.5 -11.5t11.5 -28.5z" />
    <glyph glyph-name="uni1E6B" unicode="&#x1e6b;" horiz-adv-x="233" 
d="M114 -12q-82 0 -82 71q0 16 4 36l74 328h-49l13 60h49l29 132h69l-29 -132h65l-13 -60h-66l-71 -319q-4 -18 -4 -27q0 -28 29 -28q18 0 31 13l10 -53q-25 -21 -59 -21zM265 773q0 -20 -15 -34.5t-35 -14.5q-17 0 -28.5 11.5t-11.5 28.5q0 20 15 34.5t35 14.5
q17 0 28.5 -11.5t11.5 -28.5z" />
    <glyph glyph-name="Wgrave" unicode="&#x1e80;" horiz-adv-x="548" 
d="M370 0h-80l44 514l-184 -514h-79l40 667h77l-47 -531l193 531h64l-42 -531l188 531h79zM413 723h-46l-68 144h67z" />
    <glyph glyph-name="wgrave" unicode="&#x1e81;" horiz-adv-x="541" 
d="M369 0h-71l4 389l-167 -389h-71l2 483h70l-14 -387l164 387h69l-7 -387l159 387h74zM374 556h-46l-68 144h67z" />
    <glyph glyph-name="Wacute" unicode="&#x1e82;" horiz-adv-x="548" 
d="M518 867l-132 -144h-48l111 144h69zM370 0h-80l44 514l-184 -514h-79l40 667h77l-47 -531l193 531h64l-42 -531l188 531h79z" />
    <glyph glyph-name="wacute" unicode="&#x1e83;" horiz-adv-x="541" 
d="M478 700l-132 -144h-48l111 144h69zM369 0h-71l4 389l-167 -389h-71l2 483h70l-14 -387l164 387h69l-7 -387l159 387h74z" />
    <glyph glyph-name="Wdieresis" unicode="&#x1e84;" horiz-adv-x="548" 
d="M502 775q0 -19 -14.5 -33.5t-34.5 -14.5q-16 0 -27 11t-11 28q0 19 14.5 33t34.5 14q16 0 27 -11t11 -27zM362 775q0 -19 -14.5 -33.5t-34.5 -14.5q-17 0 -28 11t-11 28q0 19 14.5 33t34.5 14q17 0 28 -11t11 -27zM370 0h-80l44 514l-184 -514h-79l40 667h77l-47 -531
l193 531h64l-42 -531l188 531h79z" />
    <glyph glyph-name="wdieresis" unicode="&#x1e85;" horiz-adv-x="541" 
d="M461 608q0 -19 -14.5 -33.5t-34.5 -14.5q-16 0 -27 11t-11 28q0 19 14.5 33t34.5 14q16 0 27 -11t11 -27zM321 608q0 -19 -14.5 -33.5t-34.5 -14.5q-17 0 -28 11t-11 28q0 19 14.5 33t34.5 14q17 0 28 -11t11 -27zM369 0h-71l4 389l-167 -389h-71l2 483h70l-14 -387
l164 387h69l-7 -387l159 387h74z" />
    <glyph glyph-name="uni1EA0" unicode="&#x1ea0;" horiz-adv-x="364" 
d="M303 0h-75l7 153h-143l-60 -153h-79l278 667h87zM240 220l17 357l-141 -357h124zM142 -133q0 -20 -15 -34.5t-35 -14.5q-17 0 -28.5 11.5t-11.5 28.5q0 20 15 34.5t35 14.5q17 0 28.5 -11.5t11.5 -28.5z" />
    <glyph glyph-name="uni1EA1" unicode="&#x1ea1;" horiz-adv-x="384" 
d="M210 495q30 0 54 -20.5t34 -60.5l15 69h68l-107 -483h-68l14 62q-44 -74 -101 -74q-46 0 -71 37t-25 106q0 48 12 107.5t34 118.5t59.5 98.5t81.5 39.5zM221 434q-39 0 -69.5 -58t-44 -124.5t-13.5 -115.5q0 -87 55 -87q23 0 47 23.5t39 56.5l50 224q-3 34 -21.5 57.5
t-42.5 23.5zM147 -133q0 -20 -15 -34.5t-35 -14.5q-17 0 -28.5 11.5t-11.5 28.5q0 20 15 34.5t35 14.5q17 0 28.5 -11.5t11.5 -28.5z" />
    <glyph glyph-name="uni1EA2" unicode="&#x1ea2;" horiz-adv-x="364" 
d="M303 0h-75l7 153h-143l-60 -153h-79l278 667h87zM240 220l17 357l-141 -357h124zM269 767l-28 10q20 43 59 43q50 0 50 -48q0 -40 -35 -75h-37q37 32 38 69q2 24 -18 24q-18 0 -29 -23z" />
    <glyph glyph-name="uni1EA3" unicode="&#x1ea3;" horiz-adv-x="384" 
d="M210 495q30 0 54 -20.5t34 -60.5l15 69h68l-107 -483h-68l14 62q-44 -74 -101 -74q-46 0 -71 37t-25 106q0 48 12 107.5t34 118.5t59.5 98.5t81.5 39.5zM221 434q-39 0 -69.5 -58t-44 -124.5t-13.5 -115.5q0 -87 55 -87q23 0 47 23.5t39 56.5l50 224q-3 34 -21.5 57.5
t-42.5 23.5zM238 597l-28 10q20 43 59 43q50 0 50 -48q0 -40 -35 -75h-37q37 32 38 69q2 24 -18 24q-17 0 -29 -23z" />
    <glyph glyph-name="uni1EA4" unicode="&#x1ea4;" horiz-adv-x="364" 
d="M372 682h-39l-38 79l-79 -79h-44l98 108h66zM303 0h-75l7 153h-143l-60 -153h-79l278 667h87zM240 220l17 357l-141 -357h124zM539 843l-132 -108h-48l111 108h69z" />
    <glyph glyph-name="uni1EA5" unicode="&#x1ea5;" horiz-adv-x="384" 
d="M210 495q30 0 54 -20.5t34 -60.5l15 69h68l-107 -483h-68l14 62q-44 -74 -101 -74q-46 0 -71 37t-25 106q0 48 12 107.5t34 118.5t59.5 98.5t81.5 39.5zM221 434q-39 0 -69.5 -58t-44 -124.5t-13.5 -115.5q0 -87 55 -87q23 0 47 23.5t39 56.5l50 224q-3 34 -21.5 57.5
t-42.5 23.5zM357 556h-39l-38 105l-79 -105h-44l98 144h66zM525 771l-132 -144h-48l111 144h69z" />
    <glyph glyph-name="uni1EA6" unicode="&#x1ea6;" horiz-adv-x="364" 
d="M372 682h-39l-38 79l-79 -79h-44l98 108h66zM303 0h-75l7 153h-143l-60 -153h-79l278 667h87zM240 220l17 357l-141 -357h124zM210 735h-46l-68 108h67z" />
    <glyph glyph-name="uni1EA7" unicode="&#x1ea7;" horiz-adv-x="384" 
d="M210 495q30 0 54 -20.5t34 -60.5l15 69h68l-107 -483h-68l14 62q-44 -74 -101 -74q-46 0 -71 37t-25 106q0 48 12 107.5t34 118.5t59.5 98.5t81.5 39.5zM221 434q-39 0 -69.5 -58t-44 -124.5t-13.5 -115.5q0 -87 55 -87q23 0 47 23.5t39 56.5l50 224q-3 34 -21.5 57.5
t-42.5 23.5zM356 556h-39l-38 105l-79 -105h-44l98 144h66zM197 627h-46l-68 144h67z" />
    <glyph glyph-name="uni1EA8" unicode="&#x1ea8;" horiz-adv-x="364" 
d="M372 682h-39l-38 79l-79 -79h-44l98 108h66zM303 0h-75l7 153h-143l-60 -153h-79l278 667h87zM240 220l17 357l-141 -357h124zM352 809l-28 7q20 32 59 32q50 0 50 -36q0 -29 -35 -56h-37q37 24 38 52q2 18 -18 18q-17 0 -29 -17z" />
    <glyph glyph-name="uni1EA9" unicode="&#x1ea9;" horiz-adv-x="384" 
d="M210 495q30 0 54 -20.5t34 -60.5l15 69h68l-107 -483h-68l14 62q-44 -74 -101 -74q-46 0 -71 37t-25 106q0 48 12 107.5t34 118.5t59.5 98.5t81.5 39.5zM221 434q-39 0 -69.5 -58t-44 -124.5t-13.5 -115.5q0 -87 55 -87q23 0 47 23.5t39 56.5l50 224q-3 34 -21.5 57.5
t-42.5 23.5zM357 556h-39l-38 105l-79 -105h-44l98 144h66zM334 737l-28 10q20 43 59 43q50 0 50 -48q0 -40 -35 -75h-37q37 32 38 69q2 24 -18 24q-17 0 -29 -23z" />
    <glyph glyph-name="uni1EAA" unicode="&#x1eaa;" horiz-adv-x="364" 
d="M367 678h-39l-38 52l-79 -52h-44l98 72h66zM303 0h-75l7 153h-143l-60 -153h-79l278 667h87zM240 220l17 357l-141 -357h124zM336 757q-21 0 -32 7.5t-13 16t-8 16t-18 7.5q-30 0 -48 -44h-40q31 67 95 67q21 0 32 -7.5t13 -16.5t8 -16.5t18 -7.5q28 0 48 45h40
q-29 -67 -95 -67z" />
    <glyph glyph-name="uni1EAB" unicode="&#x1eab;" horiz-adv-x="384" 
d="M210 495q30 0 54 -20.5t34 -60.5l15 69h68l-107 -483h-68l14 62q-44 -74 -101 -74q-46 0 -71 37t-25 106q0 48 12 107.5t34 118.5t59.5 98.5t81.5 39.5zM221 434q-39 0 -69.5 -58t-44 -124.5t-13.5 -115.5q0 -87 55 -87q23 0 47 23.5t39 56.5l50 224q-3 34 -21.5 57.5
t-42.5 23.5zM349 523h-39l-38 105l-79 -105h-44l98 144h66zM333 682q-21 0 -32 15t-13 32.5t-8 32.5t-18 15q-29 0 -48 -89h-40q31 134 95 134q21 0 32 -15t13 -32.5t8 -32.5t18 -15q28 0 48 89h40q-29 -134 -95 -134z" />
    <glyph glyph-name="uni1EAC" unicode="&#x1eac;" horiz-adv-x="364" 
d="M303 0h-75l7 153h-143l-60 -153h-79l278 667h87zM240 220l17 357l-141 -357h124zM387 723h-39l-38 105l-79 -105h-44l98 144h66zM143 -133q0 -20 -15 -34.5t-35 -14.5q-17 0 -28.5 11.5t-11.5 28.5q0 20 15 34.5t35 14.5q17 0 28.5 -11.5t11.5 -28.5z" />
    <glyph glyph-name="uni1EAD" unicode="&#x1ead;" horiz-adv-x="384" 
d="M210 495q30 0 54 -20.5t34 -60.5l15 69h68l-107 -483h-68l14 62q-44 -74 -101 -74q-46 0 -71 37t-25 106q0 48 12 107.5t34 118.5t59.5 98.5t81.5 39.5zM221 434q-39 0 -69.5 -58t-44 -124.5t-13.5 -115.5q0 -87 55 -87q23 0 47 23.5t39 56.5l50 224q-3 34 -21.5 57.5
t-42.5 23.5zM356 556h-39l-38 105l-79 -105h-44l98 144h66zM147 -133q0 -20 -15 -34.5t-35 -14.5q-17 0 -28.5 11.5t-11.5 28.5q0 20 15 34.5t35 14.5q17 0 28.5 -11.5t11.5 -28.5z" />
    <glyph glyph-name="uni1EAE" unicode="&#x1eae;" horiz-adv-x="364" 
d="M303 0h-75l7 153h-143l-60 -153h-79l278 667h87zM240 220l17 357l-141 -357h124zM422 838l-132 -98h-48l111 98h69zM405 732q-58 -53 -132 -53q-75 0 -106 53l39 24q9 -17 29.5 -27.5t44.5 -10.5q54 0 92 38z" />
    <glyph glyph-name="uni1EAF" unicode="&#x1eaf;" horiz-adv-x="384" 
d="M210 495q30 0 54 -20.5t34 -60.5l15 69h68l-107 -483h-68l14 62q-44 -74 -101 -74q-46 0 -71 37t-25 106q0 48 12 107.5t34 118.5t59.5 98.5t81.5 39.5zM221 434q-39 0 -69.5 -58t-44 -124.5t-13.5 -115.5q0 -87 55 -87q23 0 47 23.5t39 56.5l50 224q-3 34 -21.5 57.5
t-42.5 23.5zM398 761l-132 -144h-48l111 144h69zM378 584q-58 -61 -132 -61q-75 0 -106 61l39 28q9 -20 29.5 -32t44.5 -12q55 0 92 44z" />
    <glyph glyph-name="uni1EB0" unicode="&#x1eb0;" horiz-adv-x="364" 
d="M303 0h-75l7 153h-143l-60 -153h-79l278 667h87zM240 220l17 357l-141 -357h124zM330 740h-46l-68 98h67zM405 732q-58 -53 -132 -53q-75 0 -106 53l39 24q9 -17 29.5 -27.5t44.5 -10.5q54 0 92 38z" />
    <glyph glyph-name="uni1EB1" unicode="&#x1eb1;" horiz-adv-x="384" 
d="M210 495q30 0 54 -20.5t34 -60.5l15 69h68l-107 -483h-68l14 62q-44 -74 -101 -74q-46 0 -71 37t-25 106q0 48 12 107.5t34 118.5t59.5 98.5t81.5 39.5zM221 434q-39 0 -69.5 -58t-44 -124.5t-13.5 -115.5q0 -87 55 -87q23 0 47 23.5t39 56.5l50 224q-3 34 -21.5 57.5
t-42.5 23.5zM311 621h-46l-68 144h67zM378 584q-58 -61 -132 -61q-75 0 -106 61l39 28q9 -20 29.5 -32t44.5 -12q55 0 92 44z" />
    <glyph glyph-name="uni1EB2" unicode="&#x1eb2;" horiz-adv-x="364" 
d="M303 0h-75l7 153h-143l-60 -153h-79l278 667h87zM240 220l17 357l-141 -357h124zM277 792l-28 7q20 29 59 29q50 0 50 -33q0 -28 -35 -51h-37q36 21 38 47q1 8 -3.5 12.5t-14.5 4.5q-17 0 -29 -16zM405 732q-58 -53 -132 -53q-75 0 -106 53l39 24q9 -17 29.5 -27.5
t44.5 -10.5q54 0 92 38z" />
    <glyph glyph-name="uni1EB3" unicode="&#x1eb3;" horiz-adv-x="384" 
d="M210 495q30 0 54 -20.5t34 -60.5l15 69h68l-107 -483h-68l14 62q-44 -74 -101 -74q-46 0 -71 37t-25 106q0 48 12 107.5t34 118.5t59.5 98.5t81.5 39.5zM221 434q-39 0 -69.5 -58t-44 -124.5t-13.5 -115.5q0 -87 55 -87q23 0 47 23.5t39 56.5l50 224q-3 34 -21.5 57.5
t-42.5 23.5zM258 687l-28 10q20 43 59 43q50 0 50 -48q0 -40 -35 -75h-37q37 32 38 69q2 24 -18 24q-17 0 -29 -23zM378 584q-58 -61 -132 -61q-75 0 -106 61l39 28q9 -20 29.5 -32t44.5 -12q55 0 92 44z" />
    <glyph glyph-name="uni1EB4" unicode="&#x1eb4;" horiz-adv-x="364" 
d="M303 0h-75l7 153h-143l-60 -153h-79l278 667h87zM240 220l17 357l-141 -357h124zM405 723q-57 -42 -132 -42t-106 42l39 19q19 -30 74 -30q56 0 92 30zM336 757q-21 0 -32 7.5t-13 16t-8 16t-18 7.5q-30 0 -48 -44h-40q31 67 95 67q21 0 32 -7.5t13 -16.5t8 -16.5
t18 -7.5q28 0 48 45h40q-29 -67 -95 -67z" />
    <glyph glyph-name="uni1EB5" unicode="&#x1eb5;" horiz-adv-x="384" 
d="M210 495q30 0 54 -20.5t34 -60.5l15 69h68l-107 -483h-68l14 62q-44 -74 -101 -74q-46 0 -71 37t-25 106q0 48 12 107.5t34 118.5t59.5 98.5t81.5 39.5zM221 434q-39 0 -69.5 -58t-44 -124.5t-13.5 -115.5q0 -87 55 -87q23 0 47 23.5t39 56.5l50 224q-3 34 -21.5 57.5
t-42.5 23.5zM378 584q-58 -61 -132 -61q-75 0 -106 61l39 28q9 -20 29.5 -32t44.5 -12q55 0 92 44zM321 631q-21 0 -32 15t-13 32.5t-8 32.5t-18 15q-29 0 -48 -89h-40q31 134 95 134q21 0 32 -15t13 -32.5t8 -32.5t18 -15q28 0 48 89h40q-29 -134 -95 -134z" />
    <glyph glyph-name="uni1EB6" unicode="&#x1eb6;" horiz-adv-x="364" 
d="M303 0h-75l7 153h-143l-60 -153h-79l278 667h87zM240 220l17 357l-141 -357h124zM143 -133q0 -20 -15 -34.5t-35 -14.5q-17 0 -28.5 11.5t-11.5 28.5q0 20 15 34.5t35 14.5q17 0 28.5 -11.5t11.5 -28.5zM415 780q-58 -61 -132 -61q-75 0 -106 61l39 28q9 -20 29.5 -32
t44.5 -12q55 0 92 44z" />
    <glyph glyph-name="uni1EB7" unicode="&#x1eb7;" horiz-adv-x="384" 
d="M210 495q30 0 54 -20.5t34 -60.5l15 69h68l-107 -483h-68l14 62q-44 -74 -101 -74q-46 0 -71 37t-25 106q0 48 12 107.5t34 118.5t59.5 98.5t81.5 39.5zM221 434q-39 0 -69.5 -58t-44 -124.5t-13.5 -115.5q0 -87 55 -87q23 0 47 23.5t39 56.5l50 224q-3 34 -21.5 57.5
t-42.5 23.5zM147 -133q0 -20 -15 -34.5t-35 -14.5q-17 0 -28.5 11.5t-11.5 28.5q0 20 15 34.5t35 14.5q17 0 28.5 -11.5t11.5 -28.5zM385 613q-58 -61 -132 -61q-75 0 -106 61l39 28q9 -20 29.5 -32t44.5 -12q55 0 92 44z" />
    <glyph glyph-name="uni1EB8" unicode="&#x1eb8;" horiz-adv-x="352" 
d="M257 0h-248l147 667h248l-15 -67h-172l-50 -225h165l-15 -67h-165l-53 -241h172zM146 -133q0 -20 -15 -34.5t-35 -14.5q-17 0 -28.5 11.5t-11.5 28.5q0 20 15 34.5t35 14.5q17 0 28.5 -11.5t11.5 -28.5z" />
    <glyph glyph-name="uni1EB9" unicode="&#x1eb9;" horiz-adv-x="373" 
d="M164 -12q-66 0 -103 42t-37 124q0 40 11.5 94.5t34.5 111.5t65 96t94 39q123 0 123 -149q0 -55 -18 -127h-236q-8 -32 -8 -68q0 -48 20.5 -77t62.5 -29q45 0 87 54l31 -43q-56 -68 -127 -68zM108 270h170q10 43 10 75q0 40 -16.5 66.5t-47.5 26.5q-45 0 -75 -52t-41 -116
zM157 -133q0 -20 -15 -34.5t-35 -14.5q-17 0 -28.5 11.5t-11.5 28.5q0 20 15 34.5t35 14.5q17 0 28.5 -11.5t11.5 -28.5z" />
    <glyph glyph-name="uni1EBA" unicode="&#x1eba;" horiz-adv-x="352" 
d="M257 0h-248l147 667h248l-15 -67h-172l-50 -225h165l-15 -67h-165l-53 -241h172zM274 767l-28 10q20 43 59 43q50 0 50 -48q0 -40 -35 -75h-37q37 32 38 69q2 24 -18 24q-17 0 -29 -23z" />
    <glyph glyph-name="uni1EBB" unicode="&#x1ebb;" horiz-adv-x="373" 
d="M164 -12q-66 0 -103 42t-37 124q0 40 11.5 94.5t34.5 111.5t65 96t94 39q123 0 123 -149q0 -55 -18 -127h-236q-8 -32 -8 -68q0 -48 20.5 -77t62.5 -29q45 0 87 54l31 -43q-56 -68 -127 -68zM108 270h170q10 43 10 75q0 40 -16.5 66.5t-47.5 26.5q-45 0 -75 -52t-41 -116
zM246 597l-28 10q20 43 59 43q50 0 50 -48q0 -40 -35 -75h-37q37 32 38 69q2 24 -18 24q-17 0 -29 -23z" />
    <glyph glyph-name="uni1EBC" unicode="&#x1ebc;" horiz-adv-x="352" 
d="M257 0h-248l147 667h248l-15 -67h-172l-50 -225h165l-15 -67h-165l-53 -241h172zM340 721q-21 0 -32 15t-13 32.5t-8 32.5t-18 15q-29 0 -48 -89h-40q31 134 95 134q21 0 32 -15t13 -32.5t8 -32.5t18 -15q28 0 48 89h40q-29 -134 -95 -134z" />
    <glyph glyph-name="uni1EBD" unicode="&#x1ebd;" horiz-adv-x="373" 
d="M164 -12q-66 0 -103 42t-37 124q0 40 11.5 94.5t34.5 111.5t65 96t94 39q123 0 123 -149q0 -55 -18 -127h-236q-8 -32 -8 -68q0 -48 20.5 -77t62.5 -29q45 0 87 54l31 -43q-56 -68 -127 -68zM108 270h170q10 43 10 75q0 40 -16.5 66.5t-47.5 26.5q-45 0 -75 -52t-41 -116
zM313 554q-21 0 -32 15t-13 32.5t-8 32.5t-18 15q-29 0 -48 -89h-40q31 134 95 134q21 0 32 -15t13 -32.5t8 -32.5t18 -15q28 0 48 89h40q-29 -134 -95 -134z" />
    <glyph glyph-name="uni1EBE" unicode="&#x1ebe;" horiz-adv-x="352" 
d="M377 682h-39l-38 79l-79 -79h-44l98 108h66zM544 843l-132 -108h-48l111 108h69zM257 0h-248l147 667h248l-15 -67h-172l-50 -225h165l-15 -67h-165l-53 -241h172z" />
    <glyph glyph-name="uni1EBF" unicode="&#x1ebf;" horiz-adv-x="373" 
d="M365 556h-39l-38 105l-79 -105h-44l98 144h66zM533 771l-132 -144h-48l111 144h69zM164 -12q-66 0 -103 42t-37 124q0 40 11.5 94.5t34.5 111.5t65 96t94 39q123 0 123 -149q0 -55 -18 -127h-236q-8 -32 -8 -68q0 -48 20.5 -77t62.5 -29q45 0 87 54l31 -43
q-56 -68 -127 -68zM108 270h170q10 43 10 75q0 40 -16.5 66.5t-47.5 26.5q-45 0 -75 -52t-41 -116z" />
    <glyph glyph-name="uni1EC0" unicode="&#x1ec0;" horiz-adv-x="352" 
d="M378 682h-39l-38 79l-79 -79h-44l98 108h66zM257 0h-248l147 667h248l-15 -67h-172l-50 -225h165l-15 -67h-165l-53 -241h172zM216 735h-46l-68 108h67z" />
    <glyph glyph-name="uni1EC1" unicode="&#x1ec1;" horiz-adv-x="373" 
d="M365 556h-39l-38 105l-79 -105h-44l98 144h66zM164 -12q-66 0 -103 42t-37 124q0 40 11.5 94.5t34.5 111.5t65 96t94 39q123 0 123 -149q0 -55 -18 -127h-236q-8 -32 -8 -68q0 -48 20.5 -77t62.5 -29q45 0 87 54l31 -43q-56 -68 -127 -68zM108 270h170q10 43 10 75
q0 40 -16.5 66.5t-47.5 26.5q-45 0 -75 -52t-41 -116zM206 627h-46l-68 144h67z" />
    <glyph glyph-name="uni1EC2" unicode="&#x1ec2;" horiz-adv-x="352" 
d="M377 682h-39l-38 79l-79 -79h-44l98 108h66zM257 0h-248l147 667h248l-15 -67h-172l-50 -225h165l-15 -67h-165l-53 -241h172zM357 809l-28 7q20 32 59 32q50 0 50 -36q0 -29 -35 -56h-37q37 24 38 52q2 18 -18 18q-17 0 -29 -17z" />
    <glyph glyph-name="uni1EC3" unicode="&#x1ec3;" horiz-adv-x="373" 
d="M365 556h-39l-38 105l-79 -105h-44l98 144h66zM164 -12q-66 0 -103 42t-37 124q0 40 11.5 94.5t34.5 111.5t65 96t94 39q123 0 123 -149q0 -55 -18 -127h-236q-8 -32 -8 -68q0 -48 20.5 -77t62.5 -29q45 0 87 54l31 -43q-56 -68 -127 -68zM108 270h170q10 43 10 75
q0 40 -16.5 66.5t-47.5 26.5q-45 0 -75 -52t-41 -116zM343 737l-28 10q20 43 59 43q50 0 50 -48q0 -40 -35 -75h-37q37 32 38 69q2 24 -18 24q-18 0 -29 -23z" />
    <glyph glyph-name="uni1EC4" unicode="&#x1ec4;" horiz-adv-x="352" 
d="M371 678h-39l-38 52l-79 -52h-44l98 72h66zM257 0h-248l147 667h248l-15 -67h-172l-50 -225h165l-15 -67h-165l-53 -241h172zM340 757q-21 0 -32 7.5t-13 16t-8 16t-18 7.5q-30 0 -48 -44h-40q31 67 95 67q21 0 32 -7.5t13 -16.5t8 -16.5t18 -7.5q28 0 48 45h40
q-29 -67 -95 -67z" />
    <glyph glyph-name="uni1EC5" unicode="&#x1ec5;" horiz-adv-x="373" 
d="M358 523h-39l-38 105l-79 -105h-44l98 144h66zM164 -12q-66 0 -103 42t-37 124q0 40 11.5 94.5t34.5 111.5t65 96t94 39q123 0 123 -149q0 -55 -18 -127h-236q-8 -32 -8 -68q0 -48 20.5 -77t62.5 -29q45 0 87 54l31 -43q-56 -68 -127 -68zM108 270h170q10 43 10 75
q0 40 -16.5 66.5t-47.5 26.5q-45 0 -75 -52t-41 -116zM341 682q-21 0 -32 15t-13 32.5t-8 32.5t-18 15q-29 0 -48 -89h-40q31 134 95 134q21 0 32 -15t13 -32.5t8 -32.5t18 -15q28 0 48 89h40q-29 -134 -95 -134z" />
    <glyph glyph-name="uni1EC6" unicode="&#x1ec6;" horiz-adv-x="352" 
d="M393 723h-39l-38 105l-79 -105h-44l98 144h66zM257 0h-248l147 667h248l-15 -67h-172l-50 -225h165l-15 -67h-165l-53 -241h172zM146 -133q0 -20 -15 -34.5t-35 -14.5q-17 0 -28.5 11.5t-11.5 28.5q0 20 15 34.5t35 14.5q17 0 28.5 -11.5t11.5 -28.5z" />
    <glyph glyph-name="uni1EC7" unicode="&#x1ec7;" horiz-adv-x="373" 
d="M364 556h-39l-38 105l-79 -105h-44l98 144h66zM164 -12q-66 0 -103 42t-37 124q0 40 11.5 94.5t34.5 111.5t65 96t94 39q123 0 123 -149q0 -55 -18 -127h-236q-8 -32 -8 -68q0 -48 20.5 -77t62.5 -29q45 0 87 54l31 -43q-56 -68 -127 -68zM108 270h170q10 43 10 75
q0 40 -16.5 66.5t-47.5 26.5q-45 0 -75 -52t-41 -116zM157 -133q0 -20 -15 -34.5t-35 -14.5q-17 0 -28.5 11.5t-11.5 28.5q0 20 15 34.5t35 14.5q17 0 28.5 -11.5t11.5 -28.5z" />
    <glyph glyph-name="uni1EC8" unicode="&#x1ec8;" horiz-adv-x="201" 
d="M84 0h-75l147 667h75zM188 767l-28 10q20 43 59 43q50 0 50 -48q0 -40 -35 -75h-37q37 32 38 69q2 24 -18 24q-17 0 -29 -23z" />
    <glyph glyph-name="uni1EC9" unicode="&#x1ec9;" horiz-adv-x="180" 
d="M70 0h-68l107 483h68zM140 597l-28 10q20 43 59 43q50 0 50 -48q0 -40 -35 -75h-37q37 32 38 69q2 24 -18 24q-17 0 -29 -23z" />
    <glyph glyph-name="uni1ECA" unicode="&#x1eca;" horiz-adv-x="201" 
d="M84 0h-75l147 667h75zM61 -133q0 -20 -15 -34.5t-35 -14.5q-17 0 -28.5 11.5t-11.5 28.5q0 20 15 34.5t35 14.5q17 0 28.5 -11.5t11.5 -28.5z" />
    <glyph glyph-name="uni1ECB" unicode="&#x1ecb;" horiz-adv-x="180" 
d="M163 554q-18 0 -30.5 12t-12.5 29q0 23 17 38.5t37 15.5q18 0 30.5 -12.5t12.5 -29.5q0 -23 -17 -38t-37 -15zM70 0h-68l107 483h68zM52 -133q0 -20 -15 -34.5t-35 -14.5q-17 0 -28.5 11.5t-11.5 28.5q0 20 15 34.5t35 14.5q17 0 28.5 -11.5t11.5 -28.5z" />
    <glyph glyph-name="uni1ECC" unicode="&#x1ecc;" horiz-adv-x="434" 
d="M175 -12q-69 0 -102.5 52.5t-33.5 136.5q0 46 9 107t29.5 131t49 128t73 96.5t96.5 38.5q69 0 103 -53.5t34 -137.5q0 -59 -15.5 -139t-44.5 -163t-81.5 -140t-116.5 -57zM180 56q38 0 72.5 50t55.5 121t33.5 142t12.5 121q0 120 -64 120q-39 0 -73 -50t-55 -121.5
t-33 -143t-12 -121.5q0 -118 63 -118zM177 -133q0 -20 -15 -34.5t-35 -14.5q-17 0 -28.5 11.5t-11.5 28.5q0 20 15 34.5t35 14.5q17 0 28.5 -11.5t11.5 -28.5z" />
    <glyph glyph-name="uni1ECD" unicode="&#x1ecd;" horiz-adv-x="382" 
d="M150 -12q-60 0 -93 39.5t-33 117.5q0 74 22 152t71.5 138t113.5 60q60 0 92.5 -39t32.5 -118q0 -74 -22 -152t-71 -138t-113 -60zM154 49q39 0 71 54.5t46.5 119.5t14.5 115q0 96 -59 96q-39 0 -71.5 -55t-47 -120t-14.5 -115q0 -95 60 -95zM152 -133q0 -20 -15 -34.5
t-35 -14.5q-17 0 -28.5 11.5t-11.5 28.5q0 20 15 34.5t35 14.5q17 0 28.5 -11.5t11.5 -28.5z" />
    <glyph glyph-name="uni1ECE" unicode="&#x1ece;" horiz-adv-x="434" 
d="M175 -12q-69 0 -102.5 52.5t-33.5 136.5q0 46 9 107t29.5 131t49 128t73 96.5t96.5 38.5q69 0 103 -53.5t34 -137.5q0 -59 -15.5 -139t-44.5 -163t-81.5 -140t-116.5 -57zM180 56q38 0 72.5 50t55.5 121t33.5 142t12.5 121q0 120 -64 120q-39 0 -73 -50t-55 -121.5
t-33 -143t-12 -121.5q0 -118 63 -118zM304 767l-28 10q20 43 59 43q50 0 50 -48q0 -40 -35 -75h-37q37 32 38 69q2 24 -18 24q-17 0 -29 -23z" />
    <glyph glyph-name="uni1ECF" unicode="&#x1ecf;" horiz-adv-x="382" 
d="M150 -12q-60 0 -93 39.5t-33 117.5q0 74 22 152t71.5 138t113.5 60q60 0 92.5 -39t32.5 -118q0 -74 -22 -152t-71 -138t-113 -60zM154 49q39 0 71 54.5t46.5 119.5t14.5 115q0 96 -59 96q-39 0 -71.5 -55t-47 -120t-14.5 -115q0 -95 60 -95zM242 597l-28 10q20 43 59 43
q50 0 50 -48q0 -40 -35 -75h-37q37 32 38 69q2 24 -18 24q-17 0 -29 -23z" />
    <glyph glyph-name="uni1ED0" unicode="&#x1ed0;" horiz-adv-x="434" 
d="M408 682h-39l-38 79l-79 -79h-44l98 108h66zM575 843l-132 -108h-48l111 108h69zM175 -12q-69 0 -102.5 52.5t-33.5 136.5q0 46 9 107t29.5 131t49 128t73 96.5t96.5 38.5q69 0 103 -53.5t34 -137.5q0 -59 -15.5 -139t-44.5 -163t-81.5 -140t-116.5 -57zM180 56
q38 0 72.5 50t55.5 121t33.5 142t12.5 121q0 120 -64 120q-39 0 -73 -50t-55 -121.5t-33 -143t-12 -121.5q0 -118 63 -118z" />
    <glyph glyph-name="uni1ED1" unicode="&#x1ed1;" horiz-adv-x="382" 
d="M360 556h-39l-38 105l-79 -105h-44l98 144h66zM529 771l-132 -144h-48l111 144h69zM150 -12q-60 0 -93 39.5t-33 117.5q0 74 22 152t71.5 138t113.5 60q60 0 92.5 -39t32.5 -118q0 -74 -22 -152t-71 -138t-113 -60zM154 49q39 0 71 54.5t46.5 119.5t14.5 115q0 96 -59 96
q-39 0 -71.5 -55t-47 -120t-14.5 -115q0 -95 60 -95z" />
    <glyph glyph-name="uni1ED2" unicode="&#x1ed2;" horiz-adv-x="434" 
d="M407 682h-39l-38 79l-79 -79h-44l98 108h66zM175 -12q-69 0 -102.5 52.5t-33.5 136.5q0 46 9 107t29.5 131t49 128t73 96.5t96.5 38.5q69 0 103 -53.5t34 -137.5q0 -59 -15.5 -139t-44.5 -163t-81.5 -140t-116.5 -57zM180 56q38 0 72.5 50t55.5 121t33.5 142t12.5 121
q0 120 -64 120q-39 0 -73 -50t-55 -121.5t-33 -143t-12 -121.5q0 -118 63 -118zM245 735h-46l-68 108h67z" />
    <glyph glyph-name="uni1ED3" unicode="&#x1ed3;" horiz-adv-x="382" 
d="M360 556h-39l-38 105l-79 -105h-44l98 144h66zM150 -12q-60 0 -93 39.5t-33 117.5q0 74 22 152t71.5 138t113.5 60q60 0 92.5 -39t32.5 -118q0 -74 -22 -152t-71 -138t-113 -60zM154 49q39 0 71 54.5t46.5 119.5t14.5 115q0 96 -59 96q-39 0 -71.5 -55t-47 -120
t-14.5 -115q0 -95 60 -95zM201 627h-46l-68 144h67z" />
    <glyph glyph-name="uni1ED4" unicode="&#x1ed4;" horiz-adv-x="434" 
d="M407 682h-39l-38 79l-79 -79h-44l98 108h66zM175 -12q-69 0 -102.5 52.5t-33.5 136.5q0 46 9 107t29.5 131t49 128t73 96.5t96.5 38.5q69 0 103 -53.5t34 -137.5q0 -59 -15.5 -139t-44.5 -163t-81.5 -140t-116.5 -57zM180 56q38 0 72.5 50t55.5 121t33.5 142t12.5 121
q0 120 -64 120q-39 0 -73 -50t-55 -121.5t-33 -143t-12 -121.5q0 -118 63 -118zM387 809l-28 7q20 32 59 32q50 0 50 -36q0 -29 -35 -56h-37q37 24 38 52q2 18 -18 18q-17 0 -29 -17z" />
    <glyph glyph-name="uni1ED5" unicode="&#x1ed5;" horiz-adv-x="382" 
d="M360 556h-39l-38 105l-79 -105h-44l98 144h66zM150 -12q-60 0 -93 39.5t-33 117.5q0 74 22 152t71.5 138t113.5 60q60 0 92.5 -39t32.5 -118q0 -74 -22 -152t-71 -138t-113 -60zM154 49q39 0 71 54.5t46.5 119.5t14.5 115q0 96 -59 96q-39 0 -71.5 -55t-47 -120
t-14.5 -115q0 -95 60 -95zM338 737l-28 10q20 43 59 43q50 0 50 -48q0 -40 -35 -75h-37q37 32 38 69q2 24 -18 24q-17 0 -29 -23z" />
    <glyph glyph-name="uni1ED6" unicode="&#x1ed6;" horiz-adv-x="434" 
d="M402 678h-39l-38 52l-79 -52h-44l98 72h66zM175 -12q-69 0 -102.5 52.5t-33.5 136.5q0 46 9 107t29.5 131t49 128t73 96.5t96.5 38.5q69 0 103 -53.5t34 -137.5q0 -59 -15.5 -139t-44.5 -163t-81.5 -140t-116.5 -57zM180 56q38 0 72.5 50t55.5 121t33.5 142t12.5 121
q0 120 -64 120q-39 0 -73 -50t-55 -121.5t-33 -143t-12 -121.5q0 -118 63 -118zM370 757q-21 0 -32 7.5t-13 16t-8 16t-18 7.5q-30 0 -48 -44h-40q31 67 95 67q21 0 32 -7.5t13 -16.5t8 -16.5t18 -7.5q28 0 48 45h40q-29 -67 -95 -67z" />
    <glyph glyph-name="uni1ED7" unicode="&#x1ed7;" horiz-adv-x="382" 
d="M353 523h-39l-38 105l-79 -105h-44l98 144h66zM150 -12q-60 0 -93 39.5t-33 117.5q0 74 22 152t71.5 138t113.5 60q60 0 92.5 -39t32.5 -118q0 -74 -22 -152t-71 -138t-113 -60zM154 49q39 0 71 54.5t46.5 119.5t14.5 115q0 96 -59 96q-39 0 -71.5 -55t-47 -120
t-14.5 -115q0 -95 60 -95zM336 682q-21 0 -32 15t-13 32.5t-8 32.5t-18 15q-29 0 -48 -89h-40q31 134 95 134q21 0 32 -15t13 -32.5t8 -32.5t18 -15q28 0 48 89h40q-29 -134 -95 -134z" />
    <glyph glyph-name="uni1ED8" unicode="&#x1ed8;" horiz-adv-x="434" 
d="M423 723h-39l-38 105l-79 -105h-44l98 144h66zM175 -12q-69 0 -102.5 52.5t-33.5 136.5q0 46 9 107t29.5 131t49 128t73 96.5t96.5 38.5q69 0 103 -53.5t34 -137.5q0 -59 -15.5 -139t-44.5 -163t-81.5 -140t-116.5 -57zM180 56q38 0 72.5 50t55.5 121t33.5 142t12.5 121
q0 120 -64 120q-39 0 -73 -50t-55 -121.5t-33 -143t-12 -121.5q0 -118 63 -118zM177 -133q0 -20 -15 -34.5t-35 -14.5q-17 0 -28.5 11.5t-11.5 28.5q0 20 15 34.5t35 14.5q17 0 28.5 -11.5t11.5 -28.5z" />
    <glyph glyph-name="uni1ED9" unicode="&#x1ed9;" horiz-adv-x="382" 
d="M361 556h-39l-38 105l-79 -105h-44l98 144h66zM150 -12q-60 0 -93 39.5t-33 117.5q0 74 22 152t71.5 138t113.5 60q60 0 92.5 -39t32.5 -118q0 -74 -22 -152t-71 -138t-113 -60zM154 49q39 0 71 54.5t46.5 119.5t14.5 115q0 96 -59 96q-39 0 -71.5 -55t-47 -120
t-14.5 -115q0 -95 60 -95zM152 -133q0 -20 -15 -34.5t-35 -14.5q-17 0 -28.5 11.5t-11.5 28.5q0 20 15 34.5t35 14.5q17 0 28.5 -11.5t11.5 -28.5z" />
    <glyph glyph-name="uni1EDA" unicode="&#x1eda;" horiz-adv-x="434" 
d="M465 867l-132 -144h-48l111 144h69zM175 -12q-69 0 -102.5 52.5t-33.5 136.5q0 46 9 107t29.5 131t49 128t73 96.5t96.5 38.5q92 0 123 -97q41 28 52 64h-7q-14 0 -23.5 10t-9.5 25q0 19 14 32.5t32 13.5t29.5 -12t11.5 -34q0 -38 -26 -75t-64 -59q5 -24 5 -59
q0 -59 -15.5 -139t-44.5 -163t-81.5 -140t-116.5 -57zM180 56q38 0 72.5 50t55.5 121t33.5 142t12.5 121q0 120 -64 120q-39 0 -73 -50t-55 -121.5t-33 -143t-12 -121.5q0 -118 63 -118z" />
    <glyph glyph-name="uni1EDB" unicode="&#x1edb;" horiz-adv-x="382" 
d="M402 700l-132 -144h-48l111 144h69zM427 546q0 -35 -24 -71t-59 -59q12 -32 12 -78q0 -74 -22 -152t-71 -138t-113 -60q-60 0 -93 39.5t-33 117.5q0 74 22 152t71.5 138t113.5 60q67 0 98 -47q41 29 51 63h-7q-13 0 -23 10t-10 25q0 19 14 32.5t32 13.5t29.5 -12
t11.5 -34zM154 49q39 0 71 54.5t46.5 119.5t14.5 115q0 96 -59 96q-39 0 -71.5 -55t-47 -120t-14.5 -115q0 -95 60 -95z" />
    <glyph glyph-name="uni1EDC" unicode="&#x1edc;" horiz-adv-x="434" 
d="M175 -12q-69 0 -102.5 52.5t-33.5 136.5q0 46 9 107t29.5 131t49 128t73 96.5t96.5 38.5q92 0 123 -97q41 28 52 64h-7q-14 0 -23.5 10t-9.5 25q0 19 14 32.5t32 13.5t29.5 -12t11.5 -34q0 -38 -26 -75t-64 -59q5 -24 5 -59q0 -59 -15.5 -139t-44.5 -163t-81.5 -140
t-116.5 -57zM180 56q38 0 72.5 50t55.5 121t33.5 142t12.5 121q0 120 -64 120q-39 0 -73 -50t-55 -121.5t-33 -143t-12 -121.5q0 -118 63 -118zM358 723h-46l-68 144h67z" />
    <glyph glyph-name="uni1EDD" unicode="&#x1edd;" horiz-adv-x="382" 
d="M427 546q0 -35 -24 -71t-59 -59q12 -32 12 -78q0 -74 -22 -152t-71 -138t-113 -60q-60 0 -93 39.5t-33 117.5q0 74 22 152t71.5 138t113.5 60q67 0 98 -47q41 29 51 63h-7q-13 0 -23 10t-10 25q0 19 14 32.5t32 13.5t29.5 -12t11.5 -34zM154 49q39 0 71 54.5t46.5 119.5
t14.5 115q0 96 -59 96q-39 0 -71.5 -55t-47 -120t-14.5 -115q0 -95 60 -95zM297 556h-46l-68 144h67z" />
    <glyph glyph-name="uni1EDE" unicode="&#x1ede;" horiz-adv-x="434" 
d="M175 -12q-69 0 -102.5 52.5t-33.5 136.5q0 46 9 107t29.5 131t49 128t73 96.5t96.5 38.5q92 0 123 -97q41 28 52 64h-7q-14 0 -23.5 10t-9.5 25q0 19 14 32.5t32 13.5t29.5 -12t11.5 -34q0 -38 -26 -75t-64 -59q5 -24 5 -59q0 -59 -15.5 -139t-44.5 -163t-81.5 -140
t-116.5 -57zM180 56q38 0 72.5 50t55.5 121t33.5 142t12.5 121q0 120 -64 120q-39 0 -73 -50t-55 -121.5t-33 -143t-12 -121.5q0 -118 63 -118zM304 767l-28 10q20 43 59 43q50 0 50 -48q0 -40 -35 -75h-37q37 32 38 69q2 24 -18 24q-17 0 -29 -23z" />
    <glyph glyph-name="uni1EDF" unicode="&#x1edf;" horiz-adv-x="382" 
d="M427 546q0 -35 -24 -71t-59 -59q12 -32 12 -78q0 -74 -22 -152t-71 -138t-113 -60q-60 0 -93 39.5t-33 117.5q0 74 22 152t71.5 138t113.5 60q67 0 98 -47q41 29 51 63h-7q-13 0 -23 10t-10 25q0 19 14 32.5t32 13.5t29.5 -12t11.5 -34zM154 49q39 0 71 54.5t46.5 119.5
t14.5 115q0 96 -59 96q-39 0 -71.5 -55t-47 -120t-14.5 -115q0 -95 60 -95zM242 597l-28 10q20 43 59 43q50 0 50 -48q0 -40 -35 -75h-37q37 32 38 69q2 24 -18 24q-17 0 -29 -23z" />
    <glyph glyph-name="uni1EE0" unicode="&#x1ee0;" horiz-adv-x="434" 
d="M175 -12q-69 0 -102.5 52.5t-33.5 136.5q0 46 9 107t29.5 131t49 128t73 96.5t96.5 38.5q92 0 123 -97q41 28 52 64h-7q-14 0 -23.5 10t-9.5 25q0 19 14 32.5t32 13.5t29.5 -12t11.5 -34q0 -38 -26 -75t-64 -59q5 -24 5 -59q0 -59 -15.5 -139t-44.5 -163t-81.5 -140
t-116.5 -57zM180 56q38 0 72.5 50t55.5 121t33.5 142t12.5 121q0 120 -64 120q-39 0 -73 -50t-55 -121.5t-33 -143t-12 -121.5q0 -118 63 -118zM370 721q-21 0 -32 15t-13 32.5t-8 32.5t-18 15q-29 0 -48 -89h-40q31 134 95 134q21 0 32 -15t13 -32.5t8 -32.5t18 -15
q28 0 48 89h40q-29 -134 -95 -134z" />
    <glyph glyph-name="uni1EE1" unicode="&#x1ee1;" horiz-adv-x="382" 
d="M427 546q0 -35 -24 -71t-59 -59q12 -32 12 -78q0 -74 -22 -152t-71 -138t-113 -60q-60 0 -93 39.5t-33 117.5q0 74 22 152t71.5 138t113.5 60q67 0 98 -47q41 29 51 63h-7q-13 0 -23 10t-10 25q0 19 14 32.5t32 13.5t29.5 -12t11.5 -34zM154 49q39 0 71 54.5t46.5 119.5
t14.5 115q0 96 -59 96q-39 0 -71.5 -55t-47 -120t-14.5 -115q0 -95 60 -95zM285 554q-21 0 -32 15t-13 32.5t-8 32.5t-18 15q-29 0 -48 -89h-40q31 134 95 134q21 0 32 -15t13 -32.5t8 -32.5t18 -15q28 0 48 89h40q-29 -134 -95 -134z" />
    <glyph glyph-name="uni1EE2" unicode="&#x1ee2;" horiz-adv-x="434" 
d="M175 -12q-69 0 -102.5 52.5t-33.5 136.5q0 46 9 107t29.5 131t49 128t73 96.5t96.5 38.5q92 0 123 -97q41 28 52 64h-7q-14 0 -23.5 10t-9.5 25q0 19 14 32.5t32 13.5t29.5 -12t11.5 -34q0 -38 -26 -75t-64 -59q5 -24 5 -59q0 -59 -15.5 -139t-44.5 -163t-81.5 -140
t-116.5 -57zM180 56q38 0 72.5 50t55.5 121t33.5 142t12.5 121q0 120 -64 120q-39 0 -73 -50t-55 -121.5t-33 -143t-12 -121.5q0 -118 63 -118zM177 -133q0 -20 -15 -34.5t-35 -14.5q-17 0 -28.5 11.5t-11.5 28.5q0 20 15 34.5t35 14.5q17 0 28.5 -11.5t11.5 -28.5z" />
    <glyph glyph-name="uni1EE3" unicode="&#x1ee3;" horiz-adv-x="382" 
d="M427 546q0 -35 -24 -71t-59 -59q12 -32 12 -78q0 -74 -22 -152t-71 -138t-113 -60q-60 0 -93 39.5t-33 117.5q0 74 22 152t71.5 138t113.5 60q67 0 98 -47q41 29 51 63h-7q-13 0 -23 10t-10 25q0 19 14 32.5t32 13.5t29.5 -12t11.5 -34zM154 49q39 0 71 54.5t46.5 119.5
t14.5 115q0 96 -59 96q-39 0 -71.5 -55t-47 -120t-14.5 -115q0 -95 60 -95zM152 -133q0 -20 -15 -34.5t-35 -14.5q-17 0 -28.5 11.5t-11.5 28.5q0 20 15 34.5t35 14.5q17 0 28.5 -11.5t11.5 -28.5z" />
    <glyph glyph-name="uni1EE4" unicode="&#x1ee4;" horiz-adv-x="437" 
d="M181 -12q-61 0 -100 37.5t-39 102.5q0 24 5 46l109 493h75l-110 -498q-4 -28 -4 -36q0 -38 19.5 -58t50.5 -20q36 0 59 26.5t36 87.5l110 498h75l-109 -495q-41 -184 -177 -184zM177 -133q0 -20 -15 -34.5t-35 -14.5q-17 0 -28.5 11.5t-11.5 28.5q0 20 15 34.5t35 14.5
q17 0 28.5 -11.5t11.5 -28.5z" />
    <glyph glyph-name="uni1EE5" unicode="&#x1ee5;" 
d="M109 483h68l-82 -371q-3 -14 -3 -24q0 -39 38 -39q25 0 51 22t46 55l80 357h68l-107 -483h-68l14 64q-54 -76 -117 -76q-37 0 -57.5 19.5t-20.5 54.5q0 19 4 31zM150 -133q0 -20 -15 -34.5t-35 -14.5q-17 0 -28.5 11.5t-11.5 28.5q0 20 15 34.5t35 14.5q17 0 28.5 -11.5
t11.5 -28.5z" />
    <glyph glyph-name="uni1EE6" unicode="&#x1ee6;" horiz-adv-x="437" 
d="M181 -12q-61 0 -100 37.5t-39 102.5q0 24 5 46l109 493h75l-110 -498q-4 -28 -4 -36q0 -38 19.5 -58t50.5 -20q36 0 59 26.5t36 87.5l110 498h75l-109 -495q-41 -184 -177 -184zM305 767l-28 10q20 43 59 43q50 0 50 -48q0 -40 -35 -75h-37q37 32 38 69q2 24 -18 24
q-18 0 -29 -23z" />
    <glyph glyph-name="uni1EE7" unicode="&#x1ee7;" 
d="M109 483h68l-82 -371q-3 -14 -3 -24q0 -39 38 -39q25 0 51 22t46 55l80 357h68l-107 -483h-68l14 64q-54 -76 -117 -76q-37 0 -57.5 19.5t-20.5 54.5q0 19 4 31zM241 597l-28 10q20 43 59 43q50 0 50 -48q0 -40 -35 -75h-37q37 32 38 69q2 24 -18 24q-18 0 -29 -23z" />
    <glyph glyph-name="uni1EE8" unicode="&#x1ee8;" horiz-adv-x="437" 
d="M465 867l-132 -144h-48l111 144h69zM562 744q0 -40 -32.5 -81.5t-77.5 -61.5l-94 -429q-41 -184 -177 -184q-61 0 -100 37.5t-39 102.5q0 24 5 46l109 493h75l-110 -498q-4 -28 -4 -36q0 -38 19.5 -58t50.5 -20q36 0 59 26.5t36 87.5l110 498h75l-5 -22q42 28 53 64h-7
q-14 0 -23.5 10t-9.5 25q0 19 14 32.5t32 13.5t29.5 -12t11.5 -34z" />
    <glyph glyph-name="uni1EE9" unicode="&#x1ee9;" 
d="M400 700l-132 -144h-48l111 144h69zM453 551q0 -37 -26.5 -75t-66.5 -61l-92 -415h-68l14 64q-54 -76 -117 -76q-37 0 -57.5 19.5t-20.5 54.5q0 19 4 31l86 390h68l-82 -371q-3 -21 -3 -24q0 -39 38 -39q25 0 51 22t46 55l80 357h68l-4 -18q26 25 35 51h-7
q-13 0 -22.5 10t-9.5 25q0 19 13.5 32t32.5 13q17 0 28.5 -11.5t11.5 -33.5z" />
    <glyph glyph-name="uni1EEA" unicode="&#x1eea;" horiz-adv-x="437" 
d="M359 723h-46l-68 144h67zM562 744q0 -40 -32.5 -81.5t-77.5 -61.5l-94 -429q-41 -184 -177 -184q-61 0 -100 37.5t-39 102.5q0 24 5 46l109 493h75l-110 -498q-4 -28 -4 -36q0 -38 19.5 -58t50.5 -20q36 0 59 26.5t36 87.5l110 498h75l-5 -22q42 28 53 64h-7
q-14 0 -23.5 10t-9.5 25q0 19 14 32.5t32 13.5t29.5 -12t11.5 -34z" />
    <glyph glyph-name="uni1EEB" unicode="&#x1eeb;" 
d="M296 556h-46l-68 144h67zM453 551q0 -37 -26.5 -75t-66.5 -61l-92 -415h-68l14 64q-54 -76 -117 -76q-37 0 -57.5 19.5t-20.5 54.5q0 19 4 31l86 390h68l-82 -371q-3 -21 -3 -24q0 -39 38 -39q25 0 51 22t46 55l80 357h68l-4 -18q26 25 35 51h-7q-13 0 -22.5 10t-9.5 25
q0 19 13.5 32t32.5 13q17 0 28.5 -11.5t11.5 -33.5z" />
    <glyph glyph-name="uni1EEC" unicode="&#x1eec;" horiz-adv-x="437" 
d="M305 767l-28 10q20 43 59 43q50 0 50 -48q0 -40 -35 -75h-37q37 32 38 69q2 24 -18 24q-18 0 -29 -23zM562 744q0 -40 -32.5 -81.5t-77.5 -61.5l-94 -429q-41 -184 -177 -184q-61 0 -100 37.5t-39 102.5q0 24 5 46l109 493h75l-110 -498q-4 -28 -4 -36q0 -38 19.5 -58
t50.5 -20q36 0 59 26.5t36 87.5l110 498h75l-5 -22q42 28 53 64h-7q-14 0 -23.5 10t-9.5 25q0 19 14 32.5t32 13.5t29.5 -12t11.5 -34z" />
    <glyph glyph-name="uni1EED" unicode="&#x1eed;" 
d="M241 597l-28 10q20 43 59 43q50 0 50 -48q0 -40 -35 -75h-37q37 32 38 69q2 24 -18 24q-18 0 -29 -23zM453 551q0 -37 -26.5 -75t-66.5 -61l-92 -415h-68l14 64q-54 -76 -117 -76q-37 0 -57.5 19.5t-20.5 54.5q0 19 4 31l86 390h68l-82 -371q-3 -21 -3 -24q0 -39 38 -39
q25 0 51 22t46 55l80 357h68l-4 -18q26 25 35 51h-7q-13 0 -22.5 10t-9.5 25q0 19 13.5 32t32.5 13q17 0 28.5 -11.5t11.5 -33.5z" />
    <glyph glyph-name="uni1EEE" unicode="&#x1eee;" horiz-adv-x="437" 
d="M562 744q0 -40 -32.5 -81.5t-77.5 -61.5l-94 -429q-41 -184 -177 -184q-61 0 -100 37.5t-39 102.5q0 24 5 46l109 493h75l-110 -498q-4 -28 -4 -36q0 -38 19.5 -58t50.5 -20q36 0 59 26.5t36 87.5l110 498h75l-5 -22q42 28 53 64h-7q-14 0 -23.5 10t-9.5 25q0 19 14 32.5
t32 13.5t29.5 -12t11.5 -34zM371 721q-21 0 -32 15t-13 32.5t-8 32.5t-18 15q-29 0 -48 -89h-40q31 134 95 134q21 0 32 -15t13 -32.5t8 -32.5t18 -15q28 0 48 89h40q-29 -134 -95 -134z" />
    <glyph glyph-name="uni1EEF" unicode="&#x1eef;" 
d="M453 551q0 -37 -26.5 -75t-66.5 -61l-92 -415h-68l14 64q-54 -76 -117 -76q-37 0 -57.5 19.5t-20.5 54.5q0 19 4 31l86 390h68l-82 -371q-3 -21 -3 -24q0 -39 38 -39q25 0 51 22t46 55l80 357h68l-4 -18q26 25 35 51h-7q-13 0 -22.5 10t-9.5 25q0 19 13.5 32t32.5 13
q17 0 28.5 -11.5t11.5 -33.5zM294 554q-21 0 -32 15t-13 32.5t-8 32.5t-18 15q-29 0 -48 -89h-40q31 134 95 134q21 0 32 -15t13 -32.5t8 -32.5t18 -15q28 0 48 89h40q-29 -134 -95 -134z" />
    <glyph glyph-name="uni1EF0" unicode="&#x1ef0;" horiz-adv-x="437" 
d="M177 -133q0 -20 -15 -34.5t-35 -14.5q-17 0 -28.5 11.5t-11.5 28.5q0 20 15 34.5t35 14.5q17 0 28.5 -11.5t11.5 -28.5zM562 744q0 -40 -32.5 -81.5t-77.5 -61.5l-94 -429q-41 -184 -177 -184q-61 0 -100 37.5t-39 102.5q0 24 5 46l109 493h75l-110 -498q-4 -28 -4 -36
q0 -38 19.5 -58t50.5 -20q36 0 59 26.5t36 87.5l110 498h75l-5 -22q42 28 53 64h-7q-14 0 -23.5 10t-9.5 25q0 19 14 32.5t32 13.5t29.5 -12t11.5 -34z" />
    <glyph glyph-name="uni1EF1" unicode="&#x1ef1;" 
d="M150 -133q0 -20 -15 -34.5t-35 -14.5q-17 0 -28.5 11.5t-11.5 28.5q0 20 15 34.5t35 14.5q17 0 28.5 -11.5t11.5 -28.5zM453 551q0 -37 -26.5 -75t-66.5 -61l-92 -415h-68l14 64q-54 -76 -117 -76q-37 0 -57.5 19.5t-20.5 54.5q0 19 4 31l86 390h68l-82 -371
q-3 -21 -3 -24q0 -39 38 -39q25 0 51 22t46 55l80 357h68l-4 -18q26 25 35 51h-7q-13 0 -22.5 10t-9.5 25q0 19 13.5 32t32.5 13q17 0 28.5 -11.5t11.5 -33.5z" />
    <glyph glyph-name="Ygrave" unicode="&#x1ef2;" horiz-adv-x="372" 
d="M170 0h-75l62 283l-65 384h78l38 -307l174 307h84l-234 -384zM329 723h-46l-68 144h67z" />
    <glyph glyph-name="ygrave" unicode="&#x1ef3;" horiz-adv-x="326" 
d="M-61 -186l23 57q6 -6 23 -6q15 0 25.5 10t22.5 35l37 77l-8 496h71l-8 -396l170 396h74l-274 -589q-25 -51 -49 -70.5t-58 -19.5q-29 0 -49 10zM265 556h-46l-68 144h67z" />
    <glyph glyph-name="thinspace" unicode="&#x2009;" horiz-adv-x="34" 
 />
    <glyph glyph-name="endash" unicode="&#x2013;" horiz-adv-x="460" 
d="M422 211h-400l14 61h400z" />
    <glyph glyph-name="emdash" unicode="&#x2014;" horiz-adv-x="640" 
d="M602 211h-580l14 61h580z" />
    <glyph glyph-name="afii00208" unicode="&#x2015;" horiz-adv-x="460" 
d="M422 211h-400l14 61h400z" />
    <glyph glyph-name="quoteleft" unicode="&#x2018;" horiz-adv-x="228" 
d="M121 520q0 44 32.5 89t78.5 68l29 -30q-28 -15 -51 -38t-31 -46h8q16 0 28 -12.5t12 -30.5q0 -22 -17 -38.5t-39 -16.5t-36 14.5t-14 40.5z" />
    <glyph glyph-name="quoteright" unicode="&#x2019;" horiz-adv-x="228" 
d="M252 622q0 -44 -33 -89t-79 -68l-28 30q28 15 51 38t31 46h-8q-16 0 -28 12t-12 30q0 23 17 39.5t39 16.5t36 -14.5t14 -40.5z" />
    <glyph glyph-name="quotesinglbase" unicode="&#x201a;" horiz-adv-x="228" 
d="M123 38q0 -44 -33 -89t-79 -68l-29 31q28 14 51.5 37t30.5 47q-2 -1 -8 -1q-16 0 -27.5 12t-11.5 30q0 23 16.5 39.5t39.5 16.5q21 0 35.5 -14.5t14.5 -40.5z" />
    <glyph glyph-name="quotereversed" unicode="&#x201b;" horiz-adv-x="228" 
d="M131 581q0 46 22 71t48 25q23 0 36 -13t13 -31q0 -23 -16 -38t-40 -15q-11 0 -20 3q-3 -24 8.5 -52.5t32.5 -48.5l-34 -22q-50 53 -50 121z" />
    <glyph glyph-name="quotedblleft" unicode="&#x201c;" horiz-adv-x="382" 
d="M275 520q0 44 32.5 89t78.5 68l29 -30q-28 -15 -51 -38t-31 -46h8q16 0 28 -12.5t12 -30.5q0 -22 -17 -38.5t-39 -16.5t-36 14.5t-14 40.5zM122 520q0 45 33 89.5t79 67.5l28 -30q-29 -15 -52 -38t-30 -46h7q17 0 29 -12.5t12 -30.5q0 -22 -17 -38.5t-39 -16.5t-36 14.5
t-14 40.5z" />
    <glyph glyph-name="quotedblright" unicode="&#x201d;" horiz-adv-x="382" 
d="M252 622q0 -44 -33 -89t-79 -68l-28 30q28 15 51 38t31 46h-8q-16 0 -28 12t-12 30q0 23 17 39.5t39 16.5t36 -14.5t14 -40.5zM405 622q0 -45 -33 -89.5t-79 -67.5l-28 30q28 15 51.5 38t30.5 46h-8q-16 0 -28 12t-12 30q0 23 17 39.5t39 16.5q21 0 35.5 -14.5
t14.5 -40.5z" />
    <glyph glyph-name="quotedblbase" unicode="&#x201e;" horiz-adv-x="382" 
d="M123 38q0 -44 -33 -89t-79 -68l-29 31q28 14 51.5 37t30.5 47q-3 -1 -8 -1q-16 0 -27.5 12t-11.5 30q0 23 16.5 39.5t39.5 16.5q21 0 35.5 -14.5t14.5 -40.5zM275 38q0 -44 -32.5 -89t-78.5 -68l-29 31q29 14 52 37t31 47q-3 -1 -8 -1q-17 0 -29 12t-12 30q0 23 17 39.5
t39 16.5t36 -14.5t14 -40.5z" />
    <glyph glyph-name="dagger" unicode="&#x2020;" horiz-adv-x="261" 
d="M302 532l-88 4l-43 -209h-45l50 209l-90 -4l9 41l89 -3l20 107h45l-28 -107l90 3z" />
    <glyph glyph-name="daggerdbl" unicode="&#x2021;" horiz-adv-x="261" 
d="M311 573l-9 -41l-88 4l-48 -215l90 4l-9 -41l-88 3l-21 -107h-45l28 107l-90 -3l9 41l88 -4l48 215l-90 -4l9 41l88 -3l21 107h45l-28 -107z" />
    <glyph glyph-name="bullet" unicode="&#x2022;" horiz-adv-x="358" 
d="M286 253q0 -47 -35.5 -81.5t-83.5 -34.5q-41 0 -68 27.5t-27 67.5q0 47 35.5 81.5t83.5 34.5q41 0 68 -27t27 -68z" />
    <glyph glyph-name="ellipsis" unicode="&#x2026;" horiz-adv-x="680" 
d="M63 -10q-19 0 -32.5 13.5t-13.5 33.5q0 23 16.5 39.5t39.5 16.5q20 0 33.5 -13.5t13.5 -33.5q0 -24 -16.5 -40t-40.5 -16zM290 -10q-20 0 -33.5 13.5t-13.5 33.5q0 23 17 39.5t40 16.5q20 0 33.5 -13.5t13.5 -33.5q0 -24 -16.5 -40t-40.5 -16zM517 -10q-20 0 -33.5 13.5
t-13.5 33.5q0 23 16.5 39.5t39.5 16.5q20 0 34 -13.5t14 -33.5q0 -24 -17 -40t-40 -16z" />
    <glyph glyph-name="perthousand" unicode="&#x2030;" horiz-adv-x="840" 
d="M115 0h-41l420 667h42zM378 -12q-51 0 -77.5 34.5t-26.5 86.5q0 85 45 146t103 61q51 0 77 -34.5t26 -86.5q0 -85 -45.5 -146t-101.5 -61zM380 35q34 0 63 46t29 110q0 79 -53 79q-34 0 -63 -46.5t-29 -110.5q0 -78 53 -78zM187 349q-51 0 -77 34.5t-26 86.5q0 85 45 146
t102 61q50 0 76.5 -34.5t26.5 -86.5q0 -85 -45 -146t-102 -61zM190 395q34 0 62.5 46.5t28.5 110.5q0 78 -53 78q-34 0 -62.5 -46t-28.5 -110q0 -79 53 -79zM648 -12q-51 0 -77.5 34.5t-26.5 86.5q0 85 45.5 146t102.5 61q51 0 77 -34.5t26 -86.5q0 -85 -45 -146t-102 -61z
M650 35q34 0 63 46t29 110q0 79 -53 79q-34 0 -63 -46.5t-29 -110.5q0 -78 53 -78z" />
    <glyph glyph-name="guilsinglleft" unicode="&#x2039;" horiz-adv-x="208" 
d="M135 63h-56l-50 180l130 177h60l-133 -181z" />
    <glyph glyph-name="guilsinglright" unicode="&#x203a;" horiz-adv-x="208" 
d="M73 420h56l50 -180l-130 -177h-60l133 181z" />
    <glyph glyph-name="uni203E" unicode="&#x203e;" horiz-adv-x="248" 
d="M320 573h-247l9 45h248z" />
    <glyph glyph-name="fraction" unicode="&#x2044;" horiz-adv-x="115" 
d="M308 667l-421 -667h-41l420 667h42z" />
    <glyph glyph-name="zerosuperior" unicode="&#x2070;" horiz-adv-x="265" 
d="M333 701q0 -39 -10 -86.5t-28.5 -93.5t-50.5 -76.5t-71 -30.5q-93 0 -93 126q0 39 10 86.5t28.5 93.5t50.5 76.5t71 30.5q93 0 93 -126zM279 712q0 69 -43 69q-22 0 -42.5 -30t-33 -72.5t-19.5 -83t-7 -66.5q0 -69 42 -69q43 0 73 93.5t30 158.5z" />
    <glyph glyph-name="foursuperior" unicode="&#x2074;" horiz-adv-x="265" 
d="M302 523h-37l-22 -102h-55l22 102h-140l9 46l184 252h68l-56 -253h36zM220 568l41 185l-133 -185h92z" />
    <glyph glyph-name="fivesuperior" unicode="&#x2075;" horiz-adv-x="265" 
d="M303 583q0 -66 -37 -117.5t-95 -51.5q-79 0 -105 70l43 27q14 -51 63 -51q32 0 52.5 37t20.5 81q0 53 -42 53q-35 0 -63 -38l-38 15l48 213h191l-10 -46h-137l-28 -132q26 30 60 30q33 0 55 -22.5t22 -67.5z" />
    <glyph glyph-name="sixsuperior" unicode="&#x2076;" horiz-adv-x="265" 
d="M304 583q0 -60 -34 -114.5t-94 -54.5q-46 0 -70 30.5t-24 87.5q0 38 10.5 86.5t30 96t53.5 80t75 32.5q63 0 88 -54l-38 -33q-13 41 -51 41q-62 0 -98 -148q-3 -12 -3 -13q31 55 80 55q34 0 54.5 -23t20.5 -69zM248 577q0 53 -44 53q-35 0 -64 -58q-6 -28 -6 -45
q0 -28 11 -47.5t33 -19.5q30 0 50 39.5t20 77.5z" />
    <glyph glyph-name="sevensuperior" unicode="&#x2077;" horiz-adv-x="238" 
d="M332 783l-189 -362h-55l187 354h-150l10 46h205z" />
    <glyph glyph-name="eightsuperior" unicode="&#x2078;" horiz-adv-x="265" 
d="M295 536q0 -53 -32.5 -87.5t-83.5 -34.5q-49 0 -79 23t-30 66q0 46 29.5 81t68.5 47q-46 27 -46 79q0 51 33.5 84t79.5 33q42 0 71.5 -22t29.5 -65q0 -40 -25 -72.5t-66 -45.5q20 -11 35 -35t15 -51zM279 736q0 46 -44 46q-26 0 -43 -24t-17 -54q0 -22 12.5 -38t24.5 -21
q29 10 48 33t19 58zM240 539q0 25 -12.5 43.5t-24.5 24.5q-27 -4 -51 -33t-24 -67q0 -22 13 -35.5t35 -13.5q25 0 44.5 23.5t19.5 57.5z" />
    <glyph glyph-name="ninesuperior" unicode="&#x2079;" horiz-adv-x="265" 
d="M110 659q0 60 34 114.5t94 54.5q46 0 70 -30.5t24 -87.5q0 -38 -10.5 -86.5t-30 -96t-53.5 -80t-75 -32.5q-63 0 -88 54l38 33q13 -41 51 -41q62 0 98 148q3 12 3 13q-31 -55 -80 -55q-34 0 -54.5 23t-20.5 69zM166 665q0 -53 43 -53q36 0 65 58q6 28 6 45
q0 28 -11.5 47.5t-33.5 19.5q-30 0 -49.5 -39.5t-19.5 -77.5z" />
    <glyph glyph-name="parenleftsuperior" unicode="&#x207d;" horiz-adv-x="133" 
d="M147 368l-30 -12q-22 63 -22 147q0 197 139 383l25 -12q-121 -199 -121 -390q0 -79 9 -116z" />
    <glyph glyph-name="parenrightsuperior" unicode="&#x207e;" horiz-adv-x="133" 
d="M150 874l31 12q21 -59 21 -147q0 -196 -138 -383l-26 12q122 200 122 391q0 74 -10 115z" />
    <glyph glyph-name="nsuperior" unicode="&#x207f;" horiz-adv-x="287" 
d="M260 326h-53l51 232q3 12 3 18q0 27 -29 27q-31 0 -66 -53l-49 -224h-54l69 314h54l-10 -43q35 51 82 51q59 0 59 -50q0 -2 -3 -29z" />
    <glyph glyph-name="zeroinferior" unicode="&#x2080;" horiz-adv-x="265" 
d="M217 134q0 -39 -10 -86.5t-28.5 -93.5t-50.5 -76.5t-71 -30.5q-93 0 -93 126q0 39 10 86.5t28.5 93.5t50.5 76.5t71 30.5q93 0 93 -126zM163 145q0 69 -43 69q-22 0 -42.5 -30t-33 -72.5t-19.5 -83t-7 -66.5q0 -69 42 -69q43 0 73 93.5t30 158.5z" />
    <glyph glyph-name="oneinferior" unicode="&#x2081;" horiz-adv-x="215" 
d="M76 -146h-55l70 324l-69 -60l-27 34l121 102h48z" />
    <glyph glyph-name="twoinferior" unicode="&#x2082;" horiz-adv-x="265" 
d="M155 -146h-210l10 44q131 131 170.5 180t39.5 87q0 23 -13.5 36t-34.5 13q-42 0 -76 -49l-31 36q49 59 110 59q43 0 72.5 -24t29.5 -67q0 -47 -38 -95.5t-148 -159.5l-14 -14h143z" />
    <glyph glyph-name="threeinferior" unicode="&#x2083;" horiz-adv-x="265" 
d="M182 -24q0 -47 -33 -88t-88 -41q-40 0 -69.5 19t-40.5 51l44 30q15 -54 64 -54q33 0 50.5 29.5t17.5 64.5q0 25 -13.5 37.5t-33.5 12.5q-22 0 -27 -1l10 46q5 -1 30 -1q29 0 50 23.5t21 60.5q0 22 -13 35.5t-36 13.5q-39 0 -74 -45l-30 31q45 60 109 60q46 0 73 -23.5
t27 -65.5q0 -38 -24 -73t-64 -42q50 -15 50 -80z" />
    <glyph glyph-name="fourinferior" unicode="&#x2084;" horiz-adv-x="265" 
d="M186 -44h-37l-22 -102h-55l22 102h-140l9 46l184 252h68l-56 -253h36zM104 1l41 185l-133 -185h92z" />
    <glyph glyph-name="fiveinferior" unicode="&#x2085;" horiz-adv-x="265" 
d="M187 16q0 -66 -37 -117.5t-95 -51.5q-79 0 -105 70l43 27q14 -51 63 -51q32 0 52.5 37t20.5 81q0 53 -42 53q-35 0 -63 -38l-38 15l48 213h191l-10 -46h-137l-28 -132q26 30 60 30q33 0 55 -22.5t22 -67.5z" />
    <glyph glyph-name="sixinferior" unicode="&#x2086;" horiz-adv-x="265" 
d="M188 16q0 -60 -34 -114.5t-94 -54.5q-46 0 -70 30.5t-24 87.5q0 38 10.5 86.5t30 96t53.5 80t75 32.5q63 0 88 -54l-38 -33q-13 41 -51 41q-62 0 -98 -148q-3 -12 -3 -13q31 55 80 55q34 0 54.5 -23t20.5 -69zM132 10q0 53 -44 53q-35 0 -64 -58q-6 -28 -6 -45
q0 -28 11 -47.5t33 -19.5q30 0 50 39.5t20 77.5z" />
    <glyph glyph-name="seveninferior" unicode="&#x2087;" horiz-adv-x="238" 
d="M216 216l-189 -362h-55l187 354h-150l10 46h205z" />
    <glyph glyph-name="eightinferior" unicode="&#x2088;" horiz-adv-x="265" 
d="M179 -31q0 -53 -32.5 -87.5t-83.5 -34.5q-49 0 -79 23t-30 66q0 46 29.5 81t68.5 47q-46 27 -46 79q0 51 33.5 84t79.5 33q42 0 71.5 -22t29.5 -65q0 -40 -25 -72.5t-66 -45.5q20 -11 35 -35t15 -51zM163 169q0 46 -44 46q-26 0 -43 -24t-17 -54q0 -22 12.5 -38t24.5 -21
q29 10 48 33t19 58zM124 -28q0 25 -12.5 43.5t-24.5 24.5q-27 -4 -51 -33t-24 -67q0 -22 13 -35.5t35 -13.5q25 0 44.5 23.5t19.5 57.5z" />
    <glyph glyph-name="nineinferior" unicode="&#x2089;" horiz-adv-x="265" 
d="M-6 92q0 60 34 114.5t94 54.5q46 0 70 -30.5t24 -87.5q0 -38 -10.5 -86.5t-30 -96t-53.5 -80t-75 -32.5q-63 0 -88 54l38 33q13 -41 51 -41q62 0 98 148q3 12 3 13q-31 -55 -80 -55q-34 0 -54.5 23t-20.5 69zM50 98q0 -53 43 -53q36 0 65 58q6 28 6 45q0 28 -11.5 47.5
t-33.5 19.5q-30 0 -49.5 -39.5t-19.5 -77.5z" />
    <glyph glyph-name="parenleftinferior" unicode="&#x208d;" horiz-adv-x="133" 
d="M22 -199l-30 -12q-22 63 -22 147q0 197 139 383l25 -12q-121 -199 -121 -390q0 -79 9 -116z" />
    <glyph glyph-name="parenrightinferior" unicode="&#x208e;" horiz-adv-x="133" 
d="M25 307l31 12q21 -59 21 -147q0 -196 -138 -383l-26 12q122 200 122 391q0 74 -10 115z" />
    <glyph glyph-name="colonmonetary" unicode="&#x20a1;" horiz-adv-x="364" 
d="M168 -12q-21 0 -39 6l-41 -94h-47l48 113q-15 12 -27 30l-62 -143h-47l86 200q-7 31 -7 77q0 47 8.5 108t28.5 130.5t48.5 127t72.5 96t96 39.5l39 90h48l-42 -97q17 -5 33 -18l49 115h48l-66 -154q19 -37 24 -90l-69 -14l-194 -452q5 -2 17 -2q47 0 94 85l60 -28
q-66 -125 -159 -125zM110 157q1 -44 12 -68l210 490q-12 22 -29 27zM254 603q-42 -21 -80 -112q-34 -84 -53 -198z" />
    <glyph glyph-name="frenchfranc" unicode="&#x20a3;" horiz-adv-x="368" 
d="M101 0h-75l31 141h-59l10 45h59l106 481h248l-15 -67h-172l-50 -225h165l-15 -67h-165l-27 -122h102l-10 -45h-102z" />
    <glyph glyph-name="lira" unicode="&#x20a4;" horiz-adv-x="380" 
d="M48 327l10 44h45q-8 30 -8 65q0 98 57 169.5t131 71.5q55 0 91.5 -32t39.5 -88l-66 -22q-7 78 -65 78q-41 0 -74.5 -53.5t-33.5 -130.5q0 -29 8 -58h100l-10 -44h-78q7 -26 7 -47q0 -9 -2 -25h57l-9 -44h-57q-13 -43 -38.5 -78.5t-53.5 -55.5q19 10 35 10q23 0 55 -15.5
t48 -15.5q39 0 69 34l12 -60q-37 -42 -95 -42q-36 0 -72 20.5t-57 20.5q-32 0 -79 -36l-15 55q42 25 76 69.5t46 93.5h-99l9 44h96q-1 34 -13 72h-67z" />
    <glyph glyph-name="uni20A6" unicode="&#x20a6;" horiz-adv-x="470" 
d="M336 0h-72l-30 243h-80l-53 -243h-75l53 243h-59l11 45h58l22 98h-58l9 45h59l52 236h75l28 -236h79l53 236h75l-52 -236h56l-9 -45h-57l-22 -98h57l-10 -45h-57zM186 386l-22 -98h65l-12 98h-31zM282 386l11 -98h30l22 98h-63zM206 477l-10 -46h15zM299 243l5 -42l9 42
h-14z" />
    <glyph glyph-name="peseta" unicode="&#x20a7;" horiz-adv-x="441" 
d="M101 0h-75l98 444h-58l10 47h58l39 176h125q58 0 94.5 -42t36.5 -110q0 -4 -0.5 -12t-0.5 -12h57l-11 -47h-54q-18 -76 -69.5 -125.5t-130.5 -49.5h-60zM230 336q41 1 69.5 31t40.5 77h-141l-24 -108h55zM234 600l-25 -109h139q1 6 1 19q0 44 -18.5 67t-49.5 23h-47z" />
    <glyph glyph-name="rupee" unicode="&#x20a8;" horiz-adv-x="681" 
d="M482 -12q-43 0 -77 18t-50 49l42 44q29 -55 88 -55q33 0 56 25t23 59q0 28 -20.5 55t-45.5 46.5t-45.5 52t-20.5 70.5q0 59 38.5 101t102.5 42q76 0 116 -59l-41 -43q-10 21 -31.5 33.5t-45.5 12.5q-32 0 -52 -21t-20 -53q0 -25 21 -51.5t46 -46t46 -53.5t21 -72
q0 -64 -43 -109t-108 -45zM311 0h-78l-27 269h-63l-59 -269h-75l147 667h123q59 0 96.5 -42.5t37.5 -107.5q0 -85 -40.5 -151.5t-96.5 -83.5zM158 336h53q57 0 89.5 53.5t32.5 122.5q0 44 -18 66t-49 22h-49z" />
    <glyph glyph-name="uni20A9" unicode="&#x20a9;" horiz-adv-x="578" 
d="M385 0h-80l21 243h-74l-87 -243h-79l14 243h-73l11 45h65l6 98h-49l9 45h42l15 236h77l-21 -236h81l86 236h64l-19 -236h81l84 236h79l-90 -236h40l-9 -45h-48l-37 -98h62l-10 -45h-69zM178 386l-9 -98h42l36 98h-69zM391 386l-8 -98h42l34 98h-68zM303 386l-35 -98h62
l8 98h-35zM195 243h-30l-9 -107zM409 243h-30l-8 -107zM349 514l-30 -83h23z" />
    <glyph glyph-name="afii57636" unicode="&#x20aa;" horiz-adv-x="497" 
d="M277 0h-166l88 397h56l-77 -344h96q37 0 57.5 23t33.5 79l87 395h56l-87 -390q-36 -160 -144 -160zM123 550h125q56 0 89 -26t33 -79q0 -24 -9 -67l-49 -226h-56l54 241q5 27 5 41q0 63 -70 63h-77l-110 -497h-56z" />
    <glyph glyph-name="dong" unicode="&#x20ab;" horiz-adv-x="397" 
d="M227 -140h-247l9 45h248zM210 495q30 0 54 -20.5t34 -60.5l27 122h-124l8 45h126l19 86h68l-19 -86h40l-10 -45h-40l-119 -536h-68l14 62q-44 -74 -101 -74q-46 0 -71 37t-25 106q0 48 12 107.5t34 118.5t59.5 98.5t81.5 39.5zM221 434q-39 0 -69.5 -58t-44 -124.5
t-13.5 -115.5q0 -87 55 -87q23 0 47 23.5t39 56.5l50 224q-3 34 -21.5 57.5t-42.5 23.5z" />
    <glyph glyph-name="Euro" unicode="&#x20ac;" horiz-adv-x="403" 
d="M188 -12q-65 0 -100.5 48t-35.5 141q0 28 3 62h-41l12 48h35q5 39 19 94h-34l12 49h35q34 109 88 178.5t128 69.5q62 0 93 -42.5t37 -111.5l-71 -14q-8 100 -65 100q-76 0 -130 -180h125l-11 -49h-128q-10 -40 -19 -94h126l-10 -48h-122q-4 -35 -4 -65q0 -63 15.5 -90.5
t47.5 -27.5q47 0 94 85l60 -28q-66 -125 -159 -125z" />
    <glyph glyph-name="afii61289" unicode="&#x2113;" horiz-adv-x="375" 
d="M196 524l-39 -173l113 91q47 37 70 63.5t23 54.5q0 27 -19.5 45t-49.5 18q-77 0 -98 -99zM311 407l-171 -136l-39 -173q-3 -14 -3 -24q0 -30 28 -30q16 0 31 15l12 -49q-23 -22 -59 -22q-82 0 -82 69q0 18 4 38l95 429q34 153 173 153q53 0 91 -28.5t38 -79.5
q0 -40 -26 -74.5t-92 -87.5z" />
    <glyph glyph-name="afii61352" unicode="&#x2116;" horiz-adv-x="725" 
d="M609 350q-95 0 -95 112q0 44 14.5 92t48.5 87t80 39q95 0 95 -112q0 -43 -14.5 -91.5t-49 -87.5t-79.5 -39zM611 395q40 0 63.5 62.5t23.5 112.5q0 64 -44 64q-40 0 -63.5 -62.5t-23.5 -112.5q0 -64 44 -64zM319 0h-72l-58 477l-105 -477h-75l147 667h75l56 -466l104 466
h75z" />
    <glyph glyph-name="published" unicode="&#x2117;" horiz-adv-x="778" 
d="M754 334q0 -142 -101.5 -243.5t-244.5 -101.5q-142 0 -243 101t-101 244t101 244t243 101q143 0 244.5 -101.5t101.5 -243.5zM724 334q0 130 -93 222.5t-223 92.5t-221.5 -92.5t-91.5 -222.5t91.5 -222.5t221.5 -92.5t223 92.5t93 222.5zM591 434q0 -56 -41.5 -92.5
t-102.5 -36.5h-123l-38 -174h-36l89 405h130q52 0 87 -28t35 -74zM554 431q0 33 -24.5 52t-64.5 19h-97l-36 -163h121q45 0 73 26t28 66z" />
    <glyph glyph-name="servicemark" unicode="&#x2120;" horiz-adv-x="374" 
d="M382 447h-28l40 182l-95 -182h-8l-15 182l-40 -182h-28l48 220h42l10 -157l78 157h44zM181 513q0 -29 -19.5 -50.5t-47.5 -21.5q-33 0 -50 24l18 22q12 -19 33 -19q12 0 24 13t12 28q0 18 -25 44.5t-25 48.5q0 29 17.5 50t44.5 21q29 0 45 -18l-18 -24q-10 15 -29 15
q-11 0 -20.5 -10.5t-9.5 -26.5q0 -13 25 -42.5t25 -53.5z" />
    <glyph glyph-name="trademark" unicode="&#x2122;" horiz-adv-x="374" 
d="M384 447h-28l40 182l-95 -182h-8l-15 182l-40 -182h-28l48 220h43l10 -157l78 157h43zM217 641h-42l-43 -194h-28l43 194h-42l5 26h112z" />
    <glyph glyph-name="Omega" unicode="&#x2126;" horiz-adv-x="419" 
d="M5 67h80q-43 63 -43 161q0 59 16.5 133.5t45.5 146.5t77 121t104 49q141 0 141 -183q0 -137 -49 -254t-115 -174h72l-14 -67h-132l14 67q58 45 101.5 184t43.5 239q0 63 -14.5 91t-48.5 28q-38 0 -72.5 -48t-55 -117t-32.5 -138t-12 -118q0 -84 26 -121l-15 -67h-132z
" />
    <glyph glyph-name="estimated" unicode="&#x212e;" horiz-adv-x="842" 
d="M829 324h-632q-4 0 -4 -5v-190q0 -15 9 -23q98 -103 240 -103q151 0 250 115h57q-54 -63 -135 -99.5t-174 -36.5q-161 0 -275.5 103t-114.5 248t114.5 248t275.5 103t275.5 -103t114.5 -248zM687 349v191q0 14 -10 24q-97 99 -236 99t-238 -102q-10 -10 -10 -24v-188
q0 -6 5 -6h485q4 0 4 6z" />
    <glyph glyph-name="onethird" unicode="&#x2153;" horiz-adv-x="608" 
d="M167 267h-55l70 324l-69 -60l-27 34l121 102h48zM537 667l-421 -667h-41l420 667h42zM558 122q0 -47 -33 -88t-88 -41q-40 0 -69.5 19t-40.5 51l44 30q15 -54 64 -54q33 0 50.5 29.5t17.5 64.5q0 25 -13.5 37.5t-33.5 12.5q-22 0 -27 -1l10 46q5 -1 30 -1q29 0 50 23.5
t21 60.5q0 22 -13 35.5t-36 13.5q-39 0 -74 -45l-30 31q45 60 109 60q46 0 73 -23.5t27 -65.5q0 -38 -24 -73t-64 -42q50 -15 50 -80z" />
    <glyph glyph-name="twothirds" unicode="&#x2154;" horiz-adv-x="644" 
d="M246 267h-210l10 44q131 131 170.5 180t39.5 87q0 23 -13.5 36t-34.5 13q-42 0 -76 -49l-31 36q49 59 110 59q43 0 72.5 -24t29.5 -67q0 -47 -38 -95.5t-148 -159.5l-14 -14h143zM573 667l-421 -667h-41l420 667h42zM594 122q0 -47 -33 -88t-88 -41q-40 0 -69.5 19
t-40.5 51l44 30q15 -54 64 -54q33 0 50.5 29.5t17.5 64.5q0 25 -13.5 37.5t-33.5 12.5q-22 0 -27 -1l10 46q5 -1 30 -1q29 0 50 23.5t21 60.5q0 22 -13 35.5t-36 13.5q-39 0 -74 -45l-30 31q45 60 109 60q46 0 73 -23.5t27 -65.5q0 -38 -24 -73t-64 -42q50 -15 50 -80z" />
    <glyph glyph-name="oneeighth" unicode="&#x215b;" horiz-adv-x="608" 
d="M167 267h-55l70 324l-69 -60l-27 34l121 102h48zM555 115q0 -53 -32.5 -87.5t-83.5 -34.5q-49 0 -79 23t-30 66q0 46 29.5 81t68.5 47q-46 27 -46 79q0 51 33.5 84t79.5 33q42 0 71.5 -22t29.5 -65q0 -40 -25 -72.5t-66 -45.5q20 -11 35 -35t15 -51zM539 315q0 46 -44 46
q-26 0 -43 -24t-17 -54q0 -22 12.5 -38t24.5 -21q29 10 48 33t19 58zM500 118q0 25 -12.5 43.5t-24.5 24.5q-27 -4 -51 -33t-24 -67q0 -22 13 -35.5t35 -13.5q25 0 44.5 23.5t19.5 57.5zM537 667l-421 -667h-41l420 667h42z" />
    </font>
</defs>
</svg>
